<?xml version="1.0" encoding="utf-8" standalone="no"?>
<!DOCTYPE svg PUBLIC "-//W3C//DTD SVG 1.1//EN"
  "http://www.w3.org/Graphics/SVG/1.1/DTD/svg11.dtd">
<!-- Created with matplotlib (https://matplotlib.org/) -->
<svg height="432pt" version="1.1" viewBox="0 0 720 432" width="720pt" xmlns="http://www.w3.org/2000/svg" xmlns:xlink="http://www.w3.org/1999/xlink">
 <metadata>
  <rdf:RDF xmlns:cc="http://creativecommons.org/ns#" xmlns:dc="http://purl.org/dc/elements/1.1/" xmlns:rdf="http://www.w3.org/1999/02/22-rdf-syntax-ns#">
   <cc:Work>
    <dc:type rdf:resource="http://purl.org/dc/dcmitype/StillImage"/>
    <dc:date>2021-10-29T20:06:57.204101</dc:date>
    <dc:format>image/svg+xml</dc:format>
    <dc:creator>
     <cc:Agent>
      <dc:title>Matplotlib v3.3.0, https://matplotlib.org/</dc:title>
     </cc:Agent>
    </dc:creator>
   </cc:Work>
  </rdf:RDF>
 </metadata>
 <defs>
  <style type="text/css">*{stroke-linecap:butt;stroke-linejoin:round;}</style>
 </defs>
 <g id="figure_1">
  <g id="patch_1">
   <path d="M 0 432 
L 720 432 
L 720 0 
L 0 0 
z
" style="fill:none;"/>
  </g>
  <g id="axes_1">
   <g id="patch_2">
    <path d="M 90 378 
L 648 378 
L 648 51.84 
L 90 51.84 
z
" style="fill:#ffffff;"/>
   </g>
   <g id="patch_3">
    <path clip-path="url(#p33f08530e0)" d="M 115.363636 362.857006 
L 129.325271 362.857006 
L 129.325271 172.524367 
L 115.363636 172.524367 
z
" style="fill:#1f77b4;"/>
   </g>
   <g id="patch_4">
    <path clip-path="url(#p33f08530e0)" d="M 161.902419 362.857006 
L 175.864053 362.857006 
L 175.864053 144.740897 
L 161.902419 144.740897 
z
" style="fill:#1f77b4;"/>
   </g>
   <g id="patch_5">
    <path clip-path="url(#p33f08530e0)" d="M 208.441201 362.857006 
L 222.402836 362.857006 
L 222.402836 339.906274 
L 208.441201 339.906274 
z
" style="fill:#1f77b4;"/>
   </g>
   <g id="patch_6">
    <path clip-path="url(#p33f08530e0)" d="M 254.979983 362.857006 
L 268.941618 362.857006 
L 268.941618 322.921143 
L 254.979983 322.921143 
z
" style="fill:#1f77b4;"/>
   </g>
   <g id="patch_7">
    <path clip-path="url(#p33f08530e0)" d="M 301.518766 362.857006 
L 315.4804 362.857006 
L 315.4804 356.767829 
L 301.518766 356.767829 
z
" style="fill:#1f77b4;"/>
   </g>
   <g id="patch_8">
    <path clip-path="url(#p33f08530e0)" d="M 348.057548 362.857006 
L 362.019183 362.857006 
L 362.019183 355.798641 
L 348.057548 355.798641 
z
" style="fill:#1f77b4;"/>
   </g>
   <g id="patch_9">
    <path clip-path="url(#p33f08530e0)" d="M 394.59633 362.857006 
L 408.557965 362.857006 
L 408.557965 359.773684 
L 394.59633 359.773684 
z
" style="fill:#1f77b4;"/>
   </g>
   <g id="patch_10">
    <path clip-path="url(#p33f08530e0)" d="M 441.135113 362.857006 
L 455.096747 362.857006 
L 455.096747 361.654679 
L 441.135113 361.654679 
z
" style="fill:#1f77b4;"/>
   </g>
   <g id="patch_11">
    <path clip-path="url(#p33f08530e0)" d="M 487.673895 362.857006 
L 501.63553 362.857006 
L 501.63553 360.555533 
L 487.673895 360.555533 
z
" style="fill:#1f77b4;"/>
   </g>
   <g id="patch_12">
    <path clip-path="url(#p33f08530e0)" d="M 534.212677 362.857006 
L 548.174312 362.857006 
L 548.174312 362.176632 
L 534.212677 362.176632 
z
" style="fill:#1f77b4;"/>
   </g>
   <g id="patch_13">
    <path clip-path="url(#p33f08530e0)" d="M 580.75146 362.857006 
L 594.713094 362.857006 
L 594.713094 362.157038 
L 580.75146 362.157038 
z
" style="fill:#1f77b4;"/>
   </g>
   <g id="patch_14">
    <path clip-path="url(#p33f08530e0)" d="M 129.325271 362.857006 
L 143.286906 362.857006 
L 143.286906 79.733001 
L 129.325271 79.733001 
z
" style="fill:#ff7f0e;"/>
   </g>
   <g id="patch_15">
    <path clip-path="url(#p33f08530e0)" d="M 175.864053 362.857006 
L 189.825688 362.857006 
L 189.825688 212.040556 
L 175.864053 212.040556 
z
" style="fill:#ff7f0e;"/>
   </g>
   <g id="patch_16">
    <path clip-path="url(#p33f08530e0)" d="M 222.402836 362.857006 
L 236.36447 362.857006 
L 236.36447 340.201967 
L 222.402836 340.201967 
z
" style="fill:#ff7f0e;"/>
   </g>
   <g id="patch_17">
    <path clip-path="url(#p33f08530e0)" d="M 268.941618 362.857006 
L 282.903253 362.857006 
L 282.903253 362.400659 
L 268.941618 362.400659 
z
" style="fill:#ff7f0e;"/>
   </g>
   <g id="patch_18">
    <path clip-path="url(#p33f08530e0)" d="M 315.4804 362.857006 
L 329.442035 362.857006 
L 329.442035 335.095493 
L 315.4804 335.095493 
z
" style="fill:#ff7f0e;"/>
   </g>
   <g id="patch_19">
    <path clip-path="url(#p33f08530e0)" d="M 362.019183 362.857006 
L 375.980817 362.857006 
L 375.980817 360.629209 
L 362.019183 360.629209 
z
" style="fill:#ff7f0e;"/>
   </g>
   <g id="patch_20">
    <path clip-path="url(#p33f08530e0)" d="M 408.557965 362.857006 
L 422.5196 362.857006 
L 422.5196 362.016993 
L 408.557965 362.016993 
z
" style="fill:#ff7f0e;"/>
   </g>
   <g id="patch_21">
    <path clip-path="url(#p33f08530e0)" d="M 455.096747 362.857006 
L 469.058382 362.857006 
L 469.058382 360.315719 
L 455.096747 360.315719 
z
" style="fill:#ff7f0e;"/>
   </g>
   <g id="patch_22">
    <path clip-path="url(#p33f08530e0)" d="M 501.63553 362.857006 
L 515.597164 362.857006 
L 515.597164 362.503839 
L 501.63553 362.503839 
z
" style="fill:#ff7f0e;"/>
   </g>
   <g id="patch_23">
    <path clip-path="url(#p33f08530e0)" d="M 548.174312 362.857006 
L 562.135947 362.857006 
L 562.135947 361.646963 
L 548.174312 361.646963 
z
" style="fill:#ff7f0e;"/>
   </g>
   <g id="patch_24">
    <path clip-path="url(#p33f08530e0)" d="M 594.713094 362.857006 
L 608.674729 362.857006 
L 608.674729 362.4598 
L 594.713094 362.4598 
z
" style="fill:#ff7f0e;"/>
   </g>
   <g id="patch_25">
    <path clip-path="url(#p33f08530e0)" d="M 143.286906 362.857006 
L 157.24854 362.857006 
L 157.24854 345.190801 
L 143.286906 345.190801 
z
" style="fill:#2ca02c;"/>
   </g>
   <g id="patch_26">
    <path clip-path="url(#p33f08530e0)" d="M 189.825688 362.857006 
L 203.787323 362.857006 
L 203.787323 329.442231 
L 189.825688 329.442231 
z
" style="fill:#2ca02c;"/>
   </g>
   <g id="patch_27">
    <path clip-path="url(#p33f08530e0)" d="M 236.36447 362.857006 
L 250.326105 362.857006 
L 250.326105 362.326472 
L 236.36447 362.326472 
z
" style="fill:#2ca02c;"/>
   </g>
   <g id="patch_28">
    <path clip-path="url(#p33f08530e0)" d="M 282.903253 362.857006 
L 296.864887 362.857006 
L 296.864887 229.122042 
L 282.903253 229.122042 
z
" style="fill:#2ca02c;"/>
   </g>
   <g id="patch_29">
    <path clip-path="url(#p33f08530e0)" d="M 329.442035 362.857006 
L 343.40367 362.857006 
L 343.40367 336.009883 
L 329.442035 336.009883 
z
" style="fill:#2ca02c;"/>
   </g>
   <g id="patch_30">
    <path clip-path="url(#p33f08530e0)" d="M 375.980817 362.857006 
L 389.942452 362.857006 
L 389.942452 354.527334 
L 375.980817 354.527334 
z
" style="fill:#2ca02c;"/>
   </g>
   <g id="patch_31">
    <path clip-path="url(#p33f08530e0)" d="M 422.5196 362.857006 
L 436.481234 362.857006 
L 436.481234 356.68305 
L 422.5196 356.68305 
z
" style="fill:#2ca02c;"/>
   </g>
   <g id="patch_32">
    <path clip-path="url(#p33f08530e0)" d="M 469.058382 362.857006 
L 483.020017 362.857006 
L 483.020017 361.2251 
L 469.058382 361.2251 
z
" style="fill:#2ca02c;"/>
   </g>
   <g id="patch_33">
    <path clip-path="url(#p33f08530e0)" d="M 515.597164 362.857006 
L 529.558799 362.857006 
L 529.558799 358.421945 
L 515.597164 358.421945 
z
" style="fill:#2ca02c;"/>
   </g>
   <g id="patch_34">
    <path clip-path="url(#p33f08530e0)" d="M 562.135947 362.857006 
L 576.097581 362.857006 
L 576.097581 362.324483 
L 562.135947 362.324483 
z
" style="fill:#2ca02c;"/>
   </g>
   <g id="patch_35">
    <path clip-path="url(#p33f08530e0)" d="M 608.674729 362.857006 
L 622.636364 362.857006 
L 622.636364 361.279483 
L 608.674729 361.279483 
z
" style="fill:#2ca02c;"/>
   </g>
   <g id="matplotlib.axis_1">
    <g id="xtick_1">
     <g id="line2d_1">
      <defs>
       <path d="M 0 0 
L 0 3.5 
" id="mcbd0f6ca85" style="stroke:#000000;stroke-width:0.8;"/>
      </defs>
      <g>
       <use style="stroke:#000000;stroke-width:0.8;" x="136.306088" xlink:href="#mcbd0f6ca85" y="378"/>
      </g>
     </g>
     <g id="text_1">
      <!-- mean-juvenile-mortality-prob -->
      <g transform="translate(139.617338 560.629375)rotate(-90)scale(0.12 -0.12)">
       <defs>
        <path d="M 52 44.1875 
Q 55.375 50.25 60.0625 53.125 
Q 64.75 56 71.09375 56 
Q 79.640625 56 84.28125 50.015625 
Q 88.921875 44.046875 88.921875 33.015625 
L 88.921875 0 
L 79.890625 0 
L 79.890625 32.71875 
Q 79.890625 40.578125 77.09375 44.375 
Q 74.3125 48.1875 68.609375 48.1875 
Q 61.625 48.1875 57.5625 43.546875 
Q 53.515625 38.921875 53.515625 30.90625 
L 53.515625 0 
L 44.484375 0 
L 44.484375 32.71875 
Q 44.484375 40.625 41.703125 44.40625 
Q 38.921875 48.1875 33.109375 48.1875 
Q 26.21875 48.1875 22.15625 43.53125 
Q 18.109375 38.875 18.109375 30.90625 
L 18.109375 0 
L 9.078125 0 
L 9.078125 54.6875 
L 18.109375 54.6875 
L 18.109375 46.1875 
Q 21.1875 51.21875 25.484375 53.609375 
Q 29.78125 56 35.6875 56 
Q 41.65625 56 45.828125 52.96875 
Q 50 49.953125 52 44.1875 
z
" id="DejaVuSans-109"/>
        <path d="M 56.203125 29.59375 
L 56.203125 25.203125 
L 14.890625 25.203125 
Q 15.484375 15.921875 20.484375 11.0625 
Q 25.484375 6.203125 34.421875 6.203125 
Q 39.59375 6.203125 44.453125 7.46875 
Q 49.3125 8.734375 54.109375 11.28125 
L 54.109375 2.78125 
Q 49.265625 0.734375 44.1875 -0.34375 
Q 39.109375 -1.421875 33.890625 -1.421875 
Q 20.796875 -1.421875 13.15625 6.1875 
Q 5.515625 13.8125 5.515625 26.8125 
Q 5.515625 40.234375 12.765625 48.109375 
Q 20.015625 56 32.328125 56 
Q 43.359375 56 49.78125 48.890625 
Q 56.203125 41.796875 56.203125 29.59375 
z
M 47.21875 32.234375 
Q 47.125 39.59375 43.09375 43.984375 
Q 39.0625 48.390625 32.421875 48.390625 
Q 24.90625 48.390625 20.390625 44.140625 
Q 15.875 39.890625 15.1875 32.171875 
z
" id="DejaVuSans-101"/>
        <path d="M 34.28125 27.484375 
Q 23.390625 27.484375 19.1875 25 
Q 14.984375 22.515625 14.984375 16.5 
Q 14.984375 11.71875 18.140625 8.90625 
Q 21.296875 6.109375 26.703125 6.109375 
Q 34.1875 6.109375 38.703125 11.40625 
Q 43.21875 16.703125 43.21875 25.484375 
L 43.21875 27.484375 
z
M 52.203125 31.203125 
L 52.203125 0 
L 43.21875 0 
L 43.21875 8.296875 
Q 40.140625 3.328125 35.546875 0.953125 
Q 30.953125 -1.421875 24.3125 -1.421875 
Q 15.921875 -1.421875 10.953125 3.296875 
Q 6 8.015625 6 15.921875 
Q 6 25.140625 12.171875 29.828125 
Q 18.359375 34.515625 30.609375 34.515625 
L 43.21875 34.515625 
L 43.21875 35.40625 
Q 43.21875 41.609375 39.140625 45 
Q 35.0625 48.390625 27.6875 48.390625 
Q 23 48.390625 18.546875 47.265625 
Q 14.109375 46.140625 10.015625 43.890625 
L 10.015625 52.203125 
Q 14.9375 54.109375 19.578125 55.046875 
Q 24.21875 56 28.609375 56 
Q 40.484375 56 46.34375 49.84375 
Q 52.203125 43.703125 52.203125 31.203125 
z
" id="DejaVuSans-97"/>
        <path d="M 54.890625 33.015625 
L 54.890625 0 
L 45.90625 0 
L 45.90625 32.71875 
Q 45.90625 40.484375 42.875 44.328125 
Q 39.84375 48.1875 33.796875 48.1875 
Q 26.515625 48.1875 22.3125 43.546875 
Q 18.109375 38.921875 18.109375 30.90625 
L 18.109375 0 
L 9.078125 0 
L 9.078125 54.6875 
L 18.109375 54.6875 
L 18.109375 46.1875 
Q 21.34375 51.125 25.703125 53.5625 
Q 30.078125 56 35.796875 56 
Q 45.21875 56 50.046875 50.171875 
Q 54.890625 44.34375 54.890625 33.015625 
z
" id="DejaVuSans-110"/>
        <path d="M 4.890625 31.390625 
L 31.203125 31.390625 
L 31.203125 23.390625 
L 4.890625 23.390625 
z
" id="DejaVuSans-45"/>
        <path d="M 9.421875 54.6875 
L 18.40625 54.6875 
L 18.40625 -0.984375 
Q 18.40625 -11.421875 14.421875 -16.109375 
Q 10.453125 -20.796875 1.609375 -20.796875 
L -1.8125 -20.796875 
L -1.8125 -13.1875 
L 0.59375 -13.1875 
Q 5.71875 -13.1875 7.5625 -10.8125 
Q 9.421875 -8.453125 9.421875 -0.984375 
z
M 9.421875 75.984375 
L 18.40625 75.984375 
L 18.40625 64.59375 
L 9.421875 64.59375 
z
" id="DejaVuSans-106"/>
        <path d="M 8.5 21.578125 
L 8.5 54.6875 
L 17.484375 54.6875 
L 17.484375 21.921875 
Q 17.484375 14.15625 20.5 10.265625 
Q 23.53125 6.390625 29.59375 6.390625 
Q 36.859375 6.390625 41.078125 11.03125 
Q 45.3125 15.671875 45.3125 23.6875 
L 45.3125 54.6875 
L 54.296875 54.6875 
L 54.296875 0 
L 45.3125 0 
L 45.3125 8.40625 
Q 42.046875 3.421875 37.71875 1 
Q 33.40625 -1.421875 27.6875 -1.421875 
Q 18.265625 -1.421875 13.375 4.4375 
Q 8.5 10.296875 8.5 21.578125 
z
M 31.109375 56 
z
" id="DejaVuSans-117"/>
        <path d="M 2.984375 54.6875 
L 12.5 54.6875 
L 29.59375 8.796875 
L 46.6875 54.6875 
L 56.203125 54.6875 
L 35.6875 0 
L 23.484375 0 
z
" id="DejaVuSans-118"/>
        <path d="M 9.421875 54.6875 
L 18.40625 54.6875 
L 18.40625 0 
L 9.421875 0 
z
M 9.421875 75.984375 
L 18.40625 75.984375 
L 18.40625 64.59375 
L 9.421875 64.59375 
z
" id="DejaVuSans-105"/>
        <path d="M 9.421875 75.984375 
L 18.40625 75.984375 
L 18.40625 0 
L 9.421875 0 
z
" id="DejaVuSans-108"/>
        <path d="M 30.609375 48.390625 
Q 23.390625 48.390625 19.1875 42.75 
Q 14.984375 37.109375 14.984375 27.296875 
Q 14.984375 17.484375 19.15625 11.84375 
Q 23.34375 6.203125 30.609375 6.203125 
Q 37.796875 6.203125 41.984375 11.859375 
Q 46.1875 17.53125 46.1875 27.296875 
Q 46.1875 37.015625 41.984375 42.703125 
Q 37.796875 48.390625 30.609375 48.390625 
z
M 30.609375 56 
Q 42.328125 56 49.015625 48.375 
Q 55.71875 40.765625 55.71875 27.296875 
Q 55.71875 13.875 49.015625 6.21875 
Q 42.328125 -1.421875 30.609375 -1.421875 
Q 18.84375 -1.421875 12.171875 6.21875 
Q 5.515625 13.875 5.515625 27.296875 
Q 5.515625 40.765625 12.171875 48.375 
Q 18.84375 56 30.609375 56 
z
" id="DejaVuSans-111"/>
        <path d="M 41.109375 46.296875 
Q 39.59375 47.171875 37.8125 47.578125 
Q 36.03125 48 33.890625 48 
Q 26.265625 48 22.1875 43.046875 
Q 18.109375 38.09375 18.109375 28.8125 
L 18.109375 0 
L 9.078125 0 
L 9.078125 54.6875 
L 18.109375 54.6875 
L 18.109375 46.1875 
Q 20.953125 51.171875 25.484375 53.578125 
Q 30.03125 56 36.53125 56 
Q 37.453125 56 38.578125 55.875 
Q 39.703125 55.765625 41.0625 55.515625 
z
" id="DejaVuSans-114"/>
        <path d="M 18.3125 70.21875 
L 18.3125 54.6875 
L 36.8125 54.6875 
L 36.8125 47.703125 
L 18.3125 47.703125 
L 18.3125 18.015625 
Q 18.3125 11.328125 20.140625 9.421875 
Q 21.96875 7.515625 27.59375 7.515625 
L 36.8125 7.515625 
L 36.8125 0 
L 27.59375 0 
Q 17.1875 0 13.234375 3.875 
Q 9.28125 7.765625 9.28125 18.015625 
L 9.28125 47.703125 
L 2.6875 47.703125 
L 2.6875 54.6875 
L 9.28125 54.6875 
L 9.28125 70.21875 
z
" id="DejaVuSans-116"/>
        <path d="M 32.171875 -5.078125 
Q 28.375 -14.84375 24.75 -17.8125 
Q 21.140625 -20.796875 15.09375 -20.796875 
L 7.90625 -20.796875 
L 7.90625 -13.28125 
L 13.1875 -13.28125 
Q 16.890625 -13.28125 18.9375 -11.515625 
Q 21 -9.765625 23.484375 -3.21875 
L 25.09375 0.875 
L 2.984375 54.6875 
L 12.5 54.6875 
L 29.59375 11.921875 
L 46.6875 54.6875 
L 56.203125 54.6875 
z
" id="DejaVuSans-121"/>
        <path d="M 18.109375 8.203125 
L 18.109375 -20.796875 
L 9.078125 -20.796875 
L 9.078125 54.6875 
L 18.109375 54.6875 
L 18.109375 46.390625 
Q 20.953125 51.265625 25.265625 53.625 
Q 29.59375 56 35.59375 56 
Q 45.5625 56 51.78125 48.09375 
Q 58.015625 40.1875 58.015625 27.296875 
Q 58.015625 14.40625 51.78125 6.484375 
Q 45.5625 -1.421875 35.59375 -1.421875 
Q 29.59375 -1.421875 25.265625 0.953125 
Q 20.953125 3.328125 18.109375 8.203125 
z
M 48.6875 27.296875 
Q 48.6875 37.203125 44.609375 42.84375 
Q 40.53125 48.484375 33.40625 48.484375 
Q 26.265625 48.484375 22.1875 42.84375 
Q 18.109375 37.203125 18.109375 27.296875 
Q 18.109375 17.390625 22.1875 11.75 
Q 26.265625 6.109375 33.40625 6.109375 
Q 40.53125 6.109375 44.609375 11.75 
Q 48.6875 17.390625 48.6875 27.296875 
z
" id="DejaVuSans-112"/>
        <path d="M 48.6875 27.296875 
Q 48.6875 37.203125 44.609375 42.84375 
Q 40.53125 48.484375 33.40625 48.484375 
Q 26.265625 48.484375 22.1875 42.84375 
Q 18.109375 37.203125 18.109375 27.296875 
Q 18.109375 17.390625 22.1875 11.75 
Q 26.265625 6.109375 33.40625 6.109375 
Q 40.53125 6.109375 44.609375 11.75 
Q 48.6875 17.390625 48.6875 27.296875 
z
M 18.109375 46.390625 
Q 20.953125 51.265625 25.265625 53.625 
Q 29.59375 56 35.59375 56 
Q 45.5625 56 51.78125 48.09375 
Q 58.015625 40.1875 58.015625 27.296875 
Q 58.015625 14.40625 51.78125 6.484375 
Q 45.5625 -1.421875 35.59375 -1.421875 
Q 29.59375 -1.421875 25.265625 0.953125 
Q 20.953125 3.328125 18.109375 8.203125 
L 18.109375 0 
L 9.078125 0 
L 9.078125 75.984375 
L 18.109375 75.984375 
z
" id="DejaVuSans-98"/>
       </defs>
       <use xlink:href="#DejaVuSans-109"/>
       <use x="97.412109" xlink:href="#DejaVuSans-101"/>
       <use x="158.935547" xlink:href="#DejaVuSans-97"/>
       <use x="220.214844" xlink:href="#DejaVuSans-110"/>
       <use x="283.59375" xlink:href="#DejaVuSans-45"/>
       <use x="319.677734" xlink:href="#DejaVuSans-106"/>
       <use x="347.460938" xlink:href="#DejaVuSans-117"/>
       <use x="410.839844" xlink:href="#DejaVuSans-118"/>
       <use x="470.019531" xlink:href="#DejaVuSans-101"/>
       <use x="531.542969" xlink:href="#DejaVuSans-110"/>
       <use x="594.921875" xlink:href="#DejaVuSans-105"/>
       <use x="622.705078" xlink:href="#DejaVuSans-108"/>
       <use x="650.488281" xlink:href="#DejaVuSans-101"/>
       <use x="712.011719" xlink:href="#DejaVuSans-45"/>
       <use x="748.095703" xlink:href="#DejaVuSans-109"/>
       <use x="845.507812" xlink:href="#DejaVuSans-111"/>
       <use x="906.689453" xlink:href="#DejaVuSans-114"/>
       <use x="947.802734" xlink:href="#DejaVuSans-116"/>
       <use x="987.011719" xlink:href="#DejaVuSans-97"/>
       <use x="1048.291016" xlink:href="#DejaVuSans-108"/>
       <use x="1076.074219" xlink:href="#DejaVuSans-105"/>
       <use x="1103.857422" xlink:href="#DejaVuSans-116"/>
       <use x="1143.066406" xlink:href="#DejaVuSans-121"/>
       <use x="1200.496094" xlink:href="#DejaVuSans-45"/>
       <use x="1236.580078" xlink:href="#DejaVuSans-112"/>
       <use x="1300.056641" xlink:href="#DejaVuSans-114"/>
       <use x="1338.919922" xlink:href="#DejaVuSans-111"/>
       <use x="1400.101562" xlink:href="#DejaVuSans-98"/>
      </g>
     </g>
    </g>
    <g id="xtick_2">
     <g id="line2d_2">
      <g>
       <use style="stroke:#000000;stroke-width:0.8;" x="182.844871" xlink:href="#mcbd0f6ca85" y="378"/>
      </g>
     </g>
     <g id="text_2">
      <!-- capacity -->
      <g transform="translate(186.156121 435.6625)rotate(-90)scale(0.12 -0.12)">
       <defs>
        <path d="M 48.78125 52.59375 
L 48.78125 44.1875 
Q 44.96875 46.296875 41.140625 47.34375 
Q 37.3125 48.390625 33.40625 48.390625 
Q 24.65625 48.390625 19.8125 42.84375 
Q 14.984375 37.3125 14.984375 27.296875 
Q 14.984375 17.28125 19.8125 11.734375 
Q 24.65625 6.203125 33.40625 6.203125 
Q 37.3125 6.203125 41.140625 7.25 
Q 44.96875 8.296875 48.78125 10.40625 
L 48.78125 2.09375 
Q 45.015625 0.34375 40.984375 -0.53125 
Q 36.96875 -1.421875 32.421875 -1.421875 
Q 20.0625 -1.421875 12.78125 6.34375 
Q 5.515625 14.109375 5.515625 27.296875 
Q 5.515625 40.671875 12.859375 48.328125 
Q 20.21875 56 33.015625 56 
Q 37.15625 56 41.109375 55.140625 
Q 45.0625 54.296875 48.78125 52.59375 
z
" id="DejaVuSans-99"/>
       </defs>
       <use xlink:href="#DejaVuSans-99"/>
       <use x="54.980469" xlink:href="#DejaVuSans-97"/>
       <use x="116.259766" xlink:href="#DejaVuSans-112"/>
       <use x="179.736328" xlink:href="#DejaVuSans-97"/>
       <use x="241.015625" xlink:href="#DejaVuSans-99"/>
       <use x="295.996094" xlink:href="#DejaVuSans-105"/>
       <use x="323.779297" xlink:href="#DejaVuSans-116"/>
       <use x="362.988281" xlink:href="#DejaVuSans-121"/>
      </g>
     </g>
    </g>
    <g id="xtick_3">
     <g id="line2d_3">
      <g>
       <use style="stroke:#000000;stroke-width:0.8;" x="229.383653" xlink:href="#mcbd0f6ca85" y="378"/>
      </g>
     </g>
     <g id="text_3">
      <!-- mean-adult-mortality-prob -->
      <g transform="translate(232.694903 544.163125)rotate(-90)scale(0.12 -0.12)">
       <defs>
        <path d="M 45.40625 46.390625 
L 45.40625 75.984375 
L 54.390625 75.984375 
L 54.390625 0 
L 45.40625 0 
L 45.40625 8.203125 
Q 42.578125 3.328125 38.25 0.953125 
Q 33.9375 -1.421875 27.875 -1.421875 
Q 17.96875 -1.421875 11.734375 6.484375 
Q 5.515625 14.40625 5.515625 27.296875 
Q 5.515625 40.1875 11.734375 48.09375 
Q 17.96875 56 27.875 56 
Q 33.9375 56 38.25 53.625 
Q 42.578125 51.265625 45.40625 46.390625 
z
M 14.796875 27.296875 
Q 14.796875 17.390625 18.875 11.75 
Q 22.953125 6.109375 30.078125 6.109375 
Q 37.203125 6.109375 41.296875 11.75 
Q 45.40625 17.390625 45.40625 27.296875 
Q 45.40625 37.203125 41.296875 42.84375 
Q 37.203125 48.484375 30.078125 48.484375 
Q 22.953125 48.484375 18.875 42.84375 
Q 14.796875 37.203125 14.796875 27.296875 
z
" id="DejaVuSans-100"/>
       </defs>
       <use xlink:href="#DejaVuSans-109"/>
       <use x="97.412109" xlink:href="#DejaVuSans-101"/>
       <use x="158.935547" xlink:href="#DejaVuSans-97"/>
       <use x="220.214844" xlink:href="#DejaVuSans-110"/>
       <use x="283.59375" xlink:href="#DejaVuSans-45"/>
       <use x="319.677734" xlink:href="#DejaVuSans-97"/>
       <use x="380.957031" xlink:href="#DejaVuSans-100"/>
       <use x="444.433594" xlink:href="#DejaVuSans-117"/>
       <use x="507.8125" xlink:href="#DejaVuSans-108"/>
       <use x="535.595703" xlink:href="#DejaVuSans-116"/>
       <use x="574.804688" xlink:href="#DejaVuSans-45"/>
       <use x="610.888672" xlink:href="#DejaVuSans-109"/>
       <use x="708.300781" xlink:href="#DejaVuSans-111"/>
       <use x="769.482422" xlink:href="#DejaVuSans-114"/>
       <use x="810.595703" xlink:href="#DejaVuSans-116"/>
       <use x="849.804688" xlink:href="#DejaVuSans-97"/>
       <use x="911.083984" xlink:href="#DejaVuSans-108"/>
       <use x="938.867188" xlink:href="#DejaVuSans-105"/>
       <use x="966.650391" xlink:href="#DejaVuSans-116"/>
       <use x="1005.859375" xlink:href="#DejaVuSans-121"/>
       <use x="1063.289062" xlink:href="#DejaVuSans-45"/>
       <use x="1099.373047" xlink:href="#DejaVuSans-112"/>
       <use x="1162.849609" xlink:href="#DejaVuSans-114"/>
       <use x="1201.712891" xlink:href="#DejaVuSans-111"/>
       <use x="1262.894531" xlink:href="#DejaVuSans-98"/>
      </g>
     </g>
    </g>
    <g id="xtick_4">
     <g id="line2d_4">
      <g>
       <use style="stroke:#000000;stroke-width:0.8;" x="275.922435" xlink:href="#mcbd0f6ca85" y="378"/>
      </g>
     </g>
     <g id="text_4">
      <!-- mortality-decrease-with-buffer -->
      <g transform="translate(279.233685 568.35625)rotate(-90)scale(0.12 -0.12)">
       <defs>
        <path d="M 44.28125 53.078125 
L 44.28125 44.578125 
Q 40.484375 46.53125 36.375 47.5 
Q 32.28125 48.484375 27.875 48.484375 
Q 21.1875 48.484375 17.84375 46.4375 
Q 14.5 44.390625 14.5 40.28125 
Q 14.5 37.15625 16.890625 35.375 
Q 19.28125 33.59375 26.515625 31.984375 
L 29.59375 31.296875 
Q 39.15625 29.25 43.1875 25.515625 
Q 47.21875 21.78125 47.21875 15.09375 
Q 47.21875 7.46875 41.1875 3.015625 
Q 35.15625 -1.421875 24.609375 -1.421875 
Q 20.21875 -1.421875 15.453125 -0.5625 
Q 10.6875 0.296875 5.421875 2 
L 5.421875 11.28125 
Q 10.40625 8.6875 15.234375 7.390625 
Q 20.0625 6.109375 24.8125 6.109375 
Q 31.15625 6.109375 34.5625 8.28125 
Q 37.984375 10.453125 37.984375 14.40625 
Q 37.984375 18.0625 35.515625 20.015625 
Q 33.0625 21.96875 24.703125 23.78125 
L 21.578125 24.515625 
Q 13.234375 26.265625 9.515625 29.90625 
Q 5.8125 33.546875 5.8125 39.890625 
Q 5.8125 47.609375 11.28125 51.796875 
Q 16.75 56 26.8125 56 
Q 31.78125 56 36.171875 55.265625 
Q 40.578125 54.546875 44.28125 53.078125 
z
" id="DejaVuSans-115"/>
        <path d="M 4.203125 54.6875 
L 13.1875 54.6875 
L 24.421875 12.015625 
L 35.59375 54.6875 
L 46.1875 54.6875 
L 57.421875 12.015625 
L 68.609375 54.6875 
L 77.59375 54.6875 
L 63.28125 0 
L 52.6875 0 
L 40.921875 44.828125 
L 29.109375 0 
L 18.5 0 
z
" id="DejaVuSans-119"/>
        <path d="M 54.890625 33.015625 
L 54.890625 0 
L 45.90625 0 
L 45.90625 32.71875 
Q 45.90625 40.484375 42.875 44.328125 
Q 39.84375 48.1875 33.796875 48.1875 
Q 26.515625 48.1875 22.3125 43.546875 
Q 18.109375 38.921875 18.109375 30.90625 
L 18.109375 0 
L 9.078125 0 
L 9.078125 75.984375 
L 18.109375 75.984375 
L 18.109375 46.1875 
Q 21.34375 51.125 25.703125 53.5625 
Q 30.078125 56 35.796875 56 
Q 45.21875 56 50.046875 50.171875 
Q 54.890625 44.34375 54.890625 33.015625 
z
" id="DejaVuSans-104"/>
        <path d="M 37.109375 75.984375 
L 37.109375 68.5 
L 28.515625 68.5 
Q 23.6875 68.5 21.796875 66.546875 
Q 19.921875 64.59375 19.921875 59.515625 
L 19.921875 54.6875 
L 34.71875 54.6875 
L 34.71875 47.703125 
L 19.921875 47.703125 
L 19.921875 0 
L 10.890625 0 
L 10.890625 47.703125 
L 2.296875 47.703125 
L 2.296875 54.6875 
L 10.890625 54.6875 
L 10.890625 58.5 
Q 10.890625 67.625 15.140625 71.796875 
Q 19.390625 75.984375 28.609375 75.984375 
z
" id="DejaVuSans-102"/>
       </defs>
       <use xlink:href="#DejaVuSans-109"/>
       <use x="97.412109" xlink:href="#DejaVuSans-111"/>
       <use x="158.59375" xlink:href="#DejaVuSans-114"/>
       <use x="199.707031" xlink:href="#DejaVuSans-116"/>
       <use x="238.916016" xlink:href="#DejaVuSans-97"/>
       <use x="300.195312" xlink:href="#DejaVuSans-108"/>
       <use x="327.978516" xlink:href="#DejaVuSans-105"/>
       <use x="355.761719" xlink:href="#DejaVuSans-116"/>
       <use x="394.970703" xlink:href="#DejaVuSans-121"/>
       <use x="452.400391" xlink:href="#DejaVuSans-45"/>
       <use x="488.484375" xlink:href="#DejaVuSans-100"/>
       <use x="551.960938" xlink:href="#DejaVuSans-101"/>
       <use x="613.484375" xlink:href="#DejaVuSans-99"/>
       <use x="668.464844" xlink:href="#DejaVuSans-114"/>
       <use x="707.328125" xlink:href="#DejaVuSans-101"/>
       <use x="768.851562" xlink:href="#DejaVuSans-97"/>
       <use x="830.130859" xlink:href="#DejaVuSans-115"/>
       <use x="882.230469" xlink:href="#DejaVuSans-101"/>
       <use x="943.753906" xlink:href="#DejaVuSans-45"/>
       <use x="979.837891" xlink:href="#DejaVuSans-119"/>
       <use x="1061.625" xlink:href="#DejaVuSans-105"/>
       <use x="1089.408203" xlink:href="#DejaVuSans-116"/>
       <use x="1128.617188" xlink:href="#DejaVuSans-104"/>
       <use x="1191.996094" xlink:href="#DejaVuSans-45"/>
       <use x="1228.080078" xlink:href="#DejaVuSans-98"/>
       <use x="1291.556641" xlink:href="#DejaVuSans-117"/>
       <use x="1354.935547" xlink:href="#DejaVuSans-102"/>
       <use x="1390.140625" xlink:href="#DejaVuSans-102"/>
       <use x="1425.345703" xlink:href="#DejaVuSans-101"/>
       <use x="1486.869141" xlink:href="#DejaVuSans-114"/>
      </g>
     </g>
    </g>
    <g id="xtick_5">
     <g id="line2d_5">
      <g>
       <use style="stroke:#000000;stroke-width:0.8;" x="322.461218" xlink:href="#mcbd0f6ca85" y="378"/>
      </g>
     </g>
     <g id="text_5">
      <!-- distance-for-viewing-ponds-and-woodland -->
      <g transform="translate(325.772468 636.145)rotate(-90)scale(0.12 -0.12)">
       <defs>
        <path d="M 45.40625 27.984375 
Q 45.40625 37.75 41.375 43.109375 
Q 37.359375 48.484375 30.078125 48.484375 
Q 22.859375 48.484375 18.828125 43.109375 
Q 14.796875 37.75 14.796875 27.984375 
Q 14.796875 18.265625 18.828125 12.890625 
Q 22.859375 7.515625 30.078125 7.515625 
Q 37.359375 7.515625 41.375 12.890625 
Q 45.40625 18.265625 45.40625 27.984375 
z
M 54.390625 6.78125 
Q 54.390625 -7.171875 48.1875 -13.984375 
Q 42 -20.796875 29.203125 -20.796875 
Q 24.46875 -20.796875 20.265625 -20.09375 
Q 16.0625 -19.390625 12.109375 -17.921875 
L 12.109375 -9.1875 
Q 16.0625 -11.328125 19.921875 -12.34375 
Q 23.78125 -13.375 27.78125 -13.375 
Q 36.625 -13.375 41.015625 -8.765625 
Q 45.40625 -4.15625 45.40625 5.171875 
L 45.40625 9.625 
Q 42.625 4.78125 38.28125 2.390625 
Q 33.9375 0 27.875 0 
Q 17.828125 0 11.671875 7.65625 
Q 5.515625 15.328125 5.515625 27.984375 
Q 5.515625 40.671875 11.671875 48.328125 
Q 17.828125 56 27.875 56 
Q 33.9375 56 38.28125 53.609375 
Q 42.625 51.21875 45.40625 46.390625 
L 45.40625 54.6875 
L 54.390625 54.6875 
z
" id="DejaVuSans-103"/>
       </defs>
       <use xlink:href="#DejaVuSans-100"/>
       <use x="63.476562" xlink:href="#DejaVuSans-105"/>
       <use x="91.259766" xlink:href="#DejaVuSans-115"/>
       <use x="143.359375" xlink:href="#DejaVuSans-116"/>
       <use x="182.568359" xlink:href="#DejaVuSans-97"/>
       <use x="243.847656" xlink:href="#DejaVuSans-110"/>
       <use x="307.226562" xlink:href="#DejaVuSans-99"/>
       <use x="362.207031" xlink:href="#DejaVuSans-101"/>
       <use x="423.730469" xlink:href="#DejaVuSans-45"/>
       <use x="459.814453" xlink:href="#DejaVuSans-102"/>
       <use x="495.019531" xlink:href="#DejaVuSans-111"/>
       <use x="556.201172" xlink:href="#DejaVuSans-114"/>
       <use x="590.939453" xlink:href="#DejaVuSans-45"/>
       <use x="624.398438" xlink:href="#DejaVuSans-118"/>
       <use x="683.578125" xlink:href="#DejaVuSans-105"/>
       <use x="711.361328" xlink:href="#DejaVuSans-101"/>
       <use x="772.884766" xlink:href="#DejaVuSans-119"/>
       <use x="854.671875" xlink:href="#DejaVuSans-105"/>
       <use x="882.455078" xlink:href="#DejaVuSans-110"/>
       <use x="945.833984" xlink:href="#DejaVuSans-103"/>
       <use x="1009.310547" xlink:href="#DejaVuSans-45"/>
       <use x="1045.394531" xlink:href="#DejaVuSans-112"/>
       <use x="1108.871094" xlink:href="#DejaVuSans-111"/>
       <use x="1170.052734" xlink:href="#DejaVuSans-110"/>
       <use x="1233.431641" xlink:href="#DejaVuSans-100"/>
       <use x="1296.908203" xlink:href="#DejaVuSans-115"/>
       <use x="1349.007812" xlink:href="#DejaVuSans-45"/>
       <use x="1385.091797" xlink:href="#DejaVuSans-97"/>
       <use x="1446.371094" xlink:href="#DejaVuSans-110"/>
       <use x="1509.75" xlink:href="#DejaVuSans-100"/>
       <use x="1573.226562" xlink:href="#DejaVuSans-45"/>
       <use x="1609.310547" xlink:href="#DejaVuSans-119"/>
       <use x="1691.097656" xlink:href="#DejaVuSans-111"/>
       <use x="1752.279297" xlink:href="#DejaVuSans-111"/>
       <use x="1813.460938" xlink:href="#DejaVuSans-100"/>
       <use x="1876.9375" xlink:href="#DejaVuSans-108"/>
       <use x="1904.720703" xlink:href="#DejaVuSans-97"/>
       <use x="1966" xlink:href="#DejaVuSans-110"/>
       <use x="2029.378906" xlink:href="#DejaVuSans-100"/>
      </g>
     </g>
    </g>
    <g id="xtick_6">
     <g id="line2d_6">
      <g>
       <use style="stroke:#000000;stroke-width:0.8;" x="369" xlink:href="#mcbd0f6ca85" y="378"/>
      </g>
     </g>
     <g id="text_6">
      <!-- movement-energy -->
      <g transform="translate(372.31125 496.045)rotate(-90)scale(0.12 -0.12)">
       <use xlink:href="#DejaVuSans-109"/>
       <use x="97.412109" xlink:href="#DejaVuSans-111"/>
       <use x="158.59375" xlink:href="#DejaVuSans-118"/>
       <use x="217.773438" xlink:href="#DejaVuSans-101"/>
       <use x="279.296875" xlink:href="#DejaVuSans-109"/>
       <use x="376.708984" xlink:href="#DejaVuSans-101"/>
       <use x="438.232422" xlink:href="#DejaVuSans-110"/>
       <use x="501.611328" xlink:href="#DejaVuSans-116"/>
       <use x="540.820312" xlink:href="#DejaVuSans-45"/>
       <use x="576.904297" xlink:href="#DejaVuSans-101"/>
       <use x="638.427734" xlink:href="#DejaVuSans-110"/>
       <use x="701.806641" xlink:href="#DejaVuSans-101"/>
       <use x="763.330078" xlink:href="#DejaVuSans-114"/>
       <use x="802.693359" xlink:href="#DejaVuSans-103"/>
       <use x="866.169922" xlink:href="#DejaVuSans-121"/>
      </g>
     </g>
    </g>
    <g id="xtick_7">
     <g id="line2d_7">
      <g>
       <use style="stroke:#000000;stroke-width:0.8;" x="415.538782" xlink:href="#mcbd0f6ca85" y="378"/>
      </g>
     </g>
     <g id="text_7">
      <!-- number-of-startind -->
      <g transform="translate(418.850032 497.363125)rotate(-90)scale(0.12 -0.12)">
       <use xlink:href="#DejaVuSans-110"/>
       <use x="63.378906" xlink:href="#DejaVuSans-117"/>
       <use x="126.757812" xlink:href="#DejaVuSans-109"/>
       <use x="224.169922" xlink:href="#DejaVuSans-98"/>
       <use x="287.646484" xlink:href="#DejaVuSans-101"/>
       <use x="349.169922" xlink:href="#DejaVuSans-114"/>
       <use x="383.908203" xlink:href="#DejaVuSans-45"/>
       <use x="421.867188" xlink:href="#DejaVuSans-111"/>
       <use x="483.048828" xlink:href="#DejaVuSans-102"/>
       <use x="512.753906" xlink:href="#DejaVuSans-45"/>
       <use x="548.837891" xlink:href="#DejaVuSans-115"/>
       <use x="600.9375" xlink:href="#DejaVuSans-116"/>
       <use x="640.146484" xlink:href="#DejaVuSans-97"/>
       <use x="701.425781" xlink:href="#DejaVuSans-114"/>
       <use x="742.539062" xlink:href="#DejaVuSans-116"/>
       <use x="781.748047" xlink:href="#DejaVuSans-105"/>
       <use x="809.53125" xlink:href="#DejaVuSans-110"/>
       <use x="872.910156" xlink:href="#DejaVuSans-100"/>
      </g>
     </g>
    </g>
    <g id="xtick_8">
     <g id="line2d_8">
      <g>
       <use style="stroke:#000000;stroke-width:0.8;" x="462.077565" xlink:href="#mcbd0f6ca85" y="378"/>
      </g>
     </g>
     <g id="text_8">
      <!-- mean-number-of-female-offspring -->
      <g transform="translate(465.388815 588.293125)rotate(-90)scale(0.12 -0.12)">
       <use xlink:href="#DejaVuSans-109"/>
       <use x="97.412109" xlink:href="#DejaVuSans-101"/>
       <use x="158.935547" xlink:href="#DejaVuSans-97"/>
       <use x="220.214844" xlink:href="#DejaVuSans-110"/>
       <use x="283.59375" xlink:href="#DejaVuSans-45"/>
       <use x="319.677734" xlink:href="#DejaVuSans-110"/>
       <use x="383.056641" xlink:href="#DejaVuSans-117"/>
       <use x="446.435547" xlink:href="#DejaVuSans-109"/>
       <use x="543.847656" xlink:href="#DejaVuSans-98"/>
       <use x="607.324219" xlink:href="#DejaVuSans-101"/>
       <use x="668.847656" xlink:href="#DejaVuSans-114"/>
       <use x="703.585938" xlink:href="#DejaVuSans-45"/>
       <use x="741.544922" xlink:href="#DejaVuSans-111"/>
       <use x="802.726562" xlink:href="#DejaVuSans-102"/>
       <use x="832.431641" xlink:href="#DejaVuSans-45"/>
       <use x="868.515625" xlink:href="#DejaVuSans-102"/>
       <use x="903.720703" xlink:href="#DejaVuSans-101"/>
       <use x="965.244141" xlink:href="#DejaVuSans-109"/>
       <use x="1062.65625" xlink:href="#DejaVuSans-97"/>
       <use x="1123.935547" xlink:href="#DejaVuSans-108"/>
       <use x="1151.71875" xlink:href="#DejaVuSans-101"/>
       <use x="1213.242188" xlink:href="#DejaVuSans-45"/>
       <use x="1251.201172" xlink:href="#DejaVuSans-111"/>
       <use x="1312.382812" xlink:href="#DejaVuSans-102"/>
       <use x="1347.587891" xlink:href="#DejaVuSans-102"/>
       <use x="1382.792969" xlink:href="#DejaVuSans-115"/>
       <use x="1434.892578" xlink:href="#DejaVuSans-112"/>
       <use x="1498.369141" xlink:href="#DejaVuSans-114"/>
       <use x="1539.482422" xlink:href="#DejaVuSans-105"/>
       <use x="1567.265625" xlink:href="#DejaVuSans-110"/>
       <use x="1630.644531" xlink:href="#DejaVuSans-103"/>
      </g>
     </g>
    </g>
    <g id="xtick_9">
     <g id="line2d_9">
      <g>
       <use style="stroke:#000000;stroke-width:0.8;" x="508.616347" xlink:href="#mcbd0f6ca85" y="378"/>
      </g>
     </g>
     <g id="text_9">
      <!-- angle-for-viewing-ponds-and-woodland -->
      <g transform="translate(511.927597 618.59125)rotate(-90)scale(0.12 -0.12)">
       <use xlink:href="#DejaVuSans-97"/>
       <use x="61.279297" xlink:href="#DejaVuSans-110"/>
       <use x="124.658203" xlink:href="#DejaVuSans-103"/>
       <use x="188.134766" xlink:href="#DejaVuSans-108"/>
       <use x="215.917969" xlink:href="#DejaVuSans-101"/>
       <use x="277.441406" xlink:href="#DejaVuSans-45"/>
       <use x="313.525391" xlink:href="#DejaVuSans-102"/>
       <use x="348.730469" xlink:href="#DejaVuSans-111"/>
       <use x="409.912109" xlink:href="#DejaVuSans-114"/>
       <use x="444.650391" xlink:href="#DejaVuSans-45"/>
       <use x="478.109375" xlink:href="#DejaVuSans-118"/>
       <use x="537.289062" xlink:href="#DejaVuSans-105"/>
       <use x="565.072266" xlink:href="#DejaVuSans-101"/>
       <use x="626.595703" xlink:href="#DejaVuSans-119"/>
       <use x="708.382812" xlink:href="#DejaVuSans-105"/>
       <use x="736.166016" xlink:href="#DejaVuSans-110"/>
       <use x="799.544922" xlink:href="#DejaVuSans-103"/>
       <use x="863.021484" xlink:href="#DejaVuSans-45"/>
       <use x="899.105469" xlink:href="#DejaVuSans-112"/>
       <use x="962.582031" xlink:href="#DejaVuSans-111"/>
       <use x="1023.763672" xlink:href="#DejaVuSans-110"/>
       <use x="1087.142578" xlink:href="#DejaVuSans-100"/>
       <use x="1150.619141" xlink:href="#DejaVuSans-115"/>
       <use x="1202.71875" xlink:href="#DejaVuSans-45"/>
       <use x="1238.802734" xlink:href="#DejaVuSans-97"/>
       <use x="1300.082031" xlink:href="#DejaVuSans-110"/>
       <use x="1363.460938" xlink:href="#DejaVuSans-100"/>
       <use x="1426.9375" xlink:href="#DejaVuSans-45"/>
       <use x="1463.021484" xlink:href="#DejaVuSans-119"/>
       <use x="1544.808594" xlink:href="#DejaVuSans-111"/>
       <use x="1605.990234" xlink:href="#DejaVuSans-111"/>
       <use x="1667.171875" xlink:href="#DejaVuSans-100"/>
       <use x="1730.648438" xlink:href="#DejaVuSans-108"/>
       <use x="1758.431641" xlink:href="#DejaVuSans-97"/>
       <use x="1819.710938" xlink:href="#DejaVuSans-110"/>
       <use x="1883.089844" xlink:href="#DejaVuSans-100"/>
      </g>
     </g>
    </g>
    <g id="xtick_10">
     <g id="line2d_10">
      <g>
       <use style="stroke:#000000;stroke-width:0.8;" x="555.155129" xlink:href="#mcbd0f6ca85" y="378"/>
      </g>
     </g>
     <g id="text_10">
      <!-- woodland-movement-cost -->
      <g transform="translate(558.466379 541.481875)rotate(-90)scale(0.12 -0.12)">
       <use xlink:href="#DejaVuSans-119"/>
       <use x="81.787109" xlink:href="#DejaVuSans-111"/>
       <use x="142.96875" xlink:href="#DejaVuSans-111"/>
       <use x="204.150391" xlink:href="#DejaVuSans-100"/>
       <use x="267.626953" xlink:href="#DejaVuSans-108"/>
       <use x="295.410156" xlink:href="#DejaVuSans-97"/>
       <use x="356.689453" xlink:href="#DejaVuSans-110"/>
       <use x="420.068359" xlink:href="#DejaVuSans-100"/>
       <use x="483.544922" xlink:href="#DejaVuSans-45"/>
       <use x="519.628906" xlink:href="#DejaVuSans-109"/>
       <use x="617.041016" xlink:href="#DejaVuSans-111"/>
       <use x="678.222656" xlink:href="#DejaVuSans-118"/>
       <use x="737.402344" xlink:href="#DejaVuSans-101"/>
       <use x="798.925781" xlink:href="#DejaVuSans-109"/>
       <use x="896.337891" xlink:href="#DejaVuSans-101"/>
       <use x="957.861328" xlink:href="#DejaVuSans-110"/>
       <use x="1021.240234" xlink:href="#DejaVuSans-116"/>
       <use x="1060.449219" xlink:href="#DejaVuSans-45"/>
       <use x="1096.533203" xlink:href="#DejaVuSans-99"/>
       <use x="1151.513672" xlink:href="#DejaVuSans-111"/>
       <use x="1212.695312" xlink:href="#DejaVuSans-115"/>
       <use x="1264.794922" xlink:href="#DejaVuSans-116"/>
      </g>
     </g>
    </g>
    <g id="xtick_11">
     <g id="line2d_11">
      <g>
       <use style="stroke:#000000;stroke-width:0.8;" x="601.693912" xlink:href="#mcbd0f6ca85" y="378"/>
      </g>
     </g>
     <g id="text_11">
      <!-- cropland-movement-cost -->
      <g transform="translate(605.005162 535.586875)rotate(-90)scale(0.12 -0.12)">
       <use xlink:href="#DejaVuSans-99"/>
       <use x="54.980469" xlink:href="#DejaVuSans-114"/>
       <use x="93.84375" xlink:href="#DejaVuSans-111"/>
       <use x="155.025391" xlink:href="#DejaVuSans-112"/>
       <use x="218.501953" xlink:href="#DejaVuSans-108"/>
       <use x="246.285156" xlink:href="#DejaVuSans-97"/>
       <use x="307.564453" xlink:href="#DejaVuSans-110"/>
       <use x="370.943359" xlink:href="#DejaVuSans-100"/>
       <use x="434.419922" xlink:href="#DejaVuSans-45"/>
       <use x="470.503906" xlink:href="#DejaVuSans-109"/>
       <use x="567.916016" xlink:href="#DejaVuSans-111"/>
       <use x="629.097656" xlink:href="#DejaVuSans-118"/>
       <use x="688.277344" xlink:href="#DejaVuSans-101"/>
       <use x="749.800781" xlink:href="#DejaVuSans-109"/>
       <use x="847.212891" xlink:href="#DejaVuSans-101"/>
       <use x="908.736328" xlink:href="#DejaVuSans-110"/>
       <use x="972.115234" xlink:href="#DejaVuSans-116"/>
       <use x="1011.324219" xlink:href="#DejaVuSans-45"/>
       <use x="1047.408203" xlink:href="#DejaVuSans-99"/>
       <use x="1102.388672" xlink:href="#DejaVuSans-111"/>
       <use x="1163.570312" xlink:href="#DejaVuSans-115"/>
       <use x="1215.669922" xlink:href="#DejaVuSans-116"/>
      </g>
     </g>
    </g>
   </g>
   <g id="matplotlib.axis_2">
    <g id="ytick_1">
     <g id="line2d_12">
      <defs>
       <path d="M 0 0 
L -3.5 0 
" id="mc64b993e95" style="stroke:#000000;stroke-width:0.8;"/>
      </defs>
      <g>
       <use style="stroke:#000000;stroke-width:0.8;" x="90" xlink:href="#mc64b993e95" y="362.857006"/>
      </g>
     </g>
     <g id="text_12">
      <!-- 0.0 -->
      <g transform="translate(67.096875 366.656225)scale(0.1 -0.1)">
       <defs>
        <path d="M 31.78125 66.40625 
Q 24.171875 66.40625 20.328125 58.90625 
Q 16.5 51.421875 16.5 36.375 
Q 16.5 21.390625 20.328125 13.890625 
Q 24.171875 6.390625 31.78125 6.390625 
Q 39.453125 6.390625 43.28125 13.890625 
Q 47.125 21.390625 47.125 36.375 
Q 47.125 51.421875 43.28125 58.90625 
Q 39.453125 66.40625 31.78125 66.40625 
z
M 31.78125 74.21875 
Q 44.046875 74.21875 50.515625 64.515625 
Q 56.984375 54.828125 56.984375 36.375 
Q 56.984375 17.96875 50.515625 8.265625 
Q 44.046875 -1.421875 31.78125 -1.421875 
Q 19.53125 -1.421875 13.0625 8.265625 
Q 6.59375 17.96875 6.59375 36.375 
Q 6.59375 54.828125 13.0625 64.515625 
Q 19.53125 74.21875 31.78125 74.21875 
z
" id="DejaVuSans-48"/>
        <path d="M 10.6875 12.40625 
L 21 12.40625 
L 21 0 
L 10.6875 0 
z
" id="DejaVuSans-46"/>
       </defs>
       <use xlink:href="#DejaVuSans-48"/>
       <use x="63.623047" xlink:href="#DejaVuSans-46"/>
       <use x="95.410156" xlink:href="#DejaVuSans-48"/>
      </g>
     </g>
    </g>
    <g id="ytick_2">
     <g id="line2d_13">
      <g>
       <use style="stroke:#000000;stroke-width:0.8;" x="90" xlink:href="#mc64b993e95" y="303.982341"/>
      </g>
     </g>
     <g id="text_13">
      <!-- 0.1 -->
      <g transform="translate(67.096875 307.78156)scale(0.1 -0.1)">
       <defs>
        <path d="M 12.40625 8.296875 
L 28.515625 8.296875 
L 28.515625 63.921875 
L 10.984375 60.40625 
L 10.984375 69.390625 
L 28.421875 72.90625 
L 38.28125 72.90625 
L 38.28125 8.296875 
L 54.390625 8.296875 
L 54.390625 0 
L 12.40625 0 
z
" id="DejaVuSans-49"/>
       </defs>
       <use xlink:href="#DejaVuSans-48"/>
       <use x="63.623047" xlink:href="#DejaVuSans-46"/>
       <use x="95.410156" xlink:href="#DejaVuSans-49"/>
      </g>
     </g>
    </g>
    <g id="ytick_3">
     <g id="line2d_14">
      <g>
       <use style="stroke:#000000;stroke-width:0.8;" x="90" xlink:href="#mc64b993e95" y="245.107677"/>
      </g>
     </g>
     <g id="text_14">
      <!-- 0.2 -->
      <g transform="translate(67.096875 248.906896)scale(0.1 -0.1)">
       <defs>
        <path d="M 19.1875 8.296875 
L 53.609375 8.296875 
L 53.609375 0 
L 7.328125 0 
L 7.328125 8.296875 
Q 12.9375 14.109375 22.625 23.890625 
Q 32.328125 33.6875 34.8125 36.53125 
Q 39.546875 41.84375 41.421875 45.53125 
Q 43.3125 49.21875 43.3125 52.78125 
Q 43.3125 58.59375 39.234375 62.25 
Q 35.15625 65.921875 28.609375 65.921875 
Q 23.96875 65.921875 18.8125 64.3125 
Q 13.671875 62.703125 7.8125 59.421875 
L 7.8125 69.390625 
Q 13.765625 71.78125 18.9375 73 
Q 24.125 74.21875 28.421875 74.21875 
Q 39.75 74.21875 46.484375 68.546875 
Q 53.21875 62.890625 53.21875 53.421875 
Q 53.21875 48.921875 51.53125 44.890625 
Q 49.859375 40.875 45.40625 35.40625 
Q 44.1875 33.984375 37.640625 27.21875 
Q 31.109375 20.453125 19.1875 8.296875 
z
" id="DejaVuSans-50"/>
       </defs>
       <use xlink:href="#DejaVuSans-48"/>
       <use x="63.623047" xlink:href="#DejaVuSans-46"/>
       <use x="95.410156" xlink:href="#DejaVuSans-50"/>
      </g>
     </g>
    </g>
    <g id="ytick_4">
     <g id="line2d_15">
      <g>
       <use style="stroke:#000000;stroke-width:0.8;" x="90" xlink:href="#mc64b993e95" y="186.233013"/>
      </g>
     </g>
     <g id="text_15">
      <!-- 0.3 -->
      <g transform="translate(67.096875 190.032232)scale(0.1 -0.1)">
       <defs>
        <path d="M 40.578125 39.3125 
Q 47.65625 37.796875 51.625 33 
Q 55.609375 28.21875 55.609375 21.1875 
Q 55.609375 10.40625 48.1875 4.484375 
Q 40.765625 -1.421875 27.09375 -1.421875 
Q 22.515625 -1.421875 17.65625 -0.515625 
Q 12.796875 0.390625 7.625 2.203125 
L 7.625 11.71875 
Q 11.71875 9.328125 16.59375 8.109375 
Q 21.484375 6.890625 26.8125 6.890625 
Q 36.078125 6.890625 40.9375 10.546875 
Q 45.796875 14.203125 45.796875 21.1875 
Q 45.796875 27.640625 41.28125 31.265625 
Q 36.765625 34.90625 28.71875 34.90625 
L 20.21875 34.90625 
L 20.21875 43.015625 
L 29.109375 43.015625 
Q 36.375 43.015625 40.234375 45.921875 
Q 44.09375 48.828125 44.09375 54.296875 
Q 44.09375 59.90625 40.109375 62.90625 
Q 36.140625 65.921875 28.71875 65.921875 
Q 24.65625 65.921875 20.015625 65.03125 
Q 15.375 64.15625 9.8125 62.3125 
L 9.8125 71.09375 
Q 15.4375 72.65625 20.34375 73.4375 
Q 25.25 74.21875 29.59375 74.21875 
Q 40.828125 74.21875 47.359375 69.109375 
Q 53.90625 64.015625 53.90625 55.328125 
Q 53.90625 49.265625 50.4375 45.09375 
Q 46.96875 40.921875 40.578125 39.3125 
z
" id="DejaVuSans-51"/>
       </defs>
       <use xlink:href="#DejaVuSans-48"/>
       <use x="63.623047" xlink:href="#DejaVuSans-46"/>
       <use x="95.410156" xlink:href="#DejaVuSans-51"/>
      </g>
     </g>
    </g>
    <g id="ytick_5">
     <g id="line2d_16">
      <g>
       <use style="stroke:#000000;stroke-width:0.8;" x="90" xlink:href="#mc64b993e95" y="127.358349"/>
      </g>
     </g>
     <g id="text_16">
      <!-- 0.4 -->
      <g transform="translate(67.096875 131.157567)scale(0.1 -0.1)">
       <defs>
        <path d="M 37.796875 64.3125 
L 12.890625 25.390625 
L 37.796875 25.390625 
z
M 35.203125 72.90625 
L 47.609375 72.90625 
L 47.609375 25.390625 
L 58.015625 25.390625 
L 58.015625 17.1875 
L 47.609375 17.1875 
L 47.609375 0 
L 37.796875 0 
L 37.796875 17.1875 
L 4.890625 17.1875 
L 4.890625 26.703125 
z
" id="DejaVuSans-52"/>
       </defs>
       <use xlink:href="#DejaVuSans-48"/>
       <use x="63.623047" xlink:href="#DejaVuSans-46"/>
       <use x="95.410156" xlink:href="#DejaVuSans-52"/>
      </g>
     </g>
    </g>
    <g id="ytick_6">
     <g id="line2d_17">
      <g>
       <use style="stroke:#000000;stroke-width:0.8;" x="90" xlink:href="#mc64b993e95" y="68.483684"/>
      </g>
     </g>
     <g id="text_17">
      <!-- 0.5 -->
      <g transform="translate(67.096875 72.282903)scale(0.1 -0.1)">
       <defs>
        <path d="M 10.796875 72.90625 
L 49.515625 72.90625 
L 49.515625 64.59375 
L 19.828125 64.59375 
L 19.828125 46.734375 
Q 21.96875 47.46875 24.109375 47.828125 
Q 26.265625 48.1875 28.421875 48.1875 
Q 40.625 48.1875 47.75 41.5 
Q 54.890625 34.8125 54.890625 23.390625 
Q 54.890625 11.625 47.5625 5.09375 
Q 40.234375 -1.421875 26.90625 -1.421875 
Q 22.3125 -1.421875 17.546875 -0.640625 
Q 12.796875 0.140625 7.71875 1.703125 
L 7.71875 11.625 
Q 12.109375 9.234375 16.796875 8.0625 
Q 21.484375 6.890625 26.703125 6.890625 
Q 35.15625 6.890625 40.078125 11.328125 
Q 45.015625 15.765625 45.015625 23.390625 
Q 45.015625 31 40.078125 35.4375 
Q 35.15625 39.890625 26.703125 39.890625 
Q 22.75 39.890625 18.8125 39.015625 
Q 14.890625 38.140625 10.796875 36.28125 
z
" id="DejaVuSans-53"/>
       </defs>
       <use xlink:href="#DejaVuSans-48"/>
       <use x="63.623047" xlink:href="#DejaVuSans-46"/>
       <use x="95.410156" xlink:href="#DejaVuSans-53"/>
      </g>
     </g>
    </g>
    <g id="text_18">
     <!-- Sa -->
     <g transform="translate(59.769375 224.90125)rotate(-90)scale(0.16 -0.16)">
      <defs>
       <path d="M 53.515625 70.515625 
L 53.515625 60.890625 
Q 47.90625 63.578125 42.921875 64.890625 
Q 37.9375 66.21875 33.296875 66.21875 
Q 25.25 66.21875 20.875 63.09375 
Q 16.5 59.96875 16.5 54.203125 
Q 16.5 49.359375 19.40625 46.890625 
Q 22.3125 44.4375 30.421875 42.921875 
L 36.375 41.703125 
Q 47.40625 39.59375 52.65625 34.296875 
Q 57.90625 29 57.90625 20.125 
Q 57.90625 9.515625 50.796875 4.046875 
Q 43.703125 -1.421875 29.984375 -1.421875 
Q 24.8125 -1.421875 18.96875 -0.25 
Q 13.140625 0.921875 6.890625 3.21875 
L 6.890625 13.375 
Q 12.890625 10.015625 18.65625 8.296875 
Q 24.421875 6.59375 29.984375 6.59375 
Q 38.421875 6.59375 43.015625 9.90625 
Q 47.609375 13.234375 47.609375 19.390625 
Q 47.609375 24.75 44.3125 27.78125 
Q 41.015625 30.8125 33.5 32.328125 
L 27.484375 33.5 
Q 16.453125 35.6875 11.515625 40.375 
Q 6.59375 45.0625 6.59375 53.421875 
Q 6.59375 63.09375 13.40625 68.65625 
Q 20.21875 74.21875 32.171875 74.21875 
Q 37.3125 74.21875 42.625 73.28125 
Q 47.953125 72.359375 53.515625 70.515625 
z
" id="DejaVuSans-83"/>
      </defs>
      <use xlink:href="#DejaVuSans-83"/>
      <use x="63.476562" xlink:href="#DejaVuSans-97"/>
     </g>
    </g>
   </g>
   <g id="LineCollection_1">
    <path clip-path="url(#p33f08530e0)" d="M 122.344454 182.071824 
L 122.344454 162.976909 
" style="fill:none;stroke:#000000;stroke-width:1.5;"/>
    <path clip-path="url(#p33f08530e0)" d="M 168.883236 154.305133 
L 168.883236 135.176661 
" style="fill:none;stroke:#000000;stroke-width:1.5;"/>
    <path clip-path="url(#p33f08530e0)" d="M 215.422018 342.929244 
L 215.422018 336.883305 
" style="fill:none;stroke:#000000;stroke-width:1.5;"/>
    <path clip-path="url(#p33f08530e0)" d="M 261.960801 326.459233 
L 261.960801 319.383052 
" style="fill:none;stroke:#000000;stroke-width:1.5;"/>
    <path clip-path="url(#p33f08530e0)" d="M 308.499583 357.984296 
L 308.499583 355.551363 
" style="fill:none;stroke:#000000;stroke-width:1.5;"/>
    <path clip-path="url(#p33f08530e0)" d="M 355.038365 357.080797 
L 355.038365 354.516485 
" style="fill:none;stroke:#000000;stroke-width:1.5;"/>
    <path clip-path="url(#p33f08530e0)" d="M 401.577148 360.538334 
L 401.577148 359.009034 
" style="fill:none;stroke:#000000;stroke-width:1.5;"/>
    <path clip-path="url(#p33f08530e0)" d="M 448.11593 362.194024 
L 448.11593 361.115335 
" style="fill:none;stroke:#000000;stroke-width:1.5;"/>
    <path clip-path="url(#p33f08530e0)" d="M 494.654712 361.224711 
L 494.654712 359.886356 
" style="fill:none;stroke:#000000;stroke-width:1.5;"/>
    <path clip-path="url(#p33f08530e0)" d="M 541.193495 362.595092 
L 541.193495 361.758172 
" style="fill:none;stroke:#000000;stroke-width:1.5;"/>
    <path clip-path="url(#p33f08530e0)" d="M 587.732277 362.600415 
L 587.732277 361.713661 
" style="fill:none;stroke:#000000;stroke-width:1.5;"/>
   </g>
   <g id="LineCollection_2">
    <path clip-path="url(#p33f08530e0)" d="M 136.306088 92.800548 
L 136.306088 66.665455 
" style="fill:none;stroke:#000000;stroke-width:1.5;"/>
    <path clip-path="url(#p33f08530e0)" d="M 182.844871 220.103448 
L 182.844871 203.977663 
" style="fill:none;stroke:#000000;stroke-width:1.5;"/>
    <path clip-path="url(#p33f08530e0)" d="M 229.383653 342.435122 
L 229.383653 337.968813 
" style="fill:none;stroke:#000000;stroke-width:1.5;"/>
    <path clip-path="url(#p33f08530e0)" d="M 275.922435 362.744371 
L 275.922435 362.056946 
" style="fill:none;stroke:#000000;stroke-width:1.5;"/>
    <path clip-path="url(#p33f08530e0)" d="M 322.461218 337.744254 
L 322.461218 332.446732 
" style="fill:none;stroke:#000000;stroke-width:1.5;"/>
    <path clip-path="url(#p33f08530e0)" d="M 369 361.436163 
L 369 359.822255 
" style="fill:none;stroke:#000000;stroke-width:1.5;"/>
    <path clip-path="url(#p33f08530e0)" d="M 415.538782 362.474073 
L 415.538782 361.559914 
" style="fill:none;stroke:#000000;stroke-width:1.5;"/>
    <path clip-path="url(#p33f08530e0)" d="M 462.077565 361.490222 
L 462.077565 359.141215 
" style="fill:none;stroke:#000000;stroke-width:1.5;"/>
    <path clip-path="url(#p33f08530e0)" d="M 508.616347 362.720737 
L 508.616347 362.286941 
" style="fill:none;stroke:#000000;stroke-width:1.5;"/>
    <path clip-path="url(#p33f08530e0)" d="M 555.155129 362.134092 
L 555.155129 361.159834 
" style="fill:none;stroke:#000000;stroke-width:1.5;"/>
    <path clip-path="url(#p33f08530e0)" d="M 601.693912 362.868916 
L 601.693912 362.050684 
" style="fill:none;stroke:#000000;stroke-width:1.5;"/>
   </g>
   <g id="LineCollection_3">
    <path clip-path="url(#p33f08530e0)" d="M 150.267723 349.46734 
L 150.267723 340.914263 
" style="fill:none;stroke:#000000;stroke-width:1.5;"/>
    <path clip-path="url(#p33f08530e0)" d="M 196.806505 335.784176 
L 196.806505 323.100287 
" style="fill:none;stroke:#000000;stroke-width:1.5;"/>
    <path clip-path="url(#p33f08530e0)" d="M 243.345288 363.174545 
L 243.345288 361.478398 
" style="fill:none;stroke:#000000;stroke-width:1.5;"/>
    <path clip-path="url(#p33f08530e0)" d="M 289.88407 240.707635 
L 289.88407 217.536448 
" style="fill:none;stroke:#000000;stroke-width:1.5;"/>
    <path clip-path="url(#p33f08530e0)" d="M 336.422852 342.259343 
L 336.422852 329.760422 
" style="fill:none;stroke:#000000;stroke-width:1.5;"/>
    <path clip-path="url(#p33f08530e0)" d="M 382.961635 358.085939 
L 382.961635 350.968729 
" style="fill:none;stroke:#000000;stroke-width:1.5;"/>
    <path clip-path="url(#p33f08530e0)" d="M 429.500417 358.652441 
L 429.500417 354.71366 
" style="fill:none;stroke:#000000;stroke-width:1.5;"/>
    <path clip-path="url(#p33f08530e0)" d="M 476.039199 362.220495 
L 476.039199 360.229704 
" style="fill:none;stroke:#000000;stroke-width:1.5;"/>
    <path clip-path="url(#p33f08530e0)" d="M 522.577982 361.178553 
L 522.577982 355.665337 
" style="fill:none;stroke:#000000;stroke-width:1.5;"/>
    <path clip-path="url(#p33f08530e0)" d="M 569.116764 363.012012 
L 569.116764 361.636954 
" style="fill:none;stroke:#000000;stroke-width:1.5;"/>
    <path clip-path="url(#p33f08530e0)" d="M 615.655546 362.421045 
L 615.655546 360.137921 
" style="fill:none;stroke:#000000;stroke-width:1.5;"/>
   </g>
   <g id="patch_36">
    <path d="M 90 378 
L 90 51.84 
" style="fill:none;stroke:#000000;stroke-linecap:square;stroke-linejoin:miter;stroke-width:0.8;"/>
   </g>
   <g id="patch_37">
    <path d="M 648 378 
L 648 51.84 
" style="fill:none;stroke:#000000;stroke-linecap:square;stroke-linejoin:miter;stroke-width:0.8;"/>
   </g>
   <g id="patch_38">
    <path d="M 90 378 
L 648 378 
" style="fill:none;stroke:#000000;stroke-linecap:square;stroke-linejoin:miter;stroke-width:0.8;"/>
   </g>
   <g id="patch_39">
    <path d="M 90 51.84 
L 648 51.84 
" style="fill:none;stroke:#000000;stroke-linecap:square;stroke-linejoin:miter;stroke-width:0.8;"/>
   </g>
   <g id="text_19">
    <!-- High-Dimensional Model Representation -->
    <g transform="translate(208.21875 45.84)scale(0.16 -0.16)">
     <defs>
      <path d="M 9.8125 72.90625 
L 19.671875 72.90625 
L 19.671875 43.015625 
L 55.515625 43.015625 
L 55.515625 72.90625 
L 65.375 72.90625 
L 65.375 0 
L 55.515625 0 
L 55.515625 34.71875 
L 19.671875 34.71875 
L 19.671875 0 
L 9.8125 0 
z
" id="DejaVuSans-72"/>
      <path d="M 19.671875 64.796875 
L 19.671875 8.109375 
L 31.59375 8.109375 
Q 46.6875 8.109375 53.6875 14.9375 
Q 60.6875 21.78125 60.6875 36.53125 
Q 60.6875 51.171875 53.6875 57.984375 
Q 46.6875 64.796875 31.59375 64.796875 
z
M 9.8125 72.90625 
L 30.078125 72.90625 
Q 51.265625 72.90625 61.171875 64.09375 
Q 71.09375 55.28125 71.09375 36.53125 
Q 71.09375 17.671875 61.125 8.828125 
Q 51.171875 0 30.078125 0 
L 9.8125 0 
z
" id="DejaVuSans-68"/>
      <path id="DejaVuSans-32"/>
      <path d="M 9.8125 72.90625 
L 24.515625 72.90625 
L 43.109375 23.296875 
L 61.8125 72.90625 
L 76.515625 72.90625 
L 76.515625 0 
L 66.890625 0 
L 66.890625 64.015625 
L 48.09375 14.015625 
L 38.1875 14.015625 
L 19.390625 64.015625 
L 19.390625 0 
L 9.8125 0 
z
" id="DejaVuSans-77"/>
      <path d="M 44.390625 34.1875 
Q 47.5625 33.109375 50.5625 29.59375 
Q 53.5625 26.078125 56.59375 19.921875 
L 66.609375 0 
L 56 0 
L 46.6875 18.703125 
Q 43.0625 26.03125 39.671875 28.421875 
Q 36.28125 30.8125 30.421875 30.8125 
L 19.671875 30.8125 
L 19.671875 0 
L 9.8125 0 
L 9.8125 72.90625 
L 32.078125 72.90625 
Q 44.578125 72.90625 50.734375 67.671875 
Q 56.890625 62.453125 56.890625 51.90625 
Q 56.890625 45.015625 53.6875 40.46875 
Q 50.484375 35.9375 44.390625 34.1875 
z
M 19.671875 64.796875 
L 19.671875 38.921875 
L 32.078125 38.921875 
Q 39.203125 38.921875 42.84375 42.21875 
Q 46.484375 45.515625 46.484375 51.90625 
Q 46.484375 58.296875 42.84375 61.546875 
Q 39.203125 64.796875 32.078125 64.796875 
z
" id="DejaVuSans-82"/>
     </defs>
     <use xlink:href="#DejaVuSans-72"/>
     <use x="75.195312" xlink:href="#DejaVuSans-105"/>
     <use x="102.978516" xlink:href="#DejaVuSans-103"/>
     <use x="166.455078" xlink:href="#DejaVuSans-104"/>
     <use x="229.833984" xlink:href="#DejaVuSans-45"/>
     <use x="265.917969" xlink:href="#DejaVuSans-68"/>
     <use x="342.919922" xlink:href="#DejaVuSans-105"/>
     <use x="370.703125" xlink:href="#DejaVuSans-109"/>
     <use x="468.115234" xlink:href="#DejaVuSans-101"/>
     <use x="529.638672" xlink:href="#DejaVuSans-110"/>
     <use x="593.017578" xlink:href="#DejaVuSans-115"/>
     <use x="645.117188" xlink:href="#DejaVuSans-105"/>
     <use x="672.900391" xlink:href="#DejaVuSans-111"/>
     <use x="734.082031" xlink:href="#DejaVuSans-110"/>
     <use x="797.460938" xlink:href="#DejaVuSans-97"/>
     <use x="858.740234" xlink:href="#DejaVuSans-108"/>
     <use x="886.523438" xlink:href="#DejaVuSans-32"/>
     <use x="918.310547" xlink:href="#DejaVuSans-77"/>
     <use x="1004.589844" xlink:href="#DejaVuSans-111"/>
     <use x="1065.771484" xlink:href="#DejaVuSans-100"/>
     <use x="1129.248047" xlink:href="#DejaVuSans-101"/>
     <use x="1190.771484" xlink:href="#DejaVuSans-108"/>
     <use x="1218.554688" xlink:href="#DejaVuSans-32"/>
     <use x="1250.341797" xlink:href="#DejaVuSans-82"/>
     <use x="1315.324219" xlink:href="#DejaVuSans-101"/>
     <use x="1376.847656" xlink:href="#DejaVuSans-112"/>
     <use x="1440.324219" xlink:href="#DejaVuSans-114"/>
     <use x="1479.1875" xlink:href="#DejaVuSans-101"/>
     <use x="1540.710938" xlink:href="#DejaVuSans-115"/>
     <use x="1592.810547" xlink:href="#DejaVuSans-101"/>
     <use x="1654.333984" xlink:href="#DejaVuSans-110"/>
     <use x="1717.712891" xlink:href="#DejaVuSans-116"/>
     <use x="1756.921875" xlink:href="#DejaVuSans-97"/>
     <use x="1818.201172" xlink:href="#DejaVuSans-116"/>
     <use x="1857.410156" xlink:href="#DejaVuSans-105"/>
     <use x="1885.193359" xlink:href="#DejaVuSans-111"/>
     <use x="1946.375" xlink:href="#DejaVuSans-110"/>
    </g>
   </g>
   <g id="legend_1">
    <g id="patch_40">
     <path d="M 528.028125 103.874375 
L 641 103.874375 
Q 643 103.874375 643 101.874375 
L 643 58.84 
Q 643 56.84 641 56.84 
L 528.028125 56.84 
Q 526.028125 56.84 526.028125 58.84 
L 526.028125 101.874375 
Q 526.028125 103.874375 528.028125 103.874375 
z
" style="fill:#ffffff;opacity:0.8;stroke:#cccccc;stroke-linejoin:miter;"/>
    </g>
    <g id="patch_41">
     <path d="M 530.028125 68.438437 
L 550.028125 68.438437 
L 550.028125 61.438437 
L 530.028125 61.438437 
z
" style="fill:#1f77b4;"/>
    </g>
    <g id="text_20">
     <!-- Buffer -->
     <g transform="translate(558.028125 68.438437)scale(0.1 -0.1)">
      <defs>
       <path d="M 19.671875 34.8125 
L 19.671875 8.109375 
L 35.5 8.109375 
Q 43.453125 8.109375 47.28125 11.40625 
Q 51.125 14.703125 51.125 21.484375 
Q 51.125 28.328125 47.28125 31.5625 
Q 43.453125 34.8125 35.5 34.8125 
z
M 19.671875 64.796875 
L 19.671875 42.828125 
L 34.28125 42.828125 
Q 41.5 42.828125 45.03125 45.53125 
Q 48.578125 48.25 48.578125 53.8125 
Q 48.578125 59.328125 45.03125 62.0625 
Q 41.5 64.796875 34.28125 64.796875 
z
M 9.8125 72.90625 
L 35.015625 72.90625 
Q 46.296875 72.90625 52.390625 68.21875 
Q 58.5 63.53125 58.5 54.890625 
Q 58.5 48.1875 55.375 44.234375 
Q 52.25 40.28125 46.1875 39.3125 
Q 53.46875 37.75 57.5 32.78125 
Q 61.53125 27.828125 61.53125 20.40625 
Q 61.53125 10.640625 54.890625 5.3125 
Q 48.25 0 35.984375 0 
L 9.8125 0 
z
" id="DejaVuSans-66"/>
      </defs>
      <use xlink:href="#DejaVuSans-66"/>
      <use x="68.603516" xlink:href="#DejaVuSans-117"/>
      <use x="131.982422" xlink:href="#DejaVuSans-102"/>
      <use x="167.1875" xlink:href="#DejaVuSans-102"/>
      <use x="202.392578" xlink:href="#DejaVuSans-101"/>
      <use x="263.916016" xlink:href="#DejaVuSans-114"/>
     </g>
    </g>
    <g id="patch_42">
     <path d="M 530.028125 83.116562 
L 550.028125 83.116562 
L 550.028125 76.116562 
L 530.028125 76.116562 
z
" style="fill:#ff7f0e;"/>
    </g>
    <g id="text_21">
     <!-- Corridor -->
     <g transform="translate(558.028125 83.116562)scale(0.1 -0.1)">
      <defs>
       <path d="M 64.40625 67.28125 
L 64.40625 56.890625 
Q 59.421875 61.53125 53.78125 63.8125 
Q 48.140625 66.109375 41.796875 66.109375 
Q 29.296875 66.109375 22.65625 58.46875 
Q 16.015625 50.828125 16.015625 36.375 
Q 16.015625 21.96875 22.65625 14.328125 
Q 29.296875 6.6875 41.796875 6.6875 
Q 48.140625 6.6875 53.78125 8.984375 
Q 59.421875 11.28125 64.40625 15.921875 
L 64.40625 5.609375 
Q 59.234375 2.09375 53.4375 0.328125 
Q 47.65625 -1.421875 41.21875 -1.421875 
Q 24.65625 -1.421875 15.125 8.703125 
Q 5.609375 18.84375 5.609375 36.375 
Q 5.609375 53.953125 15.125 64.078125 
Q 24.65625 74.21875 41.21875 74.21875 
Q 47.75 74.21875 53.53125 72.484375 
Q 59.328125 70.75 64.40625 67.28125 
z
" id="DejaVuSans-67"/>
      </defs>
      <use xlink:href="#DejaVuSans-67"/>
      <use x="69.824219" xlink:href="#DejaVuSans-111"/>
      <use x="131.005859" xlink:href="#DejaVuSans-114"/>
      <use x="170.369141" xlink:href="#DejaVuSans-114"/>
      <use x="211.482422" xlink:href="#DejaVuSans-105"/>
      <use x="239.265625" xlink:href="#DejaVuSans-100"/>
      <use x="302.742188" xlink:href="#DejaVuSans-111"/>
      <use x="363.923828" xlink:href="#DejaVuSans-114"/>
     </g>
    </g>
    <g id="patch_43">
     <path d="M 530.028125 97.794687 
L 550.028125 97.794687 
L 550.028125 90.794687 
L 530.028125 90.794687 
z
" style="fill:#2ca02c;"/>
    </g>
    <g id="text_22">
     <!-- Buffer - Corridor -->
     <g transform="translate(558.028125 97.794687)scale(0.1 -0.1)">
      <use xlink:href="#DejaVuSans-66"/>
      <use x="68.603516" xlink:href="#DejaVuSans-117"/>
      <use x="131.982422" xlink:href="#DejaVuSans-102"/>
      <use x="167.1875" xlink:href="#DejaVuSans-102"/>
      <use x="202.392578" xlink:href="#DejaVuSans-101"/>
      <use x="263.916016" xlink:href="#DejaVuSans-114"/>
      <use x="305.029297" xlink:href="#DejaVuSans-32"/>
      <use x="336.816406" xlink:href="#DejaVuSans-45"/>
      <use x="372.900391" xlink:href="#DejaVuSans-32"/>
      <use x="404.6875" xlink:href="#DejaVuSans-67"/>
      <use x="474.511719" xlink:href="#DejaVuSans-111"/>
      <use x="535.693359" xlink:href="#DejaVuSans-114"/>
      <use x="575.056641" xlink:href="#DejaVuSans-114"/>
      <use x="616.169922" xlink:href="#DejaVuSans-105"/>
      <use x="643.953125" xlink:href="#DejaVuSans-100"/>
      <use x="707.429688" xlink:href="#DejaVuSans-111"/>
      <use x="768.611328" xlink:href="#DejaVuSans-114"/>
     </g>
    </g>
   </g>
  </g>
 </g>
 <defs>
  <clipPath id="p33f08530e0">
   <rect height="326.16" width="558" x="90" y="51.84"/>
  </clipPath>
 </defs>
</svg>
