<?xml version="1.0" encoding="utf-8" standalone="no"?>
<!DOCTYPE svg PUBLIC "-//W3C//DTD SVG 1.1//EN"
  "http://www.w3.org/Graphics/SVG/1.1/DTD/svg11.dtd">
<!-- Created with matplotlib (https://matplotlib.org/) -->
<svg height="504pt" version="1.1" viewBox="0 0 864 504" width="864pt" xmlns="http://www.w3.org/2000/svg" xmlns:xlink="http://www.w3.org/1999/xlink">
 <metadata>
  <rdf:RDF xmlns:cc="http://creativecommons.org/ns#" xmlns:dc="http://purl.org/dc/elements/1.1/" xmlns:rdf="http://www.w3.org/1999/02/22-rdf-syntax-ns#">
   <cc:Work>
    <dc:type rdf:resource="http://purl.org/dc/dcmitype/StillImage"/>
    <dc:date>2021-10-29T20:18:51.007626</dc:date>
    <dc:format>image/svg+xml</dc:format>
    <dc:creator>
     <cc:Agent>
      <dc:title>Matplotlib v3.3.0, https://matplotlib.org/</dc:title>
     </cc:Agent>
    </dc:creator>
   </cc:Work>
  </rdf:RDF>
 </metadata>
 <defs>
  <style type="text/css">*{stroke-linecap:butt;stroke-linejoin:round;}</style>
 </defs>
 <g id="figure_1">
  <g id="patch_1">
   <path d="M 0 504 
L 864 504 
L 864 0 
L 0 0 
z
" style="fill:none;"/>
  </g>
  <g id="axes_1">
   <g id="patch_2">
    <path d="M 656.279072 252 
C 656.279072 222.547942 650.477659 193.382268 639.206844 166.172115 
C 627.93603 138.961961 611.415003 114.236497 590.589253 93.410747 
C 569.763503 72.584997 545.038039 56.06397 517.827885 44.793156 
C 490.617732 33.522341 461.452058 27.720928 432 27.720928 
C 402.547942 27.720928 373.382268 33.522341 346.172115 44.793156 
C 318.961961 56.06397 294.236497 72.584997 273.410747 93.410747 
C 252.584997 114.236497 236.06397 138.961961 224.793156 166.172115 
C 213.522341 193.382268 207.720928 222.547942 207.720928 252 
C 207.720928 281.452058 213.522341 310.617732 224.793156 337.827885 
C 236.06397 365.038039 252.584997 389.763503 273.410747 410.589253 
C 294.236497 431.415003 318.961961 447.93603 346.172115 459.206844 
C 373.382268 470.477659 402.547942 476.279072 432 476.279072 
C 461.452058 476.279072 490.617732 470.477659 517.827885 459.206844 
C 545.038039 447.93603 569.763503 431.415003 590.589253 410.589253 
C 611.415003 389.763503 627.93603 365.038039 639.206844 337.827885 
C 650.477659 310.617732 656.279072 281.452058 656.279072 252 
M 432 252 
C 432 252 432 252 432 252 
C 432 252 432 252 432 252 
C 432 252 432 252 432 252 
C 432 252 432 252 432 252 
C 432 252 432 252 432 252 
C 432 252 432 252 432 252 
C 432 252 432 252 432 252 
C 432 252 432 252 432 252 
C 432 252 432 252 432 252 
C 432 252 432 252 432 252 
C 432 252 432 252 432 252 
C 432 252 432 252 432 252 
C 432 252 432 252 432 252 
C 432 252 432 252 432 252 
C 432 252 432 252 432 252 
C 432 252 432 252 432 252 
M 656.279072 252 
z
" style="fill:#ffffff;"/>
   </g>
   <g id="line2d_1">
    <path clip-path="url(#pe6c9689616)" d="M 592.199337 252 
L 566.768258 165.389699 
" style="fill:none;stroke:#a9a9a9;stroke-linecap:square;stroke-width:1.62391;"/>
   </g>
   <g id="line2d_2">
    <path clip-path="url(#pe6c9689616)" d="M 592.199337 252 
L 498.54921 106.277557 
" style="fill:none;stroke:#a9a9a9;stroke-linecap:square;stroke-width:0.5;"/>
   </g>
   <g id="line2d_3">
    <path clip-path="url(#pe6c9689616)" d="M 592.199337 252 
L 409.201257 93.431261 
" style="fill:none;stroke:#a9a9a9;stroke-linecap:square;stroke-width:0.5;"/>
   </g>
   <g id="line2d_4">
    <path clip-path="url(#pe6c9689616)" d="M 592.199337 252 
L 327.091744 130.929419 
" style="fill:none;stroke:#a9a9a9;stroke-linecap:square;stroke-width:0.5;"/>
   </g>
   <g id="line2d_5">
    <path clip-path="url(#pe6c9689616)" d="M 592.199337 252 
L 278.289861 206.866631 
" style="fill:none;stroke:#a9a9a9;stroke-linecap:square;stroke-width:0.5;"/>
   </g>
   <g id="line2d_6">
    <path clip-path="url(#pe6c9689616)" d="M 592.199337 252 
L 278.289861 297.133369 
" style="fill:none;stroke:#a9a9a9;stroke-linecap:square;stroke-width:0.5;"/>
   </g>
   <g id="line2d_7">
    <path clip-path="url(#pe6c9689616)" d="M 592.199337 252 
L 327.091744 373.070581 
" style="fill:none;stroke:#a9a9a9;stroke-linecap:square;stroke-width:0.5;"/>
   </g>
   <g id="line2d_8">
    <path clip-path="url(#pe6c9689616)" d="M 592.199337 252 
L 409.201257 410.568739 
" style="fill:none;stroke:#a9a9a9;stroke-linecap:square;stroke-width:0.5;"/>
   </g>
   <g id="line2d_9">
    <path clip-path="url(#pe6c9689616)" d="M 592.199337 252 
L 498.54921 397.722443 
" style="fill:none;stroke:#a9a9a9;stroke-linecap:square;stroke-width:0.5;"/>
   </g>
   <g id="line2d_10">
    <path clip-path="url(#pe6c9689616)" d="M 592.199337 252 
L 566.768258 338.610301 
" style="fill:none;stroke:#a9a9a9;stroke-linecap:square;stroke-width:0.5;"/>
   </g>
   <g id="line2d_11">
    <path clip-path="url(#pe6c9689616)" d="M 566.768258 165.389699 
L 498.54921 106.277557 
" style="fill:none;stroke:#a9a9a9;stroke-linecap:square;stroke-width:9.73079;"/>
   </g>
   <g id="line2d_12">
    <path clip-path="url(#pe6c9689616)" d="M 566.768258 165.389699 
L 409.201257 93.431261 
" style="fill:none;stroke:#a9a9a9;stroke-linecap:square;stroke-width:8.222687;"/>
   </g>
   <g id="line2d_13">
    <path clip-path="url(#pe6c9689616)" d="M 566.768258 165.389699 
L 327.091744 130.929419 
" style="fill:none;stroke:#a9a9a9;stroke-linecap:square;stroke-width:6.012226;"/>
   </g>
   <g id="line2d_14">
    <path clip-path="url(#pe6c9689616)" d="M 566.768258 165.389699 
L 278.289861 206.866631 
" style="fill:none;stroke:#a9a9a9;stroke-linecap:square;stroke-width:0.5;"/>
   </g>
   <g id="line2d_15">
    <path clip-path="url(#pe6c9689616)" d="M 566.768258 165.389699 
L 278.289861 297.133369 
" style="fill:none;stroke:#a9a9a9;stroke-linecap:square;stroke-width:3.860069;"/>
   </g>
   <g id="line2d_16">
    <path clip-path="url(#pe6c9689616)" d="M 566.768258 165.389699 
L 327.091744 373.070581 
" style="fill:none;stroke:#a9a9a9;stroke-linecap:square;stroke-width:0.5;"/>
   </g>
   <g id="line2d_17">
    <path clip-path="url(#pe6c9689616)" d="M 566.768258 165.389699 
L 409.201257 410.568739 
" style="fill:none;stroke:#a9a9a9;stroke-linecap:square;stroke-width:0.5;"/>
   </g>
   <g id="line2d_18">
    <path clip-path="url(#pe6c9689616)" d="M 566.768258 165.389699 
L 498.54921 397.722443 
" style="fill:none;stroke:#a9a9a9;stroke-linecap:square;stroke-width:9.308288;"/>
   </g>
   <g id="line2d_19">
    <path clip-path="url(#pe6c9689616)" d="M 566.768258 165.389699 
L 566.768258 338.610301 
" style="fill:none;stroke:#a9a9a9;stroke-linecap:square;stroke-width:2.647367;"/>
   </g>
   <g id="line2d_20">
    <path clip-path="url(#pe6c9689616)" d="M 498.54921 106.277557 
L 409.201257 93.431261 
" style="fill:none;stroke:#a9a9a9;stroke-linecap:square;stroke-width:7.878698;"/>
   </g>
   <g id="line2d_21">
    <path clip-path="url(#pe6c9689616)" d="M 498.54921 106.277557 
L 327.091744 130.929419 
" style="fill:none;stroke:#a9a9a9;stroke-linecap:square;stroke-width:1.278412;"/>
   </g>
   <g id="line2d_22">
    <path clip-path="url(#pe6c9689616)" d="M 498.54921 106.277557 
L 278.289861 206.866631 
" style="fill:none;stroke:#a9a9a9;stroke-linecap:square;stroke-width:10.5;"/>
   </g>
   <g id="line2d_23">
    <path clip-path="url(#pe6c9689616)" d="M 498.54921 106.277557 
L 278.289861 297.133369 
" style="fill:none;stroke:#a9a9a9;stroke-linecap:square;stroke-width:3.885332;"/>
   </g>
   <g id="line2d_24">
    <path clip-path="url(#pe6c9689616)" d="M 498.54921 106.277557 
L 327.091744 373.070581 
" style="fill:none;stroke:#a9a9a9;stroke-linecap:square;stroke-width:3.857736;"/>
   </g>
   <g id="line2d_25">
    <path clip-path="url(#pe6c9689616)" d="M 498.54921 106.277557 
L 409.201257 410.568739 
" style="fill:none;stroke:#a9a9a9;stroke-linecap:square;stroke-width:0.782448;"/>
   </g>
   <g id="line2d_26">
    <path clip-path="url(#pe6c9689616)" d="M 498.54921 106.277557 
L 498.54921 397.722443 
" style="fill:none;stroke:#a9a9a9;stroke-linecap:square;stroke-width:2.773689;"/>
   </g>
   <g id="line2d_27">
    <path clip-path="url(#pe6c9689616)" d="M 498.54921 106.277557 
L 566.768258 338.610301 
" style="fill:none;stroke:#a9a9a9;stroke-linecap:square;stroke-width:7.182949;"/>
   </g>
   <g id="line2d_28">
    <path clip-path="url(#pe6c9689616)" d="M 409.201257 93.431261 
L 327.091744 130.929419 
" style="fill:none;stroke:#a9a9a9;stroke-linecap:square;stroke-width:0.5;"/>
   </g>
   <g id="line2d_29">
    <path clip-path="url(#pe6c9689616)" d="M 409.201257 93.431261 
L 278.289861 206.866631 
" style="fill:none;stroke:#a9a9a9;stroke-linecap:square;stroke-width:0.5;"/>
   </g>
   <g id="line2d_30">
    <path clip-path="url(#pe6c9689616)" d="M 409.201257 93.431261 
L 278.289861 297.133369 
" style="fill:none;stroke:#a9a9a9;stroke-linecap:square;stroke-width:0.5;"/>
   </g>
   <g id="line2d_31">
    <path clip-path="url(#pe6c9689616)" d="M 409.201257 93.431261 
L 327.091744 373.070581 
" style="fill:none;stroke:#a9a9a9;stroke-linecap:square;stroke-width:0.5;"/>
   </g>
   <g id="line2d_32">
    <path clip-path="url(#pe6c9689616)" d="M 409.201257 93.431261 
L 409.201257 410.568739 
" style="fill:none;stroke:#a9a9a9;stroke-linecap:square;stroke-width:0.5;"/>
   </g>
   <g id="line2d_33">
    <path clip-path="url(#pe6c9689616)" d="M 409.201257 93.431261 
L 498.54921 397.722443 
" style="fill:none;stroke:#a9a9a9;stroke-linecap:square;stroke-width:0.5;"/>
   </g>
   <g id="line2d_34">
    <path clip-path="url(#pe6c9689616)" d="M 409.201257 93.431261 
L 566.768258 338.610301 
" style="fill:none;stroke:#a9a9a9;stroke-linecap:square;stroke-width:0.5;"/>
   </g>
   <g id="line2d_35">
    <path clip-path="url(#pe6c9689616)" d="M 327.091744 130.929419 
L 278.289861 206.866631 
" style="fill:none;stroke:#a9a9a9;stroke-linecap:square;stroke-width:0.5;"/>
   </g>
   <g id="line2d_36">
    <path clip-path="url(#pe6c9689616)" d="M 327.091744 130.929419 
L 278.289861 297.133369 
" style="fill:none;stroke:#a9a9a9;stroke-linecap:square;stroke-width:0.5;"/>
   </g>
   <g id="line2d_37">
    <path clip-path="url(#pe6c9689616)" d="M 327.091744 130.929419 
L 327.091744 373.070581 
" style="fill:none;stroke:#a9a9a9;stroke-linecap:square;stroke-width:0.5;"/>
   </g>
   <g id="line2d_38">
    <path clip-path="url(#pe6c9689616)" d="M 327.091744 130.929419 
L 409.201257 410.568739 
" style="fill:none;stroke:#a9a9a9;stroke-linecap:square;stroke-width:0.5;"/>
   </g>
   <g id="line2d_39">
    <path clip-path="url(#pe6c9689616)" d="M 327.091744 130.929419 
L 498.54921 397.722443 
" style="fill:none;stroke:#a9a9a9;stroke-linecap:square;stroke-width:0.5;"/>
   </g>
   <g id="line2d_40">
    <path clip-path="url(#pe6c9689616)" d="M 327.091744 130.929419 
L 566.768258 338.610301 
" style="fill:none;stroke:#a9a9a9;stroke-linecap:square;stroke-width:0.5;"/>
   </g>
   <g id="line2d_41">
    <path clip-path="url(#pe6c9689616)" d="M 278.289861 206.866631 
L 278.289861 297.133369 
" style="fill:none;stroke:#a9a9a9;stroke-linecap:square;stroke-width:0.5;"/>
   </g>
   <g id="line2d_42">
    <path clip-path="url(#pe6c9689616)" d="M 278.289861 206.866631 
L 327.091744 373.070581 
" style="fill:none;stroke:#a9a9a9;stroke-linecap:square;stroke-width:0.5;"/>
   </g>
   <g id="line2d_43">
    <path clip-path="url(#pe6c9689616)" d="M 278.289861 206.866631 
L 409.201257 410.568739 
" style="fill:none;stroke:#a9a9a9;stroke-linecap:square;stroke-width:0.5;"/>
   </g>
   <g id="line2d_44">
    <path clip-path="url(#pe6c9689616)" d="M 278.289861 206.866631 
L 498.54921 397.722443 
" style="fill:none;stroke:#a9a9a9;stroke-linecap:square;stroke-width:0.5;"/>
   </g>
   <g id="line2d_45">
    <path clip-path="url(#pe6c9689616)" d="M 278.289861 206.866631 
L 566.768258 338.610301 
" style="fill:none;stroke:#a9a9a9;stroke-linecap:square;stroke-width:0.5;"/>
   </g>
   <g id="line2d_46">
    <path clip-path="url(#pe6c9689616)" d="M 278.289861 297.133369 
L 327.091744 373.070581 
" style="fill:none;stroke:#a9a9a9;stroke-linecap:square;stroke-width:0.5;"/>
   </g>
   <g id="line2d_47">
    <path clip-path="url(#pe6c9689616)" d="M 278.289861 297.133369 
L 409.201257 410.568739 
" style="fill:none;stroke:#a9a9a9;stroke-linecap:square;stroke-width:0.5;"/>
   </g>
   <g id="line2d_48">
    <path clip-path="url(#pe6c9689616)" d="M 278.289861 297.133369 
L 498.54921 397.722443 
" style="fill:none;stroke:#a9a9a9;stroke-linecap:square;stroke-width:0.5;"/>
   </g>
   <g id="line2d_49">
    <path clip-path="url(#pe6c9689616)" d="M 278.289861 297.133369 
L 566.768258 338.610301 
" style="fill:none;stroke:#a9a9a9;stroke-linecap:square;stroke-width:0.5;"/>
   </g>
   <g id="line2d_50">
    <path clip-path="url(#pe6c9689616)" d="M 327.091744 373.070581 
L 409.201257 410.568739 
" style="fill:none;stroke:#a9a9a9;stroke-linecap:square;stroke-width:0.5;"/>
   </g>
   <g id="line2d_51">
    <path clip-path="url(#pe6c9689616)" d="M 327.091744 373.070581 
L 498.54921 397.722443 
" style="fill:none;stroke:#a9a9a9;stroke-linecap:square;stroke-width:0.5;"/>
   </g>
   <g id="line2d_52">
    <path clip-path="url(#pe6c9689616)" d="M 327.091744 373.070581 
L 566.768258 338.610301 
" style="fill:none;stroke:#a9a9a9;stroke-linecap:square;stroke-width:0.5;"/>
   </g>
   <g id="line2d_53">
    <path clip-path="url(#pe6c9689616)" d="M 409.201257 410.568739 
L 498.54921 397.722443 
" style="fill:none;stroke:#a9a9a9;stroke-linecap:square;stroke-width:0.5;"/>
   </g>
   <g id="line2d_54">
    <path clip-path="url(#pe6c9689616)" d="M 409.201257 410.568739 
L 566.768258 338.610301 
" style="fill:none;stroke:#a9a9a9;stroke-linecap:square;stroke-width:0.5;"/>
   </g>
   <g id="line2d_55">
    <path clip-path="url(#pe6c9689616)" d="M 498.54921 397.722443 
L 566.768258 338.610301 
" style="fill:none;stroke:#a9a9a9;stroke-linecap:square;stroke-width:0.5;"/>
   </g>
   <g id="matplotlib.axis_1">
    <g id="xtick_1">
     <g id="text_1">
      <!-- number-of-startind -->
      <g transform="translate(623.461104 254.759375)scale(0.1 -0.1)">
       <defs>
        <path d="M 54.890625 33.015625 
L 54.890625 0 
L 45.90625 0 
L 45.90625 32.71875 
Q 45.90625 40.484375 42.875 44.328125 
Q 39.84375 48.1875 33.796875 48.1875 
Q 26.515625 48.1875 22.3125 43.546875 
Q 18.109375 38.921875 18.109375 30.90625 
L 18.109375 0 
L 9.078125 0 
L 9.078125 54.6875 
L 18.109375 54.6875 
L 18.109375 46.1875 
Q 21.34375 51.125 25.703125 53.5625 
Q 30.078125 56 35.796875 56 
Q 45.21875 56 50.046875 50.171875 
Q 54.890625 44.34375 54.890625 33.015625 
z
" id="DejaVuSans-110"/>
        <path d="M 8.5 21.578125 
L 8.5 54.6875 
L 17.484375 54.6875 
L 17.484375 21.921875 
Q 17.484375 14.15625 20.5 10.265625 
Q 23.53125 6.390625 29.59375 6.390625 
Q 36.859375 6.390625 41.078125 11.03125 
Q 45.3125 15.671875 45.3125 23.6875 
L 45.3125 54.6875 
L 54.296875 54.6875 
L 54.296875 0 
L 45.3125 0 
L 45.3125 8.40625 
Q 42.046875 3.421875 37.71875 1 
Q 33.40625 -1.421875 27.6875 -1.421875 
Q 18.265625 -1.421875 13.375 4.4375 
Q 8.5 10.296875 8.5 21.578125 
z
M 31.109375 56 
z
" id="DejaVuSans-117"/>
        <path d="M 52 44.1875 
Q 55.375 50.25 60.0625 53.125 
Q 64.75 56 71.09375 56 
Q 79.640625 56 84.28125 50.015625 
Q 88.921875 44.046875 88.921875 33.015625 
L 88.921875 0 
L 79.890625 0 
L 79.890625 32.71875 
Q 79.890625 40.578125 77.09375 44.375 
Q 74.3125 48.1875 68.609375 48.1875 
Q 61.625 48.1875 57.5625 43.546875 
Q 53.515625 38.921875 53.515625 30.90625 
L 53.515625 0 
L 44.484375 0 
L 44.484375 32.71875 
Q 44.484375 40.625 41.703125 44.40625 
Q 38.921875 48.1875 33.109375 48.1875 
Q 26.21875 48.1875 22.15625 43.53125 
Q 18.109375 38.875 18.109375 30.90625 
L 18.109375 0 
L 9.078125 0 
L 9.078125 54.6875 
L 18.109375 54.6875 
L 18.109375 46.1875 
Q 21.1875 51.21875 25.484375 53.609375 
Q 29.78125 56 35.6875 56 
Q 41.65625 56 45.828125 52.96875 
Q 50 49.953125 52 44.1875 
z
" id="DejaVuSans-109"/>
        <path d="M 48.6875 27.296875 
Q 48.6875 37.203125 44.609375 42.84375 
Q 40.53125 48.484375 33.40625 48.484375 
Q 26.265625 48.484375 22.1875 42.84375 
Q 18.109375 37.203125 18.109375 27.296875 
Q 18.109375 17.390625 22.1875 11.75 
Q 26.265625 6.109375 33.40625 6.109375 
Q 40.53125 6.109375 44.609375 11.75 
Q 48.6875 17.390625 48.6875 27.296875 
z
M 18.109375 46.390625 
Q 20.953125 51.265625 25.265625 53.625 
Q 29.59375 56 35.59375 56 
Q 45.5625 56 51.78125 48.09375 
Q 58.015625 40.1875 58.015625 27.296875 
Q 58.015625 14.40625 51.78125 6.484375 
Q 45.5625 -1.421875 35.59375 -1.421875 
Q 29.59375 -1.421875 25.265625 0.953125 
Q 20.953125 3.328125 18.109375 8.203125 
L 18.109375 0 
L 9.078125 0 
L 9.078125 75.984375 
L 18.109375 75.984375 
z
" id="DejaVuSans-98"/>
        <path d="M 56.203125 29.59375 
L 56.203125 25.203125 
L 14.890625 25.203125 
Q 15.484375 15.921875 20.484375 11.0625 
Q 25.484375 6.203125 34.421875 6.203125 
Q 39.59375 6.203125 44.453125 7.46875 
Q 49.3125 8.734375 54.109375 11.28125 
L 54.109375 2.78125 
Q 49.265625 0.734375 44.1875 -0.34375 
Q 39.109375 -1.421875 33.890625 -1.421875 
Q 20.796875 -1.421875 13.15625 6.1875 
Q 5.515625 13.8125 5.515625 26.8125 
Q 5.515625 40.234375 12.765625 48.109375 
Q 20.015625 56 32.328125 56 
Q 43.359375 56 49.78125 48.890625 
Q 56.203125 41.796875 56.203125 29.59375 
z
M 47.21875 32.234375 
Q 47.125 39.59375 43.09375 43.984375 
Q 39.0625 48.390625 32.421875 48.390625 
Q 24.90625 48.390625 20.390625 44.140625 
Q 15.875 39.890625 15.1875 32.171875 
z
" id="DejaVuSans-101"/>
        <path d="M 41.109375 46.296875 
Q 39.59375 47.171875 37.8125 47.578125 
Q 36.03125 48 33.890625 48 
Q 26.265625 48 22.1875 43.046875 
Q 18.109375 38.09375 18.109375 28.8125 
L 18.109375 0 
L 9.078125 0 
L 9.078125 54.6875 
L 18.109375 54.6875 
L 18.109375 46.1875 
Q 20.953125 51.171875 25.484375 53.578125 
Q 30.03125 56 36.53125 56 
Q 37.453125 56 38.578125 55.875 
Q 39.703125 55.765625 41.0625 55.515625 
z
" id="DejaVuSans-114"/>
        <path d="M 4.890625 31.390625 
L 31.203125 31.390625 
L 31.203125 23.390625 
L 4.890625 23.390625 
z
" id="DejaVuSans-45"/>
        <path d="M 30.609375 48.390625 
Q 23.390625 48.390625 19.1875 42.75 
Q 14.984375 37.109375 14.984375 27.296875 
Q 14.984375 17.484375 19.15625 11.84375 
Q 23.34375 6.203125 30.609375 6.203125 
Q 37.796875 6.203125 41.984375 11.859375 
Q 46.1875 17.53125 46.1875 27.296875 
Q 46.1875 37.015625 41.984375 42.703125 
Q 37.796875 48.390625 30.609375 48.390625 
z
M 30.609375 56 
Q 42.328125 56 49.015625 48.375 
Q 55.71875 40.765625 55.71875 27.296875 
Q 55.71875 13.875 49.015625 6.21875 
Q 42.328125 -1.421875 30.609375 -1.421875 
Q 18.84375 -1.421875 12.171875 6.21875 
Q 5.515625 13.875 5.515625 27.296875 
Q 5.515625 40.765625 12.171875 48.375 
Q 18.84375 56 30.609375 56 
z
" id="DejaVuSans-111"/>
        <path d="M 37.109375 75.984375 
L 37.109375 68.5 
L 28.515625 68.5 
Q 23.6875 68.5 21.796875 66.546875 
Q 19.921875 64.59375 19.921875 59.515625 
L 19.921875 54.6875 
L 34.71875 54.6875 
L 34.71875 47.703125 
L 19.921875 47.703125 
L 19.921875 0 
L 10.890625 0 
L 10.890625 47.703125 
L 2.296875 47.703125 
L 2.296875 54.6875 
L 10.890625 54.6875 
L 10.890625 58.5 
Q 10.890625 67.625 15.140625 71.796875 
Q 19.390625 75.984375 28.609375 75.984375 
z
" id="DejaVuSans-102"/>
        <path d="M 44.28125 53.078125 
L 44.28125 44.578125 
Q 40.484375 46.53125 36.375 47.5 
Q 32.28125 48.484375 27.875 48.484375 
Q 21.1875 48.484375 17.84375 46.4375 
Q 14.5 44.390625 14.5 40.28125 
Q 14.5 37.15625 16.890625 35.375 
Q 19.28125 33.59375 26.515625 31.984375 
L 29.59375 31.296875 
Q 39.15625 29.25 43.1875 25.515625 
Q 47.21875 21.78125 47.21875 15.09375 
Q 47.21875 7.46875 41.1875 3.015625 
Q 35.15625 -1.421875 24.609375 -1.421875 
Q 20.21875 -1.421875 15.453125 -0.5625 
Q 10.6875 0.296875 5.421875 2 
L 5.421875 11.28125 
Q 10.40625 8.6875 15.234375 7.390625 
Q 20.0625 6.109375 24.8125 6.109375 
Q 31.15625 6.109375 34.5625 8.28125 
Q 37.984375 10.453125 37.984375 14.40625 
Q 37.984375 18.0625 35.515625 20.015625 
Q 33.0625 21.96875 24.703125 23.78125 
L 21.578125 24.515625 
Q 13.234375 26.265625 9.515625 29.90625 
Q 5.8125 33.546875 5.8125 39.890625 
Q 5.8125 47.609375 11.28125 51.796875 
Q 16.75 56 26.8125 56 
Q 31.78125 56 36.171875 55.265625 
Q 40.578125 54.546875 44.28125 53.078125 
z
" id="DejaVuSans-115"/>
        <path d="M 18.3125 70.21875 
L 18.3125 54.6875 
L 36.8125 54.6875 
L 36.8125 47.703125 
L 18.3125 47.703125 
L 18.3125 18.015625 
Q 18.3125 11.328125 20.140625 9.421875 
Q 21.96875 7.515625 27.59375 7.515625 
L 36.8125 7.515625 
L 36.8125 0 
L 27.59375 0 
Q 17.1875 0 13.234375 3.875 
Q 9.28125 7.765625 9.28125 18.015625 
L 9.28125 47.703125 
L 2.6875 47.703125 
L 2.6875 54.6875 
L 9.28125 54.6875 
L 9.28125 70.21875 
z
" id="DejaVuSans-116"/>
        <path d="M 34.28125 27.484375 
Q 23.390625 27.484375 19.1875 25 
Q 14.984375 22.515625 14.984375 16.5 
Q 14.984375 11.71875 18.140625 8.90625 
Q 21.296875 6.109375 26.703125 6.109375 
Q 34.1875 6.109375 38.703125 11.40625 
Q 43.21875 16.703125 43.21875 25.484375 
L 43.21875 27.484375 
z
M 52.203125 31.203125 
L 52.203125 0 
L 43.21875 0 
L 43.21875 8.296875 
Q 40.140625 3.328125 35.546875 0.953125 
Q 30.953125 -1.421875 24.3125 -1.421875 
Q 15.921875 -1.421875 10.953125 3.296875 
Q 6 8.015625 6 15.921875 
Q 6 25.140625 12.171875 29.828125 
Q 18.359375 34.515625 30.609375 34.515625 
L 43.21875 34.515625 
L 43.21875 35.40625 
Q 43.21875 41.609375 39.140625 45 
Q 35.0625 48.390625 27.6875 48.390625 
Q 23 48.390625 18.546875 47.265625 
Q 14.109375 46.140625 10.015625 43.890625 
L 10.015625 52.203125 
Q 14.9375 54.109375 19.578125 55.046875 
Q 24.21875 56 28.609375 56 
Q 40.484375 56 46.34375 49.84375 
Q 52.203125 43.703125 52.203125 31.203125 
z
" id="DejaVuSans-97"/>
        <path d="M 9.421875 54.6875 
L 18.40625 54.6875 
L 18.40625 0 
L 9.421875 0 
z
M 9.421875 75.984375 
L 18.40625 75.984375 
L 18.40625 64.59375 
L 9.421875 64.59375 
z
" id="DejaVuSans-105"/>
        <path d="M 45.40625 46.390625 
L 45.40625 75.984375 
L 54.390625 75.984375 
L 54.390625 0 
L 45.40625 0 
L 45.40625 8.203125 
Q 42.578125 3.328125 38.25 0.953125 
Q 33.9375 -1.421875 27.875 -1.421875 
Q 17.96875 -1.421875 11.734375 6.484375 
Q 5.515625 14.40625 5.515625 27.296875 
Q 5.515625 40.1875 11.734375 48.09375 
Q 17.96875 56 27.875 56 
Q 33.9375 56 38.25 53.625 
Q 42.578125 51.265625 45.40625 46.390625 
z
M 14.796875 27.296875 
Q 14.796875 17.390625 18.875 11.75 
Q 22.953125 6.109375 30.078125 6.109375 
Q 37.203125 6.109375 41.296875 11.75 
Q 45.40625 17.390625 45.40625 27.296875 
Q 45.40625 37.203125 41.296875 42.84375 
Q 37.203125 48.484375 30.078125 48.484375 
Q 22.953125 48.484375 18.875 42.84375 
Q 14.796875 37.203125 14.796875 27.296875 
z
" id="DejaVuSans-100"/>
       </defs>
       <use xlink:href="#DejaVuSans-110"/>
       <use x="63.378906" xlink:href="#DejaVuSans-117"/>
       <use x="126.757812" xlink:href="#DejaVuSans-109"/>
       <use x="224.169922" xlink:href="#DejaVuSans-98"/>
       <use x="287.646484" xlink:href="#DejaVuSans-101"/>
       <use x="349.169922" xlink:href="#DejaVuSans-114"/>
       <use x="383.908203" xlink:href="#DejaVuSans-45"/>
       <use x="421.867188" xlink:href="#DejaVuSans-111"/>
       <use x="483.048828" xlink:href="#DejaVuSans-102"/>
       <use x="512.753906" xlink:href="#DejaVuSans-45"/>
       <use x="548.837891" xlink:href="#DejaVuSans-115"/>
       <use x="600.9375" xlink:href="#DejaVuSans-116"/>
       <use x="640.146484" xlink:href="#DejaVuSans-97"/>
       <use x="701.425781" xlink:href="#DejaVuSans-114"/>
       <use x="742.539062" xlink:href="#DejaVuSans-116"/>
       <use x="781.748047" xlink:href="#DejaVuSans-105"/>
       <use x="809.53125" xlink:href="#DejaVuSans-110"/>
       <use x="872.910156" xlink:href="#DejaVuSans-100"/>
      </g>
     </g>
    </g>
    <g id="xtick_2">
     <g id="text_2">
      <!-- capacity -->
      <g transform="translate(611.343736 125.935983)scale(0.1 -0.1)">
       <defs>
        <path d="M 48.78125 52.59375 
L 48.78125 44.1875 
Q 44.96875 46.296875 41.140625 47.34375 
Q 37.3125 48.390625 33.40625 48.390625 
Q 24.65625 48.390625 19.8125 42.84375 
Q 14.984375 37.3125 14.984375 27.296875 
Q 14.984375 17.28125 19.8125 11.734375 
Q 24.65625 6.203125 33.40625 6.203125 
Q 37.3125 6.203125 41.140625 7.25 
Q 44.96875 8.296875 48.78125 10.40625 
L 48.78125 2.09375 
Q 45.015625 0.34375 40.984375 -0.53125 
Q 36.96875 -1.421875 32.421875 -1.421875 
Q 20.0625 -1.421875 12.78125 6.34375 
Q 5.515625 14.109375 5.515625 27.296875 
Q 5.515625 40.671875 12.859375 48.328125 
Q 20.21875 56 33.015625 56 
Q 37.15625 56 41.109375 55.140625 
Q 45.0625 54.296875 48.78125 52.59375 
z
" id="DejaVuSans-99"/>
        <path d="M 18.109375 8.203125 
L 18.109375 -20.796875 
L 9.078125 -20.796875 
L 9.078125 54.6875 
L 18.109375 54.6875 
L 18.109375 46.390625 
Q 20.953125 51.265625 25.265625 53.625 
Q 29.59375 56 35.59375 56 
Q 45.5625 56 51.78125 48.09375 
Q 58.015625 40.1875 58.015625 27.296875 
Q 58.015625 14.40625 51.78125 6.484375 
Q 45.5625 -1.421875 35.59375 -1.421875 
Q 29.59375 -1.421875 25.265625 0.953125 
Q 20.953125 3.328125 18.109375 8.203125 
z
M 48.6875 27.296875 
Q 48.6875 37.203125 44.609375 42.84375 
Q 40.53125 48.484375 33.40625 48.484375 
Q 26.265625 48.484375 22.1875 42.84375 
Q 18.109375 37.203125 18.109375 27.296875 
Q 18.109375 17.390625 22.1875 11.75 
Q 26.265625 6.109375 33.40625 6.109375 
Q 40.53125 6.109375 44.609375 11.75 
Q 48.6875 17.390625 48.6875 27.296875 
z
" id="DejaVuSans-112"/>
        <path d="M 32.171875 -5.078125 
Q 28.375 -14.84375 24.75 -17.8125 
Q 21.140625 -20.796875 15.09375 -20.796875 
L 7.90625 -20.796875 
L 7.90625 -13.28125 
L 13.1875 -13.28125 
Q 16.890625 -13.28125 18.9375 -11.515625 
Q 21 -9.765625 23.484375 -3.21875 
L 25.09375 0.875 
L 2.984375 54.6875 
L 12.5 54.6875 
L 29.59375 11.921875 
L 46.6875 54.6875 
L 56.203125 54.6875 
z
" id="DejaVuSans-121"/>
       </defs>
       <use xlink:href="#DejaVuSans-99"/>
       <use x="54.980469" xlink:href="#DejaVuSans-97"/>
       <use x="116.259766" xlink:href="#DejaVuSans-112"/>
       <use x="179.736328" xlink:href="#DejaVuSans-97"/>
       <use x="241.015625" xlink:href="#DejaVuSans-99"/>
       <use x="295.996094" xlink:href="#DejaVuSans-105"/>
       <use x="323.779297" xlink:href="#DejaVuSans-116"/>
       <use x="362.988281" xlink:href="#DejaVuSans-121"/>
      </g>
     </g>
    </g>
    <g id="xtick_3">
     <g id="text_3">
      <!-- mean-juvenile-mortality-prob -->
      <g transform="translate(457.805798 38.013107)scale(0.1 -0.1)">
       <defs>
        <path d="M 9.421875 54.6875 
L 18.40625 54.6875 
L 18.40625 -0.984375 
Q 18.40625 -11.421875 14.421875 -16.109375 
Q 10.453125 -20.796875 1.609375 -20.796875 
L -1.8125 -20.796875 
L -1.8125 -13.1875 
L 0.59375 -13.1875 
Q 5.71875 -13.1875 7.5625 -10.8125 
Q 9.421875 -8.453125 9.421875 -0.984375 
z
M 9.421875 75.984375 
L 18.40625 75.984375 
L 18.40625 64.59375 
L 9.421875 64.59375 
z
" id="DejaVuSans-106"/>
        <path d="M 2.984375 54.6875 
L 12.5 54.6875 
L 29.59375 8.796875 
L 46.6875 54.6875 
L 56.203125 54.6875 
L 35.6875 0 
L 23.484375 0 
z
" id="DejaVuSans-118"/>
        <path d="M 9.421875 75.984375 
L 18.40625 75.984375 
L 18.40625 0 
L 9.421875 0 
z
" id="DejaVuSans-108"/>
       </defs>
       <use xlink:href="#DejaVuSans-109"/>
       <use x="97.412109" xlink:href="#DejaVuSans-101"/>
       <use x="158.935547" xlink:href="#DejaVuSans-97"/>
       <use x="220.214844" xlink:href="#DejaVuSans-110"/>
       <use x="283.59375" xlink:href="#DejaVuSans-45"/>
       <use x="319.677734" xlink:href="#DejaVuSans-106"/>
       <use x="347.460938" xlink:href="#DejaVuSans-117"/>
       <use x="410.839844" xlink:href="#DejaVuSans-118"/>
       <use x="470.019531" xlink:href="#DejaVuSans-101"/>
       <use x="531.542969" xlink:href="#DejaVuSans-110"/>
       <use x="594.921875" xlink:href="#DejaVuSans-105"/>
       <use x="622.705078" xlink:href="#DejaVuSans-108"/>
       <use x="650.488281" xlink:href="#DejaVuSans-101"/>
       <use x="712.011719" xlink:href="#DejaVuSans-45"/>
       <use x="748.095703" xlink:href="#DejaVuSans-109"/>
       <use x="845.507812" xlink:href="#DejaVuSans-111"/>
       <use x="906.689453" xlink:href="#DejaVuSans-114"/>
       <use x="947.802734" xlink:href="#DejaVuSans-116"/>
       <use x="987.011719" xlink:href="#DejaVuSans-97"/>
       <use x="1048.291016" xlink:href="#DejaVuSans-108"/>
       <use x="1076.074219" xlink:href="#DejaVuSans-105"/>
       <use x="1103.857422" xlink:href="#DejaVuSans-116"/>
       <use x="1143.066406" xlink:href="#DejaVuSans-121"/>
       <use x="1200.496094" xlink:href="#DejaVuSans-45"/>
       <use x="1236.580078" xlink:href="#DejaVuSans-112"/>
       <use x="1300.056641" xlink:href="#DejaVuSans-114"/>
       <use x="1338.919922" xlink:href="#DejaVuSans-111"/>
       <use x="1400.101562" xlink:href="#DejaVuSans-98"/>
      </g>
     </g>
    </g>
    <g id="xtick_4">
     <g id="text_4">
      <!-- mean-adult-mortality-prob -->
      <g transform="translate(331.771384 18.90564)scale(0.1 -0.1)">
       <use xlink:href="#DejaVuSans-109"/>
       <use x="97.412109" xlink:href="#DejaVuSans-101"/>
       <use x="158.935547" xlink:href="#DejaVuSans-97"/>
       <use x="220.214844" xlink:href="#DejaVuSans-110"/>
       <use x="283.59375" xlink:href="#DejaVuSans-45"/>
       <use x="319.677734" xlink:href="#DejaVuSans-97"/>
       <use x="380.957031" xlink:href="#DejaVuSans-100"/>
       <use x="444.433594" xlink:href="#DejaVuSans-117"/>
       <use x="507.8125" xlink:href="#DejaVuSans-108"/>
       <use x="535.595703" xlink:href="#DejaVuSans-116"/>
       <use x="574.804688" xlink:href="#DejaVuSans-45"/>
       <use x="610.888672" xlink:href="#DejaVuSans-109"/>
       <use x="708.300781" xlink:href="#DejaVuSans-111"/>
       <use x="769.482422" xlink:href="#DejaVuSans-114"/>
       <use x="810.595703" xlink:href="#DejaVuSans-116"/>
       <use x="849.804688" xlink:href="#DejaVuSans-97"/>
       <use x="911.083984" xlink:href="#DejaVuSans-108"/>
       <use x="938.867188" xlink:href="#DejaVuSans-105"/>
       <use x="966.650391" xlink:href="#DejaVuSans-116"/>
       <use x="1005.859375" xlink:href="#DejaVuSans-121"/>
       <use x="1063.289062" xlink:href="#DejaVuSans-45"/>
       <use x="1099.373047" xlink:href="#DejaVuSans-112"/>
       <use x="1162.849609" xlink:href="#DejaVuSans-114"/>
       <use x="1201.712891" xlink:href="#DejaVuSans-111"/>
       <use x="1262.894531" xlink:href="#DejaVuSans-98"/>
      </g>
     </g>
    </g>
    <g id="xtick_5">
     <g id="text_5">
      <!-- cropland-movement-cost -->
      <g transform="translate(213.215861 74.680068)scale(0.1 -0.1)">
       <use xlink:href="#DejaVuSans-99"/>
       <use x="54.980469" xlink:href="#DejaVuSans-114"/>
       <use x="93.84375" xlink:href="#DejaVuSans-111"/>
       <use x="155.025391" xlink:href="#DejaVuSans-112"/>
       <use x="218.501953" xlink:href="#DejaVuSans-108"/>
       <use x="246.285156" xlink:href="#DejaVuSans-97"/>
       <use x="307.564453" xlink:href="#DejaVuSans-110"/>
       <use x="370.943359" xlink:href="#DejaVuSans-100"/>
       <use x="434.419922" xlink:href="#DejaVuSans-45"/>
       <use x="470.503906" xlink:href="#DejaVuSans-109"/>
       <use x="567.916016" xlink:href="#DejaVuSans-111"/>
       <use x="629.097656" xlink:href="#DejaVuSans-118"/>
       <use x="688.277344" xlink:href="#DejaVuSans-101"/>
       <use x="749.800781" xlink:href="#DejaVuSans-109"/>
       <use x="847.212891" xlink:href="#DejaVuSans-101"/>
       <use x="908.736328" xlink:href="#DejaVuSans-110"/>
       <use x="972.115234" xlink:href="#DejaVuSans-116"/>
       <use x="1011.324219" xlink:href="#DejaVuSans-45"/>
       <use x="1047.408203" xlink:href="#DejaVuSans-99"/>
       <use x="1102.388672" xlink:href="#DejaVuSans-111"/>
       <use x="1163.570312" xlink:href="#DejaVuSans-115"/>
       <use x="1215.669922" xlink:href="#DejaVuSans-116"/>
      </g>
     </g>
    </g>
    <g id="xtick_6">
     <g id="text_6">
      <!-- woodland-movement-cost -->
      <g transform="translate(138.172123 187.628403)scale(0.1 -0.1)">
       <defs>
        <path d="M 4.203125 54.6875 
L 13.1875 54.6875 
L 24.421875 12.015625 
L 35.59375 54.6875 
L 46.1875 54.6875 
L 57.421875 12.015625 
L 68.609375 54.6875 
L 77.59375 54.6875 
L 63.28125 0 
L 52.6875 0 
L 40.921875 44.828125 
L 29.109375 0 
L 18.5 0 
z
" id="DejaVuSans-119"/>
       </defs>
       <use xlink:href="#DejaVuSans-119"/>
       <use x="81.787109" xlink:href="#DejaVuSans-111"/>
       <use x="142.96875" xlink:href="#DejaVuSans-111"/>
       <use x="204.150391" xlink:href="#DejaVuSans-100"/>
       <use x="267.626953" xlink:href="#DejaVuSans-108"/>
       <use x="295.410156" xlink:href="#DejaVuSans-97"/>
       <use x="356.689453" xlink:href="#DejaVuSans-110"/>
       <use x="420.068359" xlink:href="#DejaVuSans-100"/>
       <use x="483.544922" xlink:href="#DejaVuSans-45"/>
       <use x="519.628906" xlink:href="#DejaVuSans-109"/>
       <use x="617.041016" xlink:href="#DejaVuSans-111"/>
       <use x="678.222656" xlink:href="#DejaVuSans-118"/>
       <use x="737.402344" xlink:href="#DejaVuSans-101"/>
       <use x="798.925781" xlink:href="#DejaVuSans-109"/>
       <use x="896.337891" xlink:href="#DejaVuSans-101"/>
       <use x="957.861328" xlink:href="#DejaVuSans-110"/>
       <use x="1021.240234" xlink:href="#DejaVuSans-116"/>
       <use x="1060.449219" xlink:href="#DejaVuSans-45"/>
       <use x="1096.533203" xlink:href="#DejaVuSans-99"/>
       <use x="1151.513672" xlink:href="#DejaVuSans-111"/>
       <use x="1212.695312" xlink:href="#DejaVuSans-115"/>
       <use x="1264.794922" xlink:href="#DejaVuSans-116"/>
      </g>
     </g>
    </g>
    <g id="xtick_7">
     <g id="text_7">
      <!-- angle-for-viewing-ponds-and-woodland -->
      <g transform="translate(106.043217 321.890347)scale(0.1 -0.1)">
       <defs>
        <path d="M 45.40625 27.984375 
Q 45.40625 37.75 41.375 43.109375 
Q 37.359375 48.484375 30.078125 48.484375 
Q 22.859375 48.484375 18.828125 43.109375 
Q 14.796875 37.75 14.796875 27.984375 
Q 14.796875 18.265625 18.828125 12.890625 
Q 22.859375 7.515625 30.078125 7.515625 
Q 37.359375 7.515625 41.375 12.890625 
Q 45.40625 18.265625 45.40625 27.984375 
z
M 54.390625 6.78125 
Q 54.390625 -7.171875 48.1875 -13.984375 
Q 42 -20.796875 29.203125 -20.796875 
Q 24.46875 -20.796875 20.265625 -20.09375 
Q 16.0625 -19.390625 12.109375 -17.921875 
L 12.109375 -9.1875 
Q 16.0625 -11.328125 19.921875 -12.34375 
Q 23.78125 -13.375 27.78125 -13.375 
Q 36.625 -13.375 41.015625 -8.765625 
Q 45.40625 -4.15625 45.40625 5.171875 
L 45.40625 9.625 
Q 42.625 4.78125 38.28125 2.390625 
Q 33.9375 0 27.875 0 
Q 17.828125 0 11.671875 7.65625 
Q 5.515625 15.328125 5.515625 27.984375 
Q 5.515625 40.671875 11.671875 48.328125 
Q 17.828125 56 27.875 56 
Q 33.9375 56 38.28125 53.609375 
Q 42.625 51.21875 45.40625 46.390625 
L 45.40625 54.6875 
L 54.390625 54.6875 
z
" id="DejaVuSans-103"/>
       </defs>
       <use xlink:href="#DejaVuSans-97"/>
       <use x="61.279297" xlink:href="#DejaVuSans-110"/>
       <use x="124.658203" xlink:href="#DejaVuSans-103"/>
       <use x="188.134766" xlink:href="#DejaVuSans-108"/>
       <use x="215.917969" xlink:href="#DejaVuSans-101"/>
       <use x="277.441406" xlink:href="#DejaVuSans-45"/>
       <use x="313.525391" xlink:href="#DejaVuSans-102"/>
       <use x="348.730469" xlink:href="#DejaVuSans-111"/>
       <use x="409.912109" xlink:href="#DejaVuSans-114"/>
       <use x="444.650391" xlink:href="#DejaVuSans-45"/>
       <use x="478.109375" xlink:href="#DejaVuSans-118"/>
       <use x="537.289062" xlink:href="#DejaVuSans-105"/>
       <use x="565.072266" xlink:href="#DejaVuSans-101"/>
       <use x="626.595703" xlink:href="#DejaVuSans-119"/>
       <use x="708.382812" xlink:href="#DejaVuSans-105"/>
       <use x="736.166016" xlink:href="#DejaVuSans-110"/>
       <use x="799.544922" xlink:href="#DejaVuSans-103"/>
       <use x="863.021484" xlink:href="#DejaVuSans-45"/>
       <use x="899.105469" xlink:href="#DejaVuSans-112"/>
       <use x="962.582031" xlink:href="#DejaVuSans-111"/>
       <use x="1023.763672" xlink:href="#DejaVuSans-110"/>
       <use x="1087.142578" xlink:href="#DejaVuSans-100"/>
       <use x="1150.619141" xlink:href="#DejaVuSans-115"/>
       <use x="1202.71875" xlink:href="#DejaVuSans-45"/>
       <use x="1238.802734" xlink:href="#DejaVuSans-97"/>
       <use x="1300.082031" xlink:href="#DejaVuSans-110"/>
       <use x="1363.460938" xlink:href="#DejaVuSans-100"/>
       <use x="1426.9375" xlink:href="#DejaVuSans-45"/>
       <use x="1463.021484" xlink:href="#DejaVuSans-119"/>
       <use x="1544.808594" xlink:href="#DejaVuSans-111"/>
       <use x="1605.990234" xlink:href="#DejaVuSans-111"/>
       <use x="1667.171875" xlink:href="#DejaVuSans-100"/>
       <use x="1730.648438" xlink:href="#DejaVuSans-108"/>
       <use x="1758.431641" xlink:href="#DejaVuSans-97"/>
       <use x="1819.710938" xlink:href="#DejaVuSans-110"/>
       <use x="1883.089844" xlink:href="#DejaVuSans-100"/>
      </g>
     </g>
    </g>
    <g id="xtick_8">
     <g id="text_8">
      <!-- mortality-decrease-with-buffer -->
      <g transform="translate(199.561954 434.838682)scale(0.1 -0.1)">
       <defs>
        <path d="M 54.890625 33.015625 
L 54.890625 0 
L 45.90625 0 
L 45.90625 32.71875 
Q 45.90625 40.484375 42.875 44.328125 
Q 39.84375 48.1875 33.796875 48.1875 
Q 26.515625 48.1875 22.3125 43.546875 
Q 18.109375 38.921875 18.109375 30.90625 
L 18.109375 0 
L 9.078125 0 
L 9.078125 75.984375 
L 18.109375 75.984375 
L 18.109375 46.1875 
Q 21.34375 51.125 25.703125 53.5625 
Q 30.078125 56 35.796875 56 
Q 45.21875 56 50.046875 50.171875 
Q 54.890625 44.34375 54.890625 33.015625 
z
" id="DejaVuSans-104"/>
       </defs>
       <use xlink:href="#DejaVuSans-109"/>
       <use x="97.412109" xlink:href="#DejaVuSans-111"/>
       <use x="158.59375" xlink:href="#DejaVuSans-114"/>
       <use x="199.707031" xlink:href="#DejaVuSans-116"/>
       <use x="238.916016" xlink:href="#DejaVuSans-97"/>
       <use x="300.195312" xlink:href="#DejaVuSans-108"/>
       <use x="327.978516" xlink:href="#DejaVuSans-105"/>
       <use x="355.761719" xlink:href="#DejaVuSans-116"/>
       <use x="394.970703" xlink:href="#DejaVuSans-121"/>
       <use x="452.400391" xlink:href="#DejaVuSans-45"/>
       <use x="488.484375" xlink:href="#DejaVuSans-100"/>
       <use x="551.960938" xlink:href="#DejaVuSans-101"/>
       <use x="613.484375" xlink:href="#DejaVuSans-99"/>
       <use x="668.464844" xlink:href="#DejaVuSans-114"/>
       <use x="707.328125" xlink:href="#DejaVuSans-101"/>
       <use x="768.851562" xlink:href="#DejaVuSans-97"/>
       <use x="830.130859" xlink:href="#DejaVuSans-115"/>
       <use x="882.230469" xlink:href="#DejaVuSans-101"/>
       <use x="943.753906" xlink:href="#DejaVuSans-45"/>
       <use x="979.837891" xlink:href="#DejaVuSans-119"/>
       <use x="1061.625" xlink:href="#DejaVuSans-105"/>
       <use x="1089.408203" xlink:href="#DejaVuSans-116"/>
       <use x="1128.617188" xlink:href="#DejaVuSans-104"/>
       <use x="1191.996094" xlink:href="#DejaVuSans-45"/>
       <use x="1228.080078" xlink:href="#DejaVuSans-98"/>
       <use x="1291.556641" xlink:href="#DejaVuSans-117"/>
       <use x="1354.935547" xlink:href="#DejaVuSans-102"/>
       <use x="1390.140625" xlink:href="#DejaVuSans-102"/>
       <use x="1425.345703" xlink:href="#DejaVuSans-101"/>
       <use x="1486.869141" xlink:href="#DejaVuSans-114"/>
      </g>
     </g>
    </g>
    <g id="xtick_9">
     <g id="text_9">
      <!-- distance-for-viewing-ponds-and-woodland -->
      <g transform="translate(293.445602 490.61311)scale(0.1 -0.1)">
       <use xlink:href="#DejaVuSans-100"/>
       <use x="63.476562" xlink:href="#DejaVuSans-105"/>
       <use x="91.259766" xlink:href="#DejaVuSans-115"/>
       <use x="143.359375" xlink:href="#DejaVuSans-116"/>
       <use x="182.568359" xlink:href="#DejaVuSans-97"/>
       <use x="243.847656" xlink:href="#DejaVuSans-110"/>
       <use x="307.226562" xlink:href="#DejaVuSans-99"/>
       <use x="362.207031" xlink:href="#DejaVuSans-101"/>
       <use x="423.730469" xlink:href="#DejaVuSans-45"/>
       <use x="459.814453" xlink:href="#DejaVuSans-102"/>
       <use x="495.019531" xlink:href="#DejaVuSans-111"/>
       <use x="556.201172" xlink:href="#DejaVuSans-114"/>
       <use x="590.939453" xlink:href="#DejaVuSans-45"/>
       <use x="624.398438" xlink:href="#DejaVuSans-118"/>
       <use x="683.578125" xlink:href="#DejaVuSans-105"/>
       <use x="711.361328" xlink:href="#DejaVuSans-101"/>
       <use x="772.884766" xlink:href="#DejaVuSans-119"/>
       <use x="854.671875" xlink:href="#DejaVuSans-105"/>
       <use x="882.455078" xlink:href="#DejaVuSans-110"/>
       <use x="945.833984" xlink:href="#DejaVuSans-103"/>
       <use x="1009.310547" xlink:href="#DejaVuSans-45"/>
       <use x="1045.394531" xlink:href="#DejaVuSans-112"/>
       <use x="1108.871094" xlink:href="#DejaVuSans-111"/>
       <use x="1170.052734" xlink:href="#DejaVuSans-110"/>
       <use x="1233.431641" xlink:href="#DejaVuSans-100"/>
       <use x="1296.908203" xlink:href="#DejaVuSans-115"/>
       <use x="1349.007812" xlink:href="#DejaVuSans-45"/>
       <use x="1385.091797" xlink:href="#DejaVuSans-97"/>
       <use x="1446.371094" xlink:href="#DejaVuSans-110"/>
       <use x="1509.75" xlink:href="#DejaVuSans-100"/>
       <use x="1573.226562" xlink:href="#DejaVuSans-45"/>
       <use x="1609.310547" xlink:href="#DejaVuSans-119"/>
       <use x="1691.097656" xlink:href="#DejaVuSans-111"/>
       <use x="1752.279297" xlink:href="#DejaVuSans-111"/>
       <use x="1813.460938" xlink:href="#DejaVuSans-100"/>
       <use x="1876.9375" xlink:href="#DejaVuSans-108"/>
       <use x="1904.720703" xlink:href="#DejaVuSans-97"/>
       <use x="1966" xlink:href="#DejaVuSans-110"/>
       <use x="2029.378906" xlink:href="#DejaVuSans-100"/>
      </g>
     </g>
    </g>
    <g id="xtick_10">
     <g id="text_10">
      <!-- movement-energy -->
      <g transform="translate(484.715954 471.505643)scale(0.1 -0.1)">
       <use xlink:href="#DejaVuSans-109"/>
       <use x="97.412109" xlink:href="#DejaVuSans-111"/>
       <use x="158.59375" xlink:href="#DejaVuSans-118"/>
       <use x="217.773438" xlink:href="#DejaVuSans-101"/>
       <use x="279.296875" xlink:href="#DejaVuSans-109"/>
       <use x="376.708984" xlink:href="#DejaVuSans-101"/>
       <use x="438.232422" xlink:href="#DejaVuSans-110"/>
       <use x="501.611328" xlink:href="#DejaVuSans-116"/>
       <use x="540.820312" xlink:href="#DejaVuSans-45"/>
       <use x="576.904297" xlink:href="#DejaVuSans-101"/>
       <use x="638.427734" xlink:href="#DejaVuSans-110"/>
       <use x="701.806641" xlink:href="#DejaVuSans-101"/>
       <use x="763.330078" xlink:href="#DejaVuSans-114"/>
       <use x="802.693359" xlink:href="#DejaVuSans-103"/>
       <use x="866.169922" xlink:href="#DejaVuSans-121"/>
      </g>
     </g>
    </g>
    <g id="xtick_11">
     <g id="text_11">
      <!-- mean-number-of-female-offspring -->
      <g transform="translate(547.747643 383.582767)scale(0.1 -0.1)">
       <use xlink:href="#DejaVuSans-109"/>
       <use x="97.412109" xlink:href="#DejaVuSans-101"/>
       <use x="158.935547" xlink:href="#DejaVuSans-97"/>
       <use x="220.214844" xlink:href="#DejaVuSans-110"/>
       <use x="283.59375" xlink:href="#DejaVuSans-45"/>
       <use x="319.677734" xlink:href="#DejaVuSans-110"/>
       <use x="383.056641" xlink:href="#DejaVuSans-117"/>
       <use x="446.435547" xlink:href="#DejaVuSans-109"/>
       <use x="543.847656" xlink:href="#DejaVuSans-98"/>
       <use x="607.324219" xlink:href="#DejaVuSans-101"/>
       <use x="668.847656" xlink:href="#DejaVuSans-114"/>
       <use x="703.585938" xlink:href="#DejaVuSans-45"/>
       <use x="741.544922" xlink:href="#DejaVuSans-111"/>
       <use x="802.726562" xlink:href="#DejaVuSans-102"/>
       <use x="832.431641" xlink:href="#DejaVuSans-45"/>
       <use x="868.515625" xlink:href="#DejaVuSans-102"/>
       <use x="903.720703" xlink:href="#DejaVuSans-101"/>
       <use x="965.244141" xlink:href="#DejaVuSans-109"/>
       <use x="1062.65625" xlink:href="#DejaVuSans-97"/>
       <use x="1123.935547" xlink:href="#DejaVuSans-108"/>
       <use x="1151.71875" xlink:href="#DejaVuSans-101"/>
       <use x="1213.242188" xlink:href="#DejaVuSans-45"/>
       <use x="1251.201172" xlink:href="#DejaVuSans-111"/>
       <use x="1312.382812" xlink:href="#DejaVuSans-102"/>
       <use x="1347.587891" xlink:href="#DejaVuSans-102"/>
       <use x="1382.792969" xlink:href="#DejaVuSans-115"/>
       <use x="1434.892578" xlink:href="#DejaVuSans-112"/>
       <use x="1498.369141" xlink:href="#DejaVuSans-114"/>
       <use x="1539.482422" xlink:href="#DejaVuSans-105"/>
       <use x="1567.265625" xlink:href="#DejaVuSans-110"/>
       <use x="1630.644531" xlink:href="#DejaVuSans-103"/>
      </g>
     </g>
    </g>
   </g>
   <g id="matplotlib.axis_2">
    <g id="ytick_1"/>
    <g id="ytick_2"/>
    <g id="ytick_3"/>
    <g id="ytick_4"/>
    <g id="ytick_5"/>
    <g id="ytick_6"/>
    <g id="ytick_7"/>
   </g>
   <g id="legend_1">
    <g id="patch_3">
     <path d="M 658.279072 72.576742 
L 702.99001 72.576742 
Q 704.99001 72.576742 704.99001 70.576742 
L 704.99001 27.542367 
Q 704.99001 25.542367 702.99001 25.542367 
L 658.279072 25.542367 
Q 656.279072 25.542367 656.279072 27.542367 
L 656.279072 70.576742 
Q 656.279072 72.576742 658.279072 72.576742 
z
" style="fill:#ffffff;opacity:0.8;stroke:#cccccc;stroke-linejoin:miter;"/>
    </g>
    <g id="patch_4">
     <path d="M 670.279072 38.640805 
C 671.605088 38.640805 672.876972 38.113973 673.814606 37.176339 
C 674.752241 36.238704 675.279072 34.96682 675.279072 33.640805 
C 675.279072 32.314789 674.752241 31.042905 673.814606 30.105271 
C 672.876972 29.167636 671.605088 28.640805 670.279072 28.640805 
C 668.953057 28.640805 667.681173 29.167636 666.743538 30.105271 
C 665.805904 31.042905 665.279072 32.314789 665.279072 33.640805 
C 665.279072 34.96682 665.805904 36.238704 666.743538 37.176339 
C 667.681173 38.113973 668.953057 38.640805 670.279072 38.640805 
z
" style="fill:none;stroke:#000000;stroke-linejoin:miter;"/>
    </g>
    <g id="text_12">
     <!-- ST -->
     <g transform="translate(688.279072 37.140805)scale(0.1 -0.1)">
      <defs>
       <path d="M 53.515625 70.515625 
L 53.515625 60.890625 
Q 47.90625 63.578125 42.921875 64.890625 
Q 37.9375 66.21875 33.296875 66.21875 
Q 25.25 66.21875 20.875 63.09375 
Q 16.5 59.96875 16.5 54.203125 
Q 16.5 49.359375 19.40625 46.890625 
Q 22.3125 44.4375 30.421875 42.921875 
L 36.375 41.703125 
Q 47.40625 39.59375 52.65625 34.296875 
Q 57.90625 29 57.90625 20.125 
Q 57.90625 9.515625 50.796875 4.046875 
Q 43.703125 -1.421875 29.984375 -1.421875 
Q 24.8125 -1.421875 18.96875 -0.25 
Q 13.140625 0.921875 6.890625 3.21875 
L 6.890625 13.375 
Q 12.890625 10.015625 18.65625 8.296875 
Q 24.421875 6.59375 29.984375 6.59375 
Q 38.421875 6.59375 43.015625 9.90625 
Q 47.609375 13.234375 47.609375 19.390625 
Q 47.609375 24.75 44.3125 27.78125 
Q 41.015625 30.8125 33.5 32.328125 
L 27.484375 33.5 
Q 16.453125 35.6875 11.515625 40.375 
Q 6.59375 45.0625 6.59375 53.421875 
Q 6.59375 63.09375 13.40625 68.65625 
Q 20.21875 74.21875 32.171875 74.21875 
Q 37.3125 74.21875 42.625 73.28125 
Q 47.953125 72.359375 53.515625 70.515625 
z
" id="DejaVuSans-83"/>
       <path d="M -0.296875 72.90625 
L 61.375 72.90625 
L 61.375 64.59375 
L 35.5 64.59375 
L 35.5 0 
L 25.59375 0 
L 25.59375 64.59375 
L -0.296875 64.59375 
z
" id="DejaVuSans-84"/>
      </defs>
      <use xlink:href="#DejaVuSans-83"/>
      <use x="63.476562" xlink:href="#DejaVuSans-84"/>
     </g>
    </g>
    <g id="patch_5">
     <path d="M 670.279072 53.31893 
C 671.605088 53.31893 672.876972 52.792098 673.814606 51.854464 
C 674.752241 50.916829 675.279072 49.644945 675.279072 48.31893 
C 675.279072 46.992914 674.752241 45.72103 673.814606 44.783396 
C 672.876972 43.845761 671.605088 43.31893 670.279072 43.31893 
C 668.953057 43.31893 667.681173 43.845761 666.743538 44.783396 
C 665.805904 45.72103 665.279072 46.992914 665.279072 48.31893 
C 665.279072 49.644945 665.805904 50.916829 666.743538 51.854464 
C 667.681173 52.792098 668.953057 53.31893 670.279072 53.31893 
z
" style="stroke:#000000;stroke-linejoin:miter;"/>
    </g>
    <g id="text_13">
     <!-- S1 -->
     <g transform="translate(688.279072 51.81893)scale(0.1 -0.1)">
      <defs>
       <path d="M 12.40625 8.296875 
L 28.515625 8.296875 
L 28.515625 63.921875 
L 10.984375 60.40625 
L 10.984375 69.390625 
L 28.421875 72.90625 
L 38.28125 72.90625 
L 38.28125 8.296875 
L 54.390625 8.296875 
L 54.390625 0 
L 12.40625 0 
z
" id="DejaVuSans-49"/>
      </defs>
      <use xlink:href="#DejaVuSans-83"/>
      <use x="63.476562" xlink:href="#DejaVuSans-49"/>
     </g>
    </g>
    <g id="line2d_56">
     <path d="M 660.279072 62.997055 
L 680.279072 62.997055 
" style="fill:none;stroke:#a9a9a9;stroke-linecap:square;stroke-width:8;"/>
    </g>
    <g id="line2d_57"/>
    <g id="text_14">
     <!-- S2 -->
     <g transform="translate(688.279072 66.497055)scale(0.1 -0.1)">
      <defs>
       <path d="M 19.1875 8.296875 
L 53.609375 8.296875 
L 53.609375 0 
L 7.328125 0 
L 7.328125 8.296875 
Q 12.9375 14.109375 22.625 23.890625 
Q 32.328125 33.6875 34.8125 36.53125 
Q 39.546875 41.84375 41.421875 45.53125 
Q 43.3125 49.21875 43.3125 52.78125 
Q 43.3125 58.59375 39.234375 62.25 
Q 35.15625 65.921875 28.609375 65.921875 
Q 23.96875 65.921875 18.8125 64.3125 
Q 13.671875 62.703125 7.8125 59.421875 
L 7.8125 69.390625 
Q 13.765625 71.78125 18.9375 73 
Q 24.125 74.21875 28.421875 74.21875 
Q 39.75 74.21875 46.484375 68.546875 
Q 53.21875 62.890625 53.21875 53.421875 
Q 53.21875 48.921875 51.53125 44.890625 
Q 49.859375 40.875 45.40625 35.40625 
Q 44.1875 33.984375 37.640625 27.21875 
Q 31.109375 20.453125 19.1875 8.296875 
z
" id="DejaVuSans-50"/>
      </defs>
      <use xlink:href="#DejaVuSans-83"/>
      <use x="63.476562" xlink:href="#DejaVuSans-50"/>
     </g>
    </g>
   </g>
   <g id="patch_6">
    <path clip-path="url(#pe6c9689616)" d="M 592.199337 264.728306 
C 595.574924 264.728306 598.812709 263.387172 601.199609 261.000272 
C 603.586509 258.613372 604.927644 255.375586 604.927644 252 
C 604.927644 248.624414 603.586509 245.386628 601.199609 242.999728 
C 598.812709 240.612828 595.574924 239.271694 592.199337 239.271694 
C 588.823751 239.271694 585.585966 240.612828 583.199066 242.999728 
C 580.812166 245.386628 579.471031 248.624414 579.471031 252 
C 579.471031 255.375586 580.812166 258.613372 583.199066 261.000272 
C 585.585966 263.387172 588.823751 264.728306 592.199337 264.728306 
z
" style="fill:#ffffff;stroke:#000000;stroke-linejoin:miter;"/>
   </g>
   <g id="patch_7">
    <path clip-path="url(#pe6c9689616)" d="M 566.768258 194.337123 
C 574.445205 194.337123 581.808757 191.28704 587.237178 185.858619 
C 592.665599 180.430198 595.715683 173.066646 595.715683 165.389699 
C 595.715683 157.712753 592.665599 150.3492 587.237178 144.920779 
C 581.808757 139.492358 574.445205 136.442275 566.768258 136.442275 
C 559.091312 136.442275 551.72776 139.492358 546.299339 144.920779 
C 540.870918 150.3492 537.820834 157.712753 537.820834 165.389699 
C 537.820834 173.066646 540.870918 180.430198 546.299339 185.858619 
C 551.72776 191.28704 559.091312 194.337123 566.768258 194.337123 
z
" style="fill:#ffffff;stroke:#000000;stroke-linejoin:miter;"/>
   </g>
   <g id="patch_8">
    <path clip-path="url(#pe6c9689616)" d="M 498.54921 139.919418 
C 507.471136 139.919418 516.028844 136.374699 522.337598 130.065945 
C 528.646352 123.757191 532.191071 115.199483 532.191071 106.277557 
C 532.191071 97.355631 528.646352 88.797923 522.337598 82.489169 
C 516.028844 76.180415 507.471136 72.635696 498.54921 72.635696 
C 489.627284 72.635696 481.069576 76.180415 474.760822 82.489169 
C 468.452068 88.797923 464.907349 97.355631 464.907349 106.277557 
C 464.907349 115.199483 468.452068 123.757191 474.760822 130.065945 
C 481.069576 136.374699 489.627284 139.919418 498.54921 139.919418 
z
" style="fill:#ffffff;stroke:#000000;stroke-linejoin:miter;"/>
   </g>
   <g id="patch_9">
    <path clip-path="url(#pe6c9689616)" d="M 409.201257 111.485508 
C 413.989299 111.485508 418.58188 109.583198 421.967537 106.197541 
C 425.353195 102.811884 427.255504 98.219303 427.255504 93.431261 
C 427.255504 88.643219 425.353195 84.050638 421.967537 80.664981 
C 418.58188 77.279324 413.989299 75.377014 409.201257 75.377014 
C 404.413215 75.377014 399.820634 77.279324 396.434977 80.664981 
C 393.04932 84.050638 391.147011 88.643219 391.147011 93.431261 
C 391.147011 98.219303 393.04932 102.811884 396.434977 106.197541 
C 399.820634 109.583198 404.413215 111.485508 409.201257 111.485508 
z
" style="fill:#ffffff;stroke:#000000;stroke-linejoin:miter;"/>
   </g>
   <g id="patch_10">
    <path clip-path="url(#pe6c9689616)" d="M 327.091744 145.03214 
C 330.83183 145.03214 334.419234 143.546188 337.063874 140.901549 
C 339.708514 138.256909 341.194465 134.669504 341.194465 130.929419 
C 341.194465 127.189334 339.708514 123.601929 337.063874 120.957289 
C 334.419234 118.31265 330.83183 116.826698 327.091744 116.826698 
C 323.351659 116.826698 319.764254 118.31265 317.119615 120.957289 
C 314.474975 123.601929 312.989023 127.189334 312.989023 130.929419 
C 312.989023 134.669504 314.474975 138.256909 317.119615 140.901549 
C 319.764254 143.546188 323.351659 145.03214 327.091744 145.03214 
z
" style="fill:#ffffff;stroke:#000000;stroke-linejoin:miter;"/>
   </g>
   <g id="patch_11">
    <path clip-path="url(#pe6c9689616)" d="M 278.289861 218.695075 
C 281.426801 218.695075 284.435683 217.448755 286.653834 215.230604 
C 288.871986 213.012452 290.118305 210.003571 290.118305 206.866631 
C 290.118305 203.729691 288.871986 200.72081 286.653834 198.502658 
C 284.435683 196.284507 281.426801 195.038187 278.289861 195.038187 
C 275.152921 195.038187 272.14404 196.284507 269.925889 198.502658 
C 267.707737 200.72081 266.461418 203.729691 266.461418 206.866631 
C 266.461418 210.003571 267.707737 213.012452 269.925889 215.230604 
C 272.14404 217.448755 275.152921 218.695075 278.289861 218.695075 
z
" style="fill:#ffffff;stroke:#000000;stroke-linejoin:miter;"/>
   </g>
   <g id="patch_12">
    <path clip-path="url(#pe6c9689616)" d="M 278.289861 309.74387 
C 281.634205 309.74387 284.842024 308.415148 287.206832 306.05034 
C 289.571641 303.685532 290.900363 300.477713 290.900363 297.133369 
C 290.900363 293.789025 289.571641 290.581206 287.206832 288.216398 
C 284.842024 285.85159 281.634205 284.522868 278.289861 284.522868 
C 274.945517 284.522868 271.737699 285.85159 269.37289 288.216398 
C 267.008082 290.581206 265.67936 293.789025 265.67936 297.133369 
C 265.67936 300.477713 267.008082 303.685532 269.37289 306.05034 
C 271.737699 308.415148 274.945517 309.74387 278.289861 309.74387 
z
" style="fill:#ffffff;stroke:#000000;stroke-linejoin:miter;"/>
   </g>
   <g id="patch_13">
    <path clip-path="url(#pe6c9689616)" d="M 327.091744 385.97275 
C 330.513439 385.97275 333.795452 384.613296 336.214955 382.193792 
C 338.634459 379.774288 339.993913 376.492276 339.993913 373.070581 
C 339.993913 369.648886 338.634459 366.366874 336.214955 363.94737 
C 333.795452 361.527866 330.513439 360.168412 327.091744 360.168412 
C 323.670049 360.168412 320.388037 361.527866 317.968533 363.94737 
C 315.54903 366.366874 314.189576 369.648886 314.189576 373.070581 
C 314.189576 376.492276 315.54903 379.774288 317.968533 382.193792 
C 320.388037 384.613296 323.670049 385.97275 327.091744 385.97275 
z
" style="fill:#ffffff;stroke:#000000;stroke-linejoin:miter;"/>
   </g>
   <g id="patch_14">
    <path clip-path="url(#pe6c9689616)" d="M 409.201257 429.133067 
C 414.124575 429.133067 418.846908 427.177012 422.328219 423.695701 
C 425.809531 420.21439 427.765585 415.492056 427.765585 410.568739 
C 427.765585 405.645422 425.809531 400.923088 422.328219 397.441777 
C 418.846908 393.960466 414.124575 392.004411 409.201257 392.004411 
C 404.27794 392.004411 399.555606 393.960466 396.074295 397.441777 
C 392.592984 400.923088 390.636929 405.645422 390.636929 410.568739 
C 390.636929 415.492056 392.592984 420.21439 396.074295 423.695701 
C 399.555606 427.177012 404.27794 429.133067 409.201257 429.133067 
z
" style="fill:#ffffff;stroke:#000000;stroke-linejoin:miter;"/>
   </g>
   <g id="patch_15">
    <path clip-path="url(#pe6c9689616)" d="M 498.54921 411.58527 
C 502.225675 411.58527 505.752056 410.124595 508.351709 407.524942 
C 510.951362 404.925289 512.412037 401.398908 512.412037 397.722443 
C 512.412037 394.045978 510.951362 390.519597 508.351709 387.919944 
C 505.752056 385.32029 502.225675 383.859615 498.54921 383.859615 
C 494.872745 383.859615 491.346364 385.32029 488.74671 387.919944 
C 486.147057 390.519597 484.686382 394.045978 484.686382 397.722443 
C 484.686382 401.398908 486.147057 404.925289 488.74671 407.524942 
C 491.346364 410.124595 494.872745 411.58527 498.54921 411.58527 
z
" style="fill:#ffffff;stroke:#000000;stroke-linejoin:miter;"/>
   </g>
   <g id="patch_16">
    <path clip-path="url(#pe6c9689616)" d="M 566.768258 351.884078 
C 570.288505 351.884078 573.665046 350.485469 576.154236 347.996279 
C 578.643427 345.507088 580.042036 342.130548 580.042036 338.610301 
C 580.042036 335.090054 578.643427 331.713513 576.154236 329.224323 
C 573.665046 326.735132 570.288505 325.336523 566.768258 325.336523 
C 563.248012 325.336523 559.871471 326.735132 557.382281 329.224323 
C 554.89309 331.713513 553.494481 335.090054 553.494481 338.610301 
C 553.494481 342.130548 554.89309 345.507088 557.382281 347.996279 
C 559.871471 350.485469 563.248012 351.884078 566.768258 351.884078 
z
" style="fill:#ffffff;stroke:#000000;stroke-linejoin:miter;"/>
   </g>
   <g id="patch_17">
    <path clip-path="url(#pe6c9689616)" d="M 592.199337 259.12037 
C 594.087681 259.12037 595.898938 258.370123 597.234199 257.034862 
C 598.56946 255.699601 599.319707 253.888344 599.319707 252 
C 599.319707 250.111656 598.56946 248.300399 597.234199 246.965138 
C 595.898938 245.629877 594.087681 244.87963 592.199337 244.87963 
C 590.310993 244.87963 588.499737 245.629877 587.164476 246.965138 
C 585.829215 248.300399 585.078968 250.111656 585.078968 252 
C 585.078968 253.888344 585.829215 255.699601 587.164476 257.034862 
C 588.499737 258.370123 590.310993 259.12037 592.199337 259.12037 
z
"/>
   </g>
   <g id="patch_18">
    <path clip-path="url(#pe6c9689616)" d="M 566.768258 187.367879 
C 572.59694 187.367879 578.187678 185.052119 582.309178 180.930619 
C 586.430678 176.809119 588.746438 171.218381 588.746438 165.389699 
C 588.746438 159.561018 586.430678 153.97028 582.309178 149.84878 
C 578.187678 145.72728 572.59694 143.41152 566.768258 143.41152 
C 560.939577 143.41152 555.348839 145.72728 551.227339 149.84878 
C 547.105839 153.97028 544.790079 159.561018 544.790079 165.389699 
C 544.790079 171.218381 547.105839 176.809119 551.227339 180.930619 
C 555.348839 185.052119 560.939577 187.367879 566.768258 187.367879 
z
"/>
   </g>
   <g id="patch_19">
    <path clip-path="url(#pe6c9689616)" d="M 498.54921 134.723881 
C 506.093263 134.723881 513.329347 131.726597 518.663798 126.392146 
C 523.99825 121.057695 526.995534 113.82161 526.995534 106.277557 
C 526.995534 98.733504 523.99825 91.49742 518.663798 86.162968 
C 513.329347 80.828517 506.093263 77.831233 498.54921 77.831233 
C 491.005156 77.831233 483.769072 80.828517 478.434621 86.162968 
C 473.10017 91.49742 470.102886 98.733504 470.102886 106.277557 
C 470.102886 113.82161 473.10017 121.057695 478.434621 126.392146 
C 483.769072 131.726597 491.005156 134.723881 498.54921 134.723881 
z
"/>
   </g>
   <g id="patch_20">
    <path clip-path="url(#pe6c9689616)" d="M 409.201257 104.505812 
C 412.138263 104.505812 414.955371 103.338928 417.032148 101.262151 
C 419.108924 99.185375 420.275809 96.368266 420.275809 93.431261 
C 420.275809 90.494256 419.108924 87.677147 417.032148 85.600371 
C 414.955371 83.523594 412.138263 82.35671 409.201257 82.35671 
C 406.264252 82.35671 403.447143 83.523594 401.370367 85.600371 
C 399.29359 87.677147 398.126706 90.494256 398.126706 93.431261 
C 398.126706 96.368266 399.29359 99.185375 401.370367 101.262151 
C 403.447143 103.338928 406.264252 104.505812 409.201257 104.505812 
z
"/>
   </g>
   <g id="patch_21">
    <path clip-path="url(#pe6c9689616)" d="M 327.091744 139.570917 
C 329.383496 139.570917 331.581693 138.660394 333.202206 137.039881 
C 334.822719 135.419367 335.733242 133.221171 335.733242 130.929419 
C 335.733242 128.637667 334.822719 126.439471 333.202206 124.818957 
C 331.581693 123.198444 329.383496 122.287921 327.091744 122.287921 
C 324.799992 122.287921 322.601796 123.198444 320.981283 124.818957 
C 319.360769 126.439471 318.450247 128.637667 318.450247 130.929419 
C 318.450247 133.221171 319.360769 135.419367 320.981283 137.039881 
C 322.601796 138.660394 324.799992 139.570917 327.091744 139.570917 
z
"/>
   </g>
   <g id="patch_22">
    <path clip-path="url(#pe6c9689616)" d="M 278.289861 214.7297 
C 280.375172 214.7297 282.375354 213.901198 283.849891 212.426661 
C 285.324428 210.952123 286.152931 208.951941 286.152931 206.866631 
C 286.152931 204.781321 285.324428 202.781139 283.849891 201.306602 
C 282.375354 199.832065 280.375172 199.003562 278.289861 199.003562 
C 276.204551 199.003562 274.204369 199.832065 272.729832 201.306602 
C 271.255295 202.781139 270.426792 204.781321 270.426792 206.866631 
C 270.426792 208.951941 271.255295 210.952123 272.729832 212.426661 
C 274.204369 213.901198 276.204551 214.7297 278.289861 214.7297 
z
"/>
   </g>
   <g id="patch_23">
    <path clip-path="url(#pe6c9689616)" d="M 278.289861 303.413901 
C 279.955478 303.413901 281.5531 302.752145 282.730868 301.574376 
C 283.908637 300.396607 284.570394 298.798986 284.570394 297.133369 
C 284.570394 295.467752 283.908637 293.870131 282.730868 292.692362 
C 281.5531 291.514593 279.955478 290.852837 278.289861 290.852837 
C 276.624245 290.852837 275.026623 291.514593 273.848855 292.692362 
C 272.671086 293.870131 272.009329 295.467752 272.009329 297.133369 
C 272.009329 298.798986 272.671086 300.396607 273.848855 301.574376 
C 275.026623 302.752145 276.624245 303.413901 278.289861 303.413901 
z
"/>
   </g>
   <g id="patch_24">
    <path clip-path="url(#pe6c9689616)" d="M 327.091744 374.672574 
C 327.516598 374.672574 327.924108 374.503778 328.224525 374.203361 
C 328.524942 373.902945 328.693738 373.495435 328.693738 373.070581 
C 328.693738 372.645727 328.524942 372.238217 328.224525 371.937801 
C 327.924108 371.637384 327.516598 371.468588 327.091744 371.468588 
C 326.666891 371.468588 326.259381 371.637384 325.958964 371.937801 
C 325.658547 372.238217 325.489751 372.645727 325.489751 373.070581 
C 325.489751 373.495435 325.658547 373.902945 325.958964 374.203361 
C 326.259381 374.503778 326.666891 374.672574 327.091744 374.672574 
z
"/>
   </g>
   <g id="patch_25">
    <path clip-path="url(#pe6c9689616)" d="M 409.201257 424.97705 
C 413.022386 424.97705 416.687526 423.4589 419.389472 420.756954 
C 422.091418 418.055007 423.609568 414.389868 423.609568 410.568739 
C 423.609568 406.74761 422.091418 403.082471 419.389472 400.380525 
C 416.687526 397.678579 413.022386 396.160428 409.201257 396.160428 
C 405.380128 396.160428 401.714989 397.678579 399.013043 400.380525 
C 396.311097 403.082471 394.792946 406.74761 394.792946 410.568739 
C 394.792946 414.389868 396.311097 418.055007 399.013043 420.756954 
C 401.714989 423.4589 405.380128 424.97705 409.201257 424.97705 
z
"/>
   </g>
   <g id="patch_26">
    <path clip-path="url(#pe6c9689616)" d="M 498.54921 407.461809 
C 501.13212 407.461809 503.609589 406.435608 505.435982 404.609215 
C 507.262375 402.782822 508.288576 400.305353 508.288576 397.722443 
C 508.288576 395.139533 507.262375 392.662064 505.435982 390.835671 
C 503.609589 389.009277 501.13212 387.983076 498.54921 387.983076 
C 495.9663 387.983076 493.488831 389.009277 491.662438 390.835671 
C 489.836044 392.662064 488.809843 395.139533 488.809843 397.722443 
C 488.809843 400.305353 489.836044 402.782822 491.662438 404.609215 
C 493.488831 406.435608 495.9663 407.461809 498.54921 407.461809 
z
"/>
   </g>
   <g id="patch_27">
    <path clip-path="url(#pe6c9689616)" d="M 566.768258 343.698816 
C 568.117749 343.698816 569.412149 343.162658 570.366382 342.208424 
C 571.320616 341.254191 571.856774 339.959791 571.856774 338.610301 
C 571.856774 337.260811 571.320616 335.96641 570.366382 335.012177 
C 569.412149 334.057943 568.117749 333.521785 566.768258 333.521785 
C 565.418768 333.521785 564.124368 334.057943 563.170135 335.012177 
C 562.215901 335.96641 561.679743 337.260811 561.679743 338.610301 
C 561.679743 339.959791 562.215901 341.254191 563.170135 342.208424 
C 564.124368 343.162658 565.418768 343.698816 566.768258 343.698816 
z
"/>
   </g>
  </g>
 </g>
 <defs>
  <clipPath id="pe6c9689616">
   <path d="M 656.279072 252 
C 656.279072 222.547942 650.477659 193.382268 639.206844 166.172115 
C 627.93603 138.961961 611.415003 114.236497 590.589253 93.410747 
C 569.763503 72.584997 545.038039 56.06397 517.827885 44.793156 
C 490.617732 33.522341 461.452058 27.720928 432 27.720928 
C 402.547942 27.720928 373.382268 33.522341 346.172115 44.793156 
C 318.961961 56.06397 294.236497 72.584997 273.410747 93.410747 
C 252.584997 114.236497 236.06397 138.961961 224.793156 166.172115 
C 213.522341 193.382268 207.720928 222.547942 207.720928 252 
C 207.720928 281.452058 213.522341 310.617732 224.793156 337.827885 
C 236.06397 365.038039 252.584997 389.763503 273.410747 410.589253 
C 294.236497 431.415003 318.961961 447.93603 346.172115 459.206844 
C 373.382268 470.477659 402.547942 476.279072 432 476.279072 
C 461.452058 476.279072 490.617732 470.477659 517.827885 459.206844 
C 545.038039 447.93603 569.763503 431.415003 590.589253 410.589253 
C 611.415003 389.763503 627.93603 365.038039 639.206844 337.827885 
C 650.477659 310.617732 656.279072 281.452058 656.279072 252 
M 432 252 
C 432 252 432 252 432 252 
C 432 252 432 252 432 252 
C 432 252 432 252 432 252 
C 432 252 432 252 432 252 
C 432 252 432 252 432 252 
C 432 252 432 252 432 252 
C 432 252 432 252 432 252 
C 432 252 432 252 432 252 
C 432 252 432 252 432 252 
C 432 252 432 252 432 252 
C 432 252 432 252 432 252 
C 432 252 432 252 432 252 
C 432 252 432 252 432 252 
C 432 252 432 252 432 252 
C 432 252 432 252 432 252 
C 432 252 432 252 432 252 
M 656.279072 252 
z
"/>
  </clipPath>
 </defs>
</svg>
