<?xml version="1.0" encoding="utf-8" standalone="no"?>
<!DOCTYPE svg PUBLIC "-//W3C//DTD SVG 1.1//EN"
  "http://www.w3.org/Graphics/SVG/1.1/DTD/svg11.dtd">
<!-- Created with matplotlib (https://matplotlib.org/) -->
<svg height="504pt" version="1.1" viewBox="0 0 864 504" width="864pt" xmlns="http://www.w3.org/2000/svg" xmlns:xlink="http://www.w3.org/1999/xlink">
 <metadata>
  <rdf:RDF xmlns:cc="http://creativecommons.org/ns#" xmlns:dc="http://purl.org/dc/elements/1.1/" xmlns:rdf="http://www.w3.org/1999/02/22-rdf-syntax-ns#">
   <cc:Work>
    <dc:type rdf:resource="http://purl.org/dc/dcmitype/StillImage"/>
    <dc:date>2021-10-29T20:18:53.856216</dc:date>
    <dc:format>image/svg+xml</dc:format>
    <dc:creator>
     <cc:Agent>
      <dc:title>Matplotlib v3.3.0, https://matplotlib.org/</dc:title>
     </cc:Agent>
    </dc:creator>
   </cc:Work>
  </rdf:RDF>
 </metadata>
 <defs>
  <style type="text/css">*{stroke-linecap:butt;stroke-linejoin:round;}</style>
 </defs>
 <g id="figure_1">
  <g id="patch_1">
   <path d="M 0 504 
L 864 504 
L 864 0 
L 0 0 
z
" style="fill:none;"/>
  </g>
  <g id="axes_1">
   <g id="patch_2">
    <path d="M 656.279072 252 
C 656.279072 222.547942 650.477659 193.382268 639.206844 166.172115 
C 627.93603 138.961961 611.415003 114.236497 590.589253 93.410747 
C 569.763503 72.584997 545.038039 56.06397 517.827885 44.793156 
C 490.617732 33.522341 461.452058 27.720928 432 27.720928 
C 402.547942 27.720928 373.382268 33.522341 346.172115 44.793156 
C 318.961961 56.06397 294.236497 72.584997 273.410747 93.410747 
C 252.584997 114.236497 236.06397 138.961961 224.793156 166.172115 
C 213.522341 193.382268 207.720928 222.547942 207.720928 252 
C 207.720928 281.452058 213.522341 310.617732 224.793156 337.827885 
C 236.06397 365.038039 252.584997 389.763503 273.410747 410.589253 
C 294.236497 431.415003 318.961961 447.93603 346.172115 459.206844 
C 373.382268 470.477659 402.547942 476.279072 432 476.279072 
C 461.452058 476.279072 490.617732 470.477659 517.827885 459.206844 
C 545.038039 447.93603 569.763503 431.415003 590.589253 410.589253 
C 611.415003 389.763503 627.93603 365.038039 639.206844 337.827885 
C 650.477659 310.617732 656.279072 281.452058 656.279072 252 
M 432 252 
C 432 252 432 252 432 252 
C 432 252 432 252 432 252 
C 432 252 432 252 432 252 
C 432 252 432 252 432 252 
C 432 252 432 252 432 252 
C 432 252 432 252 432 252 
C 432 252 432 252 432 252 
C 432 252 432 252 432 252 
C 432 252 432 252 432 252 
C 432 252 432 252 432 252 
C 432 252 432 252 432 252 
C 432 252 432 252 432 252 
C 432 252 432 252 432 252 
C 432 252 432 252 432 252 
C 432 252 432 252 432 252 
C 432 252 432 252 432 252 
M 656.279072 252 
z
" style="fill:#ffffff;"/>
   </g>
   <g id="line2d_1">
    <path clip-path="url(#p83eec343f4)" d="M 592.199337 252 
L 566.768258 165.389699 
" style="fill:none;stroke:#a9a9a9;stroke-linecap:square;stroke-width:1.538723;"/>
   </g>
   <g id="line2d_2">
    <path clip-path="url(#p83eec343f4)" d="M 592.199337 252 
L 498.54921 106.277557 
" style="fill:none;stroke:#a9a9a9;stroke-linecap:square;stroke-width:0.5;"/>
   </g>
   <g id="line2d_3">
    <path clip-path="url(#p83eec343f4)" d="M 592.199337 252 
L 409.201257 93.431261 
" style="fill:none;stroke:#a9a9a9;stroke-linecap:square;stroke-width:0.899244;"/>
   </g>
   <g id="line2d_4">
    <path clip-path="url(#p83eec343f4)" d="M 592.199337 252 
L 327.091744 130.929419 
" style="fill:none;stroke:#a9a9a9;stroke-linecap:square;stroke-width:0.5;"/>
   </g>
   <g id="line2d_5">
    <path clip-path="url(#p83eec343f4)" d="M 592.199337 252 
L 278.289861 206.866631 
" style="fill:none;stroke:#a9a9a9;stroke-linecap:square;stroke-width:0.592391;"/>
   </g>
   <g id="line2d_6">
    <path clip-path="url(#p83eec343f4)" d="M 592.199337 252 
L 278.289861 297.133369 
" style="fill:none;stroke:#a9a9a9;stroke-linecap:square;stroke-width:0.5;"/>
   </g>
   <g id="line2d_7">
    <path clip-path="url(#p83eec343f4)" d="M 592.199337 252 
L 327.091744 373.070581 
" style="fill:none;stroke:#a9a9a9;stroke-linecap:square;stroke-width:0.696533;"/>
   </g>
   <g id="line2d_8">
    <path clip-path="url(#p83eec343f4)" d="M 592.199337 252 
L 409.201257 410.568739 
" style="fill:none;stroke:#a9a9a9;stroke-linecap:square;stroke-width:0.580375;"/>
   </g>
   <g id="line2d_9">
    <path clip-path="url(#p83eec343f4)" d="M 592.199337 252 
L 498.54921 397.722443 
" style="fill:none;stroke:#a9a9a9;stroke-linecap:square;stroke-width:0.623738;"/>
   </g>
   <g id="line2d_10">
    <path clip-path="url(#p83eec343f4)" d="M 592.199337 252 
L 566.768258 338.610301 
" style="fill:none;stroke:#a9a9a9;stroke-linecap:square;stroke-width:1.251376;"/>
   </g>
   <g id="line2d_11">
    <path clip-path="url(#p83eec343f4)" d="M 566.768258 165.389699 
L 498.54921 106.277557 
" style="fill:none;stroke:#a9a9a9;stroke-linecap:square;stroke-width:9.774142;"/>
   </g>
   <g id="line2d_12">
    <path clip-path="url(#p83eec343f4)" d="M 566.768258 165.389699 
L 409.201257 93.431261 
" style="fill:none;stroke:#a9a9a9;stroke-linecap:square;stroke-width:7.711507;"/>
   </g>
   <g id="line2d_13">
    <path clip-path="url(#p83eec343f4)" d="M 566.768258 165.389699 
L 327.091744 130.929419 
" style="fill:none;stroke:#a9a9a9;stroke-linecap:square;stroke-width:8.646868;"/>
   </g>
   <g id="line2d_14">
    <path clip-path="url(#p83eec343f4)" d="M 566.768258 165.389699 
L 278.289861 206.866631 
" style="fill:none;stroke:#a9a9a9;stroke-linecap:square;stroke-width:7.464736;"/>
   </g>
   <g id="line2d_15">
    <path clip-path="url(#p83eec343f4)" d="M 566.768258 165.389699 
L 278.289861 297.133369 
" style="fill:none;stroke:#a9a9a9;stroke-linecap:square;stroke-width:7.916482;"/>
   </g>
   <g id="line2d_16">
    <path clip-path="url(#p83eec343f4)" d="M 566.768258 165.389699 
L 327.091744 373.070581 
" style="fill:none;stroke:#a9a9a9;stroke-linecap:square;stroke-width:7.628438;"/>
   </g>
   <g id="line2d_17">
    <path clip-path="url(#p83eec343f4)" d="M 566.768258 165.389699 
L 409.201257 410.568739 
" style="fill:none;stroke:#a9a9a9;stroke-linecap:square;stroke-width:8.276102;"/>
   </g>
   <g id="line2d_18">
    <path clip-path="url(#p83eec343f4)" d="M 566.768258 165.389699 
L 498.54921 397.722443 
" style="fill:none;stroke:#a9a9a9;stroke-linecap:square;stroke-width:10.5;"/>
   </g>
   <g id="line2d_19">
    <path clip-path="url(#p83eec343f4)" d="M 566.768258 165.389699 
L 566.768258 338.610301 
" style="fill:none;stroke:#a9a9a9;stroke-linecap:square;stroke-width:7.931633;"/>
   </g>
   <g id="line2d_20">
    <path clip-path="url(#p83eec343f4)" d="M 498.54921 106.277557 
L 409.201257 93.431261 
" style="fill:none;stroke:#a9a9a9;stroke-linecap:square;stroke-width:4.226599;"/>
   </g>
   <g id="line2d_21">
    <path clip-path="url(#p83eec343f4)" d="M 498.54921 106.277557 
L 327.091744 130.929419 
" style="fill:none;stroke:#a9a9a9;stroke-linecap:square;stroke-width:1.194993;"/>
   </g>
   <g id="line2d_22">
    <path clip-path="url(#p83eec343f4)" d="M 498.54921 106.277557 
L 278.289861 206.866631 
" style="fill:none;stroke:#a9a9a9;stroke-linecap:square;stroke-width:4.16199;"/>
   </g>
   <g id="line2d_23">
    <path clip-path="url(#p83eec343f4)" d="M 498.54921 106.277557 
L 278.289861 297.133369 
" style="fill:none;stroke:#a9a9a9;stroke-linecap:square;stroke-width:2.728559;"/>
   </g>
   <g id="line2d_24">
    <path clip-path="url(#p83eec343f4)" d="M 498.54921 106.277557 
L 327.091744 373.070581 
" style="fill:none;stroke:#a9a9a9;stroke-linecap:square;stroke-width:2.682235;"/>
   </g>
   <g id="line2d_25">
    <path clip-path="url(#p83eec343f4)" d="M 498.54921 106.277557 
L 409.201257 410.568739 
" style="fill:none;stroke:#a9a9a9;stroke-linecap:square;stroke-width:0.669756;"/>
   </g>
   <g id="line2d_26">
    <path clip-path="url(#p83eec343f4)" d="M 498.54921 106.277557 
L 498.54921 397.722443 
" style="fill:none;stroke:#a9a9a9;stroke-linecap:square;stroke-width:2.045891;"/>
   </g>
   <g id="line2d_27">
    <path clip-path="url(#p83eec343f4)" d="M 498.54921 106.277557 
L 566.768258 338.610301 
" style="fill:none;stroke:#a9a9a9;stroke-linecap:square;stroke-width:0.5;"/>
   </g>
   <g id="line2d_28">
    <path clip-path="url(#p83eec343f4)" d="M 409.201257 93.431261 
L 327.091744 130.929419 
" style="fill:none;stroke:#a9a9a9;stroke-linecap:square;stroke-width:0.893685;"/>
   </g>
   <g id="line2d_29">
    <path clip-path="url(#p83eec343f4)" d="M 409.201257 93.431261 
L 278.289861 206.866631 
" style="fill:none;stroke:#a9a9a9;stroke-linecap:square;stroke-width:1.252434;"/>
   </g>
   <g id="line2d_30">
    <path clip-path="url(#p83eec343f4)" d="M 409.201257 93.431261 
L 278.289861 297.133369 
" style="fill:none;stroke:#a9a9a9;stroke-linecap:square;stroke-width:1.430067;"/>
   </g>
   <g id="line2d_31">
    <path clip-path="url(#p83eec343f4)" d="M 409.201257 93.431261 
L 327.091744 373.070581 
" style="fill:none;stroke:#a9a9a9;stroke-linecap:square;stroke-width:2.184486;"/>
   </g>
   <g id="line2d_32">
    <path clip-path="url(#p83eec343f4)" d="M 409.201257 93.431261 
L 409.201257 410.568739 
" style="fill:none;stroke:#a9a9a9;stroke-linecap:square;stroke-width:1.770705;"/>
   </g>
   <g id="line2d_33">
    <path clip-path="url(#p83eec343f4)" d="M 409.201257 93.431261 
L 498.54921 397.722443 
" style="fill:none;stroke:#a9a9a9;stroke-linecap:square;stroke-width:0.672862;"/>
   </g>
   <g id="line2d_34">
    <path clip-path="url(#p83eec343f4)" d="M 409.201257 93.431261 
L 566.768258 338.610301 
" style="fill:none;stroke:#a9a9a9;stroke-linecap:square;stroke-width:2.479496;"/>
   </g>
   <g id="line2d_35">
    <path clip-path="url(#p83eec343f4)" d="M 327.091744 130.929419 
L 278.289861 206.866631 
" style="fill:none;stroke:#a9a9a9;stroke-linecap:square;stroke-width:4.91831;"/>
   </g>
   <g id="line2d_36">
    <path clip-path="url(#p83eec343f4)" d="M 327.091744 130.929419 
L 278.289861 297.133369 
" style="fill:none;stroke:#a9a9a9;stroke-linecap:square;stroke-width:4.013426;"/>
   </g>
   <g id="line2d_37">
    <path clip-path="url(#p83eec343f4)" d="M 327.091744 130.929419 
L 327.091744 373.070581 
" style="fill:none;stroke:#a9a9a9;stroke-linecap:square;stroke-width:4.951921;"/>
   </g>
   <g id="line2d_38">
    <path clip-path="url(#p83eec343f4)" d="M 327.091744 130.929419 
L 409.201257 410.568739 
" style="fill:none;stroke:#a9a9a9;stroke-linecap:square;stroke-width:4.503136;"/>
   </g>
   <g id="line2d_39">
    <path clip-path="url(#p83eec343f4)" d="M 327.091744 130.929419 
L 498.54921 397.722443 
" style="fill:none;stroke:#a9a9a9;stroke-linecap:square;stroke-width:4.802152;"/>
   </g>
   <g id="line2d_40">
    <path clip-path="url(#p83eec343f4)" d="M 327.091744 130.929419 
L 566.768258 338.610301 
" style="fill:none;stroke:#a9a9a9;stroke-linecap:square;stroke-width:4.722391;"/>
   </g>
   <g id="line2d_41">
    <path clip-path="url(#p83eec343f4)" d="M 278.289861 206.866631 
L 278.289861 297.133369 
" style="fill:none;stroke:#a9a9a9;stroke-linecap:square;stroke-width:4.625589;"/>
   </g>
   <g id="line2d_42">
    <path clip-path="url(#p83eec343f4)" d="M 278.289861 206.866631 
L 327.091744 373.070581 
" style="fill:none;stroke:#a9a9a9;stroke-linecap:square;stroke-width:4.041141;"/>
   </g>
   <g id="line2d_43">
    <path clip-path="url(#p83eec343f4)" d="M 278.289861 206.866631 
L 409.201257 410.568739 
" style="fill:none;stroke:#a9a9a9;stroke-linecap:square;stroke-width:4.192652;"/>
   </g>
   <g id="line2d_44">
    <path clip-path="url(#p83eec343f4)" d="M 278.289861 206.866631 
L 498.54921 397.722443 
" style="fill:none;stroke:#a9a9a9;stroke-linecap:square;stroke-width:3.946752;"/>
   </g>
   <g id="line2d_45">
    <path clip-path="url(#p83eec343f4)" d="M 278.289861 206.866631 
L 566.768258 338.610301 
" style="fill:none;stroke:#a9a9a9;stroke-linecap:square;stroke-width:5.046162;"/>
   </g>
   <g id="line2d_46">
    <path clip-path="url(#p83eec343f4)" d="M 278.289861 297.133369 
L 327.091744 373.070581 
" style="fill:none;stroke:#a9a9a9;stroke-linecap:square;stroke-width:1.072053;"/>
   </g>
   <g id="line2d_47">
    <path clip-path="url(#p83eec343f4)" d="M 278.289861 297.133369 
L 409.201257 410.568739 
" style="fill:none;stroke:#a9a9a9;stroke-linecap:square;stroke-width:2.182957;"/>
   </g>
   <g id="line2d_48">
    <path clip-path="url(#p83eec343f4)" d="M 278.289861 297.133369 
L 498.54921 397.722443 
" style="fill:none;stroke:#a9a9a9;stroke-linecap:square;stroke-width:2.054782;"/>
   </g>
   <g id="line2d_49">
    <path clip-path="url(#p83eec343f4)" d="M 278.289861 297.133369 
L 566.768258 338.610301 
" style="fill:none;stroke:#a9a9a9;stroke-linecap:square;stroke-width:2.964717;"/>
   </g>
   <g id="line2d_50">
    <path clip-path="url(#p83eec343f4)" d="M 327.091744 373.070581 
L 409.201257 410.568739 
" style="fill:none;stroke:#a9a9a9;stroke-linecap:square;stroke-width:4.99821;"/>
   </g>
   <g id="line2d_51">
    <path clip-path="url(#p83eec343f4)" d="M 327.091744 373.070581 
L 498.54921 397.722443 
" style="fill:none;stroke:#a9a9a9;stroke-linecap:square;stroke-width:5.730163;"/>
   </g>
   <g id="line2d_52">
    <path clip-path="url(#p83eec343f4)" d="M 327.091744 373.070581 
L 566.768258 338.610301 
" style="fill:none;stroke:#a9a9a9;stroke-linecap:square;stroke-width:5.413384;"/>
   </g>
   <g id="line2d_53">
    <path clip-path="url(#p83eec343f4)" d="M 409.201257 410.568739 
L 498.54921 397.722443 
" style="fill:none;stroke:#a9a9a9;stroke-linecap:square;stroke-width:4.46046;"/>
   </g>
   <g id="line2d_54">
    <path clip-path="url(#p83eec343f4)" d="M 409.201257 410.568739 
L 566.768258 338.610301 
" style="fill:none;stroke:#a9a9a9;stroke-linecap:square;stroke-width:3.949155;"/>
   </g>
   <g id="line2d_55">
    <path clip-path="url(#p83eec343f4)" d="M 498.54921 397.722443 
L 566.768258 338.610301 
" style="fill:none;stroke:#a9a9a9;stroke-linecap:square;stroke-width:3.237438;"/>
   </g>
   <g id="matplotlib.axis_1">
    <g id="xtick_1">
     <g id="text_1">
      <!-- number-of-startind -->
      <g transform="translate(623.461104 254.759375)scale(0.1 -0.1)">
       <defs>
        <path d="M 54.890625 33.015625 
L 54.890625 0 
L 45.90625 0 
L 45.90625 32.71875 
Q 45.90625 40.484375 42.875 44.328125 
Q 39.84375 48.1875 33.796875 48.1875 
Q 26.515625 48.1875 22.3125 43.546875 
Q 18.109375 38.921875 18.109375 30.90625 
L 18.109375 0 
L 9.078125 0 
L 9.078125 54.6875 
L 18.109375 54.6875 
L 18.109375 46.1875 
Q 21.34375 51.125 25.703125 53.5625 
Q 30.078125 56 35.796875 56 
Q 45.21875 56 50.046875 50.171875 
Q 54.890625 44.34375 54.890625 33.015625 
z
" id="DejaVuSans-110"/>
        <path d="M 8.5 21.578125 
L 8.5 54.6875 
L 17.484375 54.6875 
L 17.484375 21.921875 
Q 17.484375 14.15625 20.5 10.265625 
Q 23.53125 6.390625 29.59375 6.390625 
Q 36.859375 6.390625 41.078125 11.03125 
Q 45.3125 15.671875 45.3125 23.6875 
L 45.3125 54.6875 
L 54.296875 54.6875 
L 54.296875 0 
L 45.3125 0 
L 45.3125 8.40625 
Q 42.046875 3.421875 37.71875 1 
Q 33.40625 -1.421875 27.6875 -1.421875 
Q 18.265625 -1.421875 13.375 4.4375 
Q 8.5 10.296875 8.5 21.578125 
z
M 31.109375 56 
z
" id="DejaVuSans-117"/>
        <path d="M 52 44.1875 
Q 55.375 50.25 60.0625 53.125 
Q 64.75 56 71.09375 56 
Q 79.640625 56 84.28125 50.015625 
Q 88.921875 44.046875 88.921875 33.015625 
L 88.921875 0 
L 79.890625 0 
L 79.890625 32.71875 
Q 79.890625 40.578125 77.09375 44.375 
Q 74.3125 48.1875 68.609375 48.1875 
Q 61.625 48.1875 57.5625 43.546875 
Q 53.515625 38.921875 53.515625 30.90625 
L 53.515625 0 
L 44.484375 0 
L 44.484375 32.71875 
Q 44.484375 40.625 41.703125 44.40625 
Q 38.921875 48.1875 33.109375 48.1875 
Q 26.21875 48.1875 22.15625 43.53125 
Q 18.109375 38.875 18.109375 30.90625 
L 18.109375 0 
L 9.078125 0 
L 9.078125 54.6875 
L 18.109375 54.6875 
L 18.109375 46.1875 
Q 21.1875 51.21875 25.484375 53.609375 
Q 29.78125 56 35.6875 56 
Q 41.65625 56 45.828125 52.96875 
Q 50 49.953125 52 44.1875 
z
" id="DejaVuSans-109"/>
        <path d="M 48.6875 27.296875 
Q 48.6875 37.203125 44.609375 42.84375 
Q 40.53125 48.484375 33.40625 48.484375 
Q 26.265625 48.484375 22.1875 42.84375 
Q 18.109375 37.203125 18.109375 27.296875 
Q 18.109375 17.390625 22.1875 11.75 
Q 26.265625 6.109375 33.40625 6.109375 
Q 40.53125 6.109375 44.609375 11.75 
Q 48.6875 17.390625 48.6875 27.296875 
z
M 18.109375 46.390625 
Q 20.953125 51.265625 25.265625 53.625 
Q 29.59375 56 35.59375 56 
Q 45.5625 56 51.78125 48.09375 
Q 58.015625 40.1875 58.015625 27.296875 
Q 58.015625 14.40625 51.78125 6.484375 
Q 45.5625 -1.421875 35.59375 -1.421875 
Q 29.59375 -1.421875 25.265625 0.953125 
Q 20.953125 3.328125 18.109375 8.203125 
L 18.109375 0 
L 9.078125 0 
L 9.078125 75.984375 
L 18.109375 75.984375 
z
" id="DejaVuSans-98"/>
        <path d="M 56.203125 29.59375 
L 56.203125 25.203125 
L 14.890625 25.203125 
Q 15.484375 15.921875 20.484375 11.0625 
Q 25.484375 6.203125 34.421875 6.203125 
Q 39.59375 6.203125 44.453125 7.46875 
Q 49.3125 8.734375 54.109375 11.28125 
L 54.109375 2.78125 
Q 49.265625 0.734375 44.1875 -0.34375 
Q 39.109375 -1.421875 33.890625 -1.421875 
Q 20.796875 -1.421875 13.15625 6.1875 
Q 5.515625 13.8125 5.515625 26.8125 
Q 5.515625 40.234375 12.765625 48.109375 
Q 20.015625 56 32.328125 56 
Q 43.359375 56 49.78125 48.890625 
Q 56.203125 41.796875 56.203125 29.59375 
z
M 47.21875 32.234375 
Q 47.125 39.59375 43.09375 43.984375 
Q 39.0625 48.390625 32.421875 48.390625 
Q 24.90625 48.390625 20.390625 44.140625 
Q 15.875 39.890625 15.1875 32.171875 
z
" id="DejaVuSans-101"/>
        <path d="M 41.109375 46.296875 
Q 39.59375 47.171875 37.8125 47.578125 
Q 36.03125 48 33.890625 48 
Q 26.265625 48 22.1875 43.046875 
Q 18.109375 38.09375 18.109375 28.8125 
L 18.109375 0 
L 9.078125 0 
L 9.078125 54.6875 
L 18.109375 54.6875 
L 18.109375 46.1875 
Q 20.953125 51.171875 25.484375 53.578125 
Q 30.03125 56 36.53125 56 
Q 37.453125 56 38.578125 55.875 
Q 39.703125 55.765625 41.0625 55.515625 
z
" id="DejaVuSans-114"/>
        <path d="M 4.890625 31.390625 
L 31.203125 31.390625 
L 31.203125 23.390625 
L 4.890625 23.390625 
z
" id="DejaVuSans-45"/>
        <path d="M 30.609375 48.390625 
Q 23.390625 48.390625 19.1875 42.75 
Q 14.984375 37.109375 14.984375 27.296875 
Q 14.984375 17.484375 19.15625 11.84375 
Q 23.34375 6.203125 30.609375 6.203125 
Q 37.796875 6.203125 41.984375 11.859375 
Q 46.1875 17.53125 46.1875 27.296875 
Q 46.1875 37.015625 41.984375 42.703125 
Q 37.796875 48.390625 30.609375 48.390625 
z
M 30.609375 56 
Q 42.328125 56 49.015625 48.375 
Q 55.71875 40.765625 55.71875 27.296875 
Q 55.71875 13.875 49.015625 6.21875 
Q 42.328125 -1.421875 30.609375 -1.421875 
Q 18.84375 -1.421875 12.171875 6.21875 
Q 5.515625 13.875 5.515625 27.296875 
Q 5.515625 40.765625 12.171875 48.375 
Q 18.84375 56 30.609375 56 
z
" id="DejaVuSans-111"/>
        <path d="M 37.109375 75.984375 
L 37.109375 68.5 
L 28.515625 68.5 
Q 23.6875 68.5 21.796875 66.546875 
Q 19.921875 64.59375 19.921875 59.515625 
L 19.921875 54.6875 
L 34.71875 54.6875 
L 34.71875 47.703125 
L 19.921875 47.703125 
L 19.921875 0 
L 10.890625 0 
L 10.890625 47.703125 
L 2.296875 47.703125 
L 2.296875 54.6875 
L 10.890625 54.6875 
L 10.890625 58.5 
Q 10.890625 67.625 15.140625 71.796875 
Q 19.390625 75.984375 28.609375 75.984375 
z
" id="DejaVuSans-102"/>
        <path d="M 44.28125 53.078125 
L 44.28125 44.578125 
Q 40.484375 46.53125 36.375 47.5 
Q 32.28125 48.484375 27.875 48.484375 
Q 21.1875 48.484375 17.84375 46.4375 
Q 14.5 44.390625 14.5 40.28125 
Q 14.5 37.15625 16.890625 35.375 
Q 19.28125 33.59375 26.515625 31.984375 
L 29.59375 31.296875 
Q 39.15625 29.25 43.1875 25.515625 
Q 47.21875 21.78125 47.21875 15.09375 
Q 47.21875 7.46875 41.1875 3.015625 
Q 35.15625 -1.421875 24.609375 -1.421875 
Q 20.21875 -1.421875 15.453125 -0.5625 
Q 10.6875 0.296875 5.421875 2 
L 5.421875 11.28125 
Q 10.40625 8.6875 15.234375 7.390625 
Q 20.0625 6.109375 24.8125 6.109375 
Q 31.15625 6.109375 34.5625 8.28125 
Q 37.984375 10.453125 37.984375 14.40625 
Q 37.984375 18.0625 35.515625 20.015625 
Q 33.0625 21.96875 24.703125 23.78125 
L 21.578125 24.515625 
Q 13.234375 26.265625 9.515625 29.90625 
Q 5.8125 33.546875 5.8125 39.890625 
Q 5.8125 47.609375 11.28125 51.796875 
Q 16.75 56 26.8125 56 
Q 31.78125 56 36.171875 55.265625 
Q 40.578125 54.546875 44.28125 53.078125 
z
" id="DejaVuSans-115"/>
        <path d="M 18.3125 70.21875 
L 18.3125 54.6875 
L 36.8125 54.6875 
L 36.8125 47.703125 
L 18.3125 47.703125 
L 18.3125 18.015625 
Q 18.3125 11.328125 20.140625 9.421875 
Q 21.96875 7.515625 27.59375 7.515625 
L 36.8125 7.515625 
L 36.8125 0 
L 27.59375 0 
Q 17.1875 0 13.234375 3.875 
Q 9.28125 7.765625 9.28125 18.015625 
L 9.28125 47.703125 
L 2.6875 47.703125 
L 2.6875 54.6875 
L 9.28125 54.6875 
L 9.28125 70.21875 
z
" id="DejaVuSans-116"/>
        <path d="M 34.28125 27.484375 
Q 23.390625 27.484375 19.1875 25 
Q 14.984375 22.515625 14.984375 16.5 
Q 14.984375 11.71875 18.140625 8.90625 
Q 21.296875 6.109375 26.703125 6.109375 
Q 34.1875 6.109375 38.703125 11.40625 
Q 43.21875 16.703125 43.21875 25.484375 
L 43.21875 27.484375 
z
M 52.203125 31.203125 
L 52.203125 0 
L 43.21875 0 
L 43.21875 8.296875 
Q 40.140625 3.328125 35.546875 0.953125 
Q 30.953125 -1.421875 24.3125 -1.421875 
Q 15.921875 -1.421875 10.953125 3.296875 
Q 6 8.015625 6 15.921875 
Q 6 25.140625 12.171875 29.828125 
Q 18.359375 34.515625 30.609375 34.515625 
L 43.21875 34.515625 
L 43.21875 35.40625 
Q 43.21875 41.609375 39.140625 45 
Q 35.0625 48.390625 27.6875 48.390625 
Q 23 48.390625 18.546875 47.265625 
Q 14.109375 46.140625 10.015625 43.890625 
L 10.015625 52.203125 
Q 14.9375 54.109375 19.578125 55.046875 
Q 24.21875 56 28.609375 56 
Q 40.484375 56 46.34375 49.84375 
Q 52.203125 43.703125 52.203125 31.203125 
z
" id="DejaVuSans-97"/>
        <path d="M 9.421875 54.6875 
L 18.40625 54.6875 
L 18.40625 0 
L 9.421875 0 
z
M 9.421875 75.984375 
L 18.40625 75.984375 
L 18.40625 64.59375 
L 9.421875 64.59375 
z
" id="DejaVuSans-105"/>
        <path d="M 45.40625 46.390625 
L 45.40625 75.984375 
L 54.390625 75.984375 
L 54.390625 0 
L 45.40625 0 
L 45.40625 8.203125 
Q 42.578125 3.328125 38.25 0.953125 
Q 33.9375 -1.421875 27.875 -1.421875 
Q 17.96875 -1.421875 11.734375 6.484375 
Q 5.515625 14.40625 5.515625 27.296875 
Q 5.515625 40.1875 11.734375 48.09375 
Q 17.96875 56 27.875 56 
Q 33.9375 56 38.25 53.625 
Q 42.578125 51.265625 45.40625 46.390625 
z
M 14.796875 27.296875 
Q 14.796875 17.390625 18.875 11.75 
Q 22.953125 6.109375 30.078125 6.109375 
Q 37.203125 6.109375 41.296875 11.75 
Q 45.40625 17.390625 45.40625 27.296875 
Q 45.40625 37.203125 41.296875 42.84375 
Q 37.203125 48.484375 30.078125 48.484375 
Q 22.953125 48.484375 18.875 42.84375 
Q 14.796875 37.203125 14.796875 27.296875 
z
" id="DejaVuSans-100"/>
       </defs>
       <use xlink:href="#DejaVuSans-110"/>
       <use x="63.378906" xlink:href="#DejaVuSans-117"/>
       <use x="126.757812" xlink:href="#DejaVuSans-109"/>
       <use x="224.169922" xlink:href="#DejaVuSans-98"/>
       <use x="287.646484" xlink:href="#DejaVuSans-101"/>
       <use x="349.169922" xlink:href="#DejaVuSans-114"/>
       <use x="383.908203" xlink:href="#DejaVuSans-45"/>
       <use x="421.867188" xlink:href="#DejaVuSans-111"/>
       <use x="483.048828" xlink:href="#DejaVuSans-102"/>
       <use x="512.753906" xlink:href="#DejaVuSans-45"/>
       <use x="548.837891" xlink:href="#DejaVuSans-115"/>
       <use x="600.9375" xlink:href="#DejaVuSans-116"/>
       <use x="640.146484" xlink:href="#DejaVuSans-97"/>
       <use x="701.425781" xlink:href="#DejaVuSans-114"/>
       <use x="742.539062" xlink:href="#DejaVuSans-116"/>
       <use x="781.748047" xlink:href="#DejaVuSans-105"/>
       <use x="809.53125" xlink:href="#DejaVuSans-110"/>
       <use x="872.910156" xlink:href="#DejaVuSans-100"/>
      </g>
     </g>
    </g>
    <g id="xtick_2">
     <g id="text_2">
      <!-- capacity -->
      <g transform="translate(611.343736 125.935983)scale(0.1 -0.1)">
       <defs>
        <path d="M 48.78125 52.59375 
L 48.78125 44.1875 
Q 44.96875 46.296875 41.140625 47.34375 
Q 37.3125 48.390625 33.40625 48.390625 
Q 24.65625 48.390625 19.8125 42.84375 
Q 14.984375 37.3125 14.984375 27.296875 
Q 14.984375 17.28125 19.8125 11.734375 
Q 24.65625 6.203125 33.40625 6.203125 
Q 37.3125 6.203125 41.140625 7.25 
Q 44.96875 8.296875 48.78125 10.40625 
L 48.78125 2.09375 
Q 45.015625 0.34375 40.984375 -0.53125 
Q 36.96875 -1.421875 32.421875 -1.421875 
Q 20.0625 -1.421875 12.78125 6.34375 
Q 5.515625 14.109375 5.515625 27.296875 
Q 5.515625 40.671875 12.859375 48.328125 
Q 20.21875 56 33.015625 56 
Q 37.15625 56 41.109375 55.140625 
Q 45.0625 54.296875 48.78125 52.59375 
z
" id="DejaVuSans-99"/>
        <path d="M 18.109375 8.203125 
L 18.109375 -20.796875 
L 9.078125 -20.796875 
L 9.078125 54.6875 
L 18.109375 54.6875 
L 18.109375 46.390625 
Q 20.953125 51.265625 25.265625 53.625 
Q 29.59375 56 35.59375 56 
Q 45.5625 56 51.78125 48.09375 
Q 58.015625 40.1875 58.015625 27.296875 
Q 58.015625 14.40625 51.78125 6.484375 
Q 45.5625 -1.421875 35.59375 -1.421875 
Q 29.59375 -1.421875 25.265625 0.953125 
Q 20.953125 3.328125 18.109375 8.203125 
z
M 48.6875 27.296875 
Q 48.6875 37.203125 44.609375 42.84375 
Q 40.53125 48.484375 33.40625 48.484375 
Q 26.265625 48.484375 22.1875 42.84375 
Q 18.109375 37.203125 18.109375 27.296875 
Q 18.109375 17.390625 22.1875 11.75 
Q 26.265625 6.109375 33.40625 6.109375 
Q 40.53125 6.109375 44.609375 11.75 
Q 48.6875 17.390625 48.6875 27.296875 
z
" id="DejaVuSans-112"/>
        <path d="M 32.171875 -5.078125 
Q 28.375 -14.84375 24.75 -17.8125 
Q 21.140625 -20.796875 15.09375 -20.796875 
L 7.90625 -20.796875 
L 7.90625 -13.28125 
L 13.1875 -13.28125 
Q 16.890625 -13.28125 18.9375 -11.515625 
Q 21 -9.765625 23.484375 -3.21875 
L 25.09375 0.875 
L 2.984375 54.6875 
L 12.5 54.6875 
L 29.59375 11.921875 
L 46.6875 54.6875 
L 56.203125 54.6875 
z
" id="DejaVuSans-121"/>
       </defs>
       <use xlink:href="#DejaVuSans-99"/>
       <use x="54.980469" xlink:href="#DejaVuSans-97"/>
       <use x="116.259766" xlink:href="#DejaVuSans-112"/>
       <use x="179.736328" xlink:href="#DejaVuSans-97"/>
       <use x="241.015625" xlink:href="#DejaVuSans-99"/>
       <use x="295.996094" xlink:href="#DejaVuSans-105"/>
       <use x="323.779297" xlink:href="#DejaVuSans-116"/>
       <use x="362.988281" xlink:href="#DejaVuSans-121"/>
      </g>
     </g>
    </g>
    <g id="xtick_3">
     <g id="text_3">
      <!-- mean-juvenile-mortality-prob -->
      <g transform="translate(457.805798 38.013107)scale(0.1 -0.1)">
       <defs>
        <path d="M 9.421875 54.6875 
L 18.40625 54.6875 
L 18.40625 -0.984375 
Q 18.40625 -11.421875 14.421875 -16.109375 
Q 10.453125 -20.796875 1.609375 -20.796875 
L -1.8125 -20.796875 
L -1.8125 -13.1875 
L 0.59375 -13.1875 
Q 5.71875 -13.1875 7.5625 -10.8125 
Q 9.421875 -8.453125 9.421875 -0.984375 
z
M 9.421875 75.984375 
L 18.40625 75.984375 
L 18.40625 64.59375 
L 9.421875 64.59375 
z
" id="DejaVuSans-106"/>
        <path d="M 2.984375 54.6875 
L 12.5 54.6875 
L 29.59375 8.796875 
L 46.6875 54.6875 
L 56.203125 54.6875 
L 35.6875 0 
L 23.484375 0 
z
" id="DejaVuSans-118"/>
        <path d="M 9.421875 75.984375 
L 18.40625 75.984375 
L 18.40625 0 
L 9.421875 0 
z
" id="DejaVuSans-108"/>
       </defs>
       <use xlink:href="#DejaVuSans-109"/>
       <use x="97.412109" xlink:href="#DejaVuSans-101"/>
       <use x="158.935547" xlink:href="#DejaVuSans-97"/>
       <use x="220.214844" xlink:href="#DejaVuSans-110"/>
       <use x="283.59375" xlink:href="#DejaVuSans-45"/>
       <use x="319.677734" xlink:href="#DejaVuSans-106"/>
       <use x="347.460938" xlink:href="#DejaVuSans-117"/>
       <use x="410.839844" xlink:href="#DejaVuSans-118"/>
       <use x="470.019531" xlink:href="#DejaVuSans-101"/>
       <use x="531.542969" xlink:href="#DejaVuSans-110"/>
       <use x="594.921875" xlink:href="#DejaVuSans-105"/>
       <use x="622.705078" xlink:href="#DejaVuSans-108"/>
       <use x="650.488281" xlink:href="#DejaVuSans-101"/>
       <use x="712.011719" xlink:href="#DejaVuSans-45"/>
       <use x="748.095703" xlink:href="#DejaVuSans-109"/>
       <use x="845.507812" xlink:href="#DejaVuSans-111"/>
       <use x="906.689453" xlink:href="#DejaVuSans-114"/>
       <use x="947.802734" xlink:href="#DejaVuSans-116"/>
       <use x="987.011719" xlink:href="#DejaVuSans-97"/>
       <use x="1048.291016" xlink:href="#DejaVuSans-108"/>
       <use x="1076.074219" xlink:href="#DejaVuSans-105"/>
       <use x="1103.857422" xlink:href="#DejaVuSans-116"/>
       <use x="1143.066406" xlink:href="#DejaVuSans-121"/>
       <use x="1200.496094" xlink:href="#DejaVuSans-45"/>
       <use x="1236.580078" xlink:href="#DejaVuSans-112"/>
       <use x="1300.056641" xlink:href="#DejaVuSans-114"/>
       <use x="1338.919922" xlink:href="#DejaVuSans-111"/>
       <use x="1400.101562" xlink:href="#DejaVuSans-98"/>
      </g>
     </g>
    </g>
    <g id="xtick_4">
     <g id="text_4">
      <!-- mean-adult-mortality-prob -->
      <g transform="translate(331.771384 18.90564)scale(0.1 -0.1)">
       <use xlink:href="#DejaVuSans-109"/>
       <use x="97.412109" xlink:href="#DejaVuSans-101"/>
       <use x="158.935547" xlink:href="#DejaVuSans-97"/>
       <use x="220.214844" xlink:href="#DejaVuSans-110"/>
       <use x="283.59375" xlink:href="#DejaVuSans-45"/>
       <use x="319.677734" xlink:href="#DejaVuSans-97"/>
       <use x="380.957031" xlink:href="#DejaVuSans-100"/>
       <use x="444.433594" xlink:href="#DejaVuSans-117"/>
       <use x="507.8125" xlink:href="#DejaVuSans-108"/>
       <use x="535.595703" xlink:href="#DejaVuSans-116"/>
       <use x="574.804688" xlink:href="#DejaVuSans-45"/>
       <use x="610.888672" xlink:href="#DejaVuSans-109"/>
       <use x="708.300781" xlink:href="#DejaVuSans-111"/>
       <use x="769.482422" xlink:href="#DejaVuSans-114"/>
       <use x="810.595703" xlink:href="#DejaVuSans-116"/>
       <use x="849.804688" xlink:href="#DejaVuSans-97"/>
       <use x="911.083984" xlink:href="#DejaVuSans-108"/>
       <use x="938.867188" xlink:href="#DejaVuSans-105"/>
       <use x="966.650391" xlink:href="#DejaVuSans-116"/>
       <use x="1005.859375" xlink:href="#DejaVuSans-121"/>
       <use x="1063.289062" xlink:href="#DejaVuSans-45"/>
       <use x="1099.373047" xlink:href="#DejaVuSans-112"/>
       <use x="1162.849609" xlink:href="#DejaVuSans-114"/>
       <use x="1201.712891" xlink:href="#DejaVuSans-111"/>
       <use x="1262.894531" xlink:href="#DejaVuSans-98"/>
      </g>
     </g>
    </g>
    <g id="xtick_5">
     <g id="text_5">
      <!-- cropland-movement-cost -->
      <g transform="translate(213.215861 74.680068)scale(0.1 -0.1)">
       <use xlink:href="#DejaVuSans-99"/>
       <use x="54.980469" xlink:href="#DejaVuSans-114"/>
       <use x="93.84375" xlink:href="#DejaVuSans-111"/>
       <use x="155.025391" xlink:href="#DejaVuSans-112"/>
       <use x="218.501953" xlink:href="#DejaVuSans-108"/>
       <use x="246.285156" xlink:href="#DejaVuSans-97"/>
       <use x="307.564453" xlink:href="#DejaVuSans-110"/>
       <use x="370.943359" xlink:href="#DejaVuSans-100"/>
       <use x="434.419922" xlink:href="#DejaVuSans-45"/>
       <use x="470.503906" xlink:href="#DejaVuSans-109"/>
       <use x="567.916016" xlink:href="#DejaVuSans-111"/>
       <use x="629.097656" xlink:href="#DejaVuSans-118"/>
       <use x="688.277344" xlink:href="#DejaVuSans-101"/>
       <use x="749.800781" xlink:href="#DejaVuSans-109"/>
       <use x="847.212891" xlink:href="#DejaVuSans-101"/>
       <use x="908.736328" xlink:href="#DejaVuSans-110"/>
       <use x="972.115234" xlink:href="#DejaVuSans-116"/>
       <use x="1011.324219" xlink:href="#DejaVuSans-45"/>
       <use x="1047.408203" xlink:href="#DejaVuSans-99"/>
       <use x="1102.388672" xlink:href="#DejaVuSans-111"/>
       <use x="1163.570312" xlink:href="#DejaVuSans-115"/>
       <use x="1215.669922" xlink:href="#DejaVuSans-116"/>
      </g>
     </g>
    </g>
    <g id="xtick_6">
     <g id="text_6">
      <!-- woodland-movement-cost -->
      <g transform="translate(138.172123 187.628403)scale(0.1 -0.1)">
       <defs>
        <path d="M 4.203125 54.6875 
L 13.1875 54.6875 
L 24.421875 12.015625 
L 35.59375 54.6875 
L 46.1875 54.6875 
L 57.421875 12.015625 
L 68.609375 54.6875 
L 77.59375 54.6875 
L 63.28125 0 
L 52.6875 0 
L 40.921875 44.828125 
L 29.109375 0 
L 18.5 0 
z
" id="DejaVuSans-119"/>
       </defs>
       <use xlink:href="#DejaVuSans-119"/>
       <use x="81.787109" xlink:href="#DejaVuSans-111"/>
       <use x="142.96875" xlink:href="#DejaVuSans-111"/>
       <use x="204.150391" xlink:href="#DejaVuSans-100"/>
       <use x="267.626953" xlink:href="#DejaVuSans-108"/>
       <use x="295.410156" xlink:href="#DejaVuSans-97"/>
       <use x="356.689453" xlink:href="#DejaVuSans-110"/>
       <use x="420.068359" xlink:href="#DejaVuSans-100"/>
       <use x="483.544922" xlink:href="#DejaVuSans-45"/>
       <use x="519.628906" xlink:href="#DejaVuSans-109"/>
       <use x="617.041016" xlink:href="#DejaVuSans-111"/>
       <use x="678.222656" xlink:href="#DejaVuSans-118"/>
       <use x="737.402344" xlink:href="#DejaVuSans-101"/>
       <use x="798.925781" xlink:href="#DejaVuSans-109"/>
       <use x="896.337891" xlink:href="#DejaVuSans-101"/>
       <use x="957.861328" xlink:href="#DejaVuSans-110"/>
       <use x="1021.240234" xlink:href="#DejaVuSans-116"/>
       <use x="1060.449219" xlink:href="#DejaVuSans-45"/>
       <use x="1096.533203" xlink:href="#DejaVuSans-99"/>
       <use x="1151.513672" xlink:href="#DejaVuSans-111"/>
       <use x="1212.695312" xlink:href="#DejaVuSans-115"/>
       <use x="1264.794922" xlink:href="#DejaVuSans-116"/>
      </g>
     </g>
    </g>
    <g id="xtick_7">
     <g id="text_7">
      <!-- angle-for-viewing-ponds-and-woodland -->
      <g transform="translate(106.043217 321.890347)scale(0.1 -0.1)">
       <defs>
        <path d="M 45.40625 27.984375 
Q 45.40625 37.75 41.375 43.109375 
Q 37.359375 48.484375 30.078125 48.484375 
Q 22.859375 48.484375 18.828125 43.109375 
Q 14.796875 37.75 14.796875 27.984375 
Q 14.796875 18.265625 18.828125 12.890625 
Q 22.859375 7.515625 30.078125 7.515625 
Q 37.359375 7.515625 41.375 12.890625 
Q 45.40625 18.265625 45.40625 27.984375 
z
M 54.390625 6.78125 
Q 54.390625 -7.171875 48.1875 -13.984375 
Q 42 -20.796875 29.203125 -20.796875 
Q 24.46875 -20.796875 20.265625 -20.09375 
Q 16.0625 -19.390625 12.109375 -17.921875 
L 12.109375 -9.1875 
Q 16.0625 -11.328125 19.921875 -12.34375 
Q 23.78125 -13.375 27.78125 -13.375 
Q 36.625 -13.375 41.015625 -8.765625 
Q 45.40625 -4.15625 45.40625 5.171875 
L 45.40625 9.625 
Q 42.625 4.78125 38.28125 2.390625 
Q 33.9375 0 27.875 0 
Q 17.828125 0 11.671875 7.65625 
Q 5.515625 15.328125 5.515625 27.984375 
Q 5.515625 40.671875 11.671875 48.328125 
Q 17.828125 56 27.875 56 
Q 33.9375 56 38.28125 53.609375 
Q 42.625 51.21875 45.40625 46.390625 
L 45.40625 54.6875 
L 54.390625 54.6875 
z
" id="DejaVuSans-103"/>
       </defs>
       <use xlink:href="#DejaVuSans-97"/>
       <use x="61.279297" xlink:href="#DejaVuSans-110"/>
       <use x="124.658203" xlink:href="#DejaVuSans-103"/>
       <use x="188.134766" xlink:href="#DejaVuSans-108"/>
       <use x="215.917969" xlink:href="#DejaVuSans-101"/>
       <use x="277.441406" xlink:href="#DejaVuSans-45"/>
       <use x="313.525391" xlink:href="#DejaVuSans-102"/>
       <use x="348.730469" xlink:href="#DejaVuSans-111"/>
       <use x="409.912109" xlink:href="#DejaVuSans-114"/>
       <use x="444.650391" xlink:href="#DejaVuSans-45"/>
       <use x="478.109375" xlink:href="#DejaVuSans-118"/>
       <use x="537.289062" xlink:href="#DejaVuSans-105"/>
       <use x="565.072266" xlink:href="#DejaVuSans-101"/>
       <use x="626.595703" xlink:href="#DejaVuSans-119"/>
       <use x="708.382812" xlink:href="#DejaVuSans-105"/>
       <use x="736.166016" xlink:href="#DejaVuSans-110"/>
       <use x="799.544922" xlink:href="#DejaVuSans-103"/>
       <use x="863.021484" xlink:href="#DejaVuSans-45"/>
       <use x="899.105469" xlink:href="#DejaVuSans-112"/>
       <use x="962.582031" xlink:href="#DejaVuSans-111"/>
       <use x="1023.763672" xlink:href="#DejaVuSans-110"/>
       <use x="1087.142578" xlink:href="#DejaVuSans-100"/>
       <use x="1150.619141" xlink:href="#DejaVuSans-115"/>
       <use x="1202.71875" xlink:href="#DejaVuSans-45"/>
       <use x="1238.802734" xlink:href="#DejaVuSans-97"/>
       <use x="1300.082031" xlink:href="#DejaVuSans-110"/>
       <use x="1363.460938" xlink:href="#DejaVuSans-100"/>
       <use x="1426.9375" xlink:href="#DejaVuSans-45"/>
       <use x="1463.021484" xlink:href="#DejaVuSans-119"/>
       <use x="1544.808594" xlink:href="#DejaVuSans-111"/>
       <use x="1605.990234" xlink:href="#DejaVuSans-111"/>
       <use x="1667.171875" xlink:href="#DejaVuSans-100"/>
       <use x="1730.648438" xlink:href="#DejaVuSans-108"/>
       <use x="1758.431641" xlink:href="#DejaVuSans-97"/>
       <use x="1819.710938" xlink:href="#DejaVuSans-110"/>
       <use x="1883.089844" xlink:href="#DejaVuSans-100"/>
      </g>
     </g>
    </g>
    <g id="xtick_8">
     <g id="text_8">
      <!-- mortality-decrease-with-buffer -->
      <g transform="translate(199.561954 434.838682)scale(0.1 -0.1)">
       <defs>
        <path d="M 54.890625 33.015625 
L 54.890625 0 
L 45.90625 0 
L 45.90625 32.71875 
Q 45.90625 40.484375 42.875 44.328125 
Q 39.84375 48.1875 33.796875 48.1875 
Q 26.515625 48.1875 22.3125 43.546875 
Q 18.109375 38.921875 18.109375 30.90625 
L 18.109375 0 
L 9.078125 0 
L 9.078125 75.984375 
L 18.109375 75.984375 
L 18.109375 46.1875 
Q 21.34375 51.125 25.703125 53.5625 
Q 30.078125 56 35.796875 56 
Q 45.21875 56 50.046875 50.171875 
Q 54.890625 44.34375 54.890625 33.015625 
z
" id="DejaVuSans-104"/>
       </defs>
       <use xlink:href="#DejaVuSans-109"/>
       <use x="97.412109" xlink:href="#DejaVuSans-111"/>
       <use x="158.59375" xlink:href="#DejaVuSans-114"/>
       <use x="199.707031" xlink:href="#DejaVuSans-116"/>
       <use x="238.916016" xlink:href="#DejaVuSans-97"/>
       <use x="300.195312" xlink:href="#DejaVuSans-108"/>
       <use x="327.978516" xlink:href="#DejaVuSans-105"/>
       <use x="355.761719" xlink:href="#DejaVuSans-116"/>
       <use x="394.970703" xlink:href="#DejaVuSans-121"/>
       <use x="452.400391" xlink:href="#DejaVuSans-45"/>
       <use x="488.484375" xlink:href="#DejaVuSans-100"/>
       <use x="551.960938" xlink:href="#DejaVuSans-101"/>
       <use x="613.484375" xlink:href="#DejaVuSans-99"/>
       <use x="668.464844" xlink:href="#DejaVuSans-114"/>
       <use x="707.328125" xlink:href="#DejaVuSans-101"/>
       <use x="768.851562" xlink:href="#DejaVuSans-97"/>
       <use x="830.130859" xlink:href="#DejaVuSans-115"/>
       <use x="882.230469" xlink:href="#DejaVuSans-101"/>
       <use x="943.753906" xlink:href="#DejaVuSans-45"/>
       <use x="979.837891" xlink:href="#DejaVuSans-119"/>
       <use x="1061.625" xlink:href="#DejaVuSans-105"/>
       <use x="1089.408203" xlink:href="#DejaVuSans-116"/>
       <use x="1128.617188" xlink:href="#DejaVuSans-104"/>
       <use x="1191.996094" xlink:href="#DejaVuSans-45"/>
       <use x="1228.080078" xlink:href="#DejaVuSans-98"/>
       <use x="1291.556641" xlink:href="#DejaVuSans-117"/>
       <use x="1354.935547" xlink:href="#DejaVuSans-102"/>
       <use x="1390.140625" xlink:href="#DejaVuSans-102"/>
       <use x="1425.345703" xlink:href="#DejaVuSans-101"/>
       <use x="1486.869141" xlink:href="#DejaVuSans-114"/>
      </g>
     </g>
    </g>
    <g id="xtick_9">
     <g id="text_9">
      <!-- distance-for-viewing-ponds-and-woodland -->
      <g transform="translate(293.445602 490.61311)scale(0.1 -0.1)">
       <use xlink:href="#DejaVuSans-100"/>
       <use x="63.476562" xlink:href="#DejaVuSans-105"/>
       <use x="91.259766" xlink:href="#DejaVuSans-115"/>
       <use x="143.359375" xlink:href="#DejaVuSans-116"/>
       <use x="182.568359" xlink:href="#DejaVuSans-97"/>
       <use x="243.847656" xlink:href="#DejaVuSans-110"/>
       <use x="307.226562" xlink:href="#DejaVuSans-99"/>
       <use x="362.207031" xlink:href="#DejaVuSans-101"/>
       <use x="423.730469" xlink:href="#DejaVuSans-45"/>
       <use x="459.814453" xlink:href="#DejaVuSans-102"/>
       <use x="495.019531" xlink:href="#DejaVuSans-111"/>
       <use x="556.201172" xlink:href="#DejaVuSans-114"/>
       <use x="590.939453" xlink:href="#DejaVuSans-45"/>
       <use x="624.398438" xlink:href="#DejaVuSans-118"/>
       <use x="683.578125" xlink:href="#DejaVuSans-105"/>
       <use x="711.361328" xlink:href="#DejaVuSans-101"/>
       <use x="772.884766" xlink:href="#DejaVuSans-119"/>
       <use x="854.671875" xlink:href="#DejaVuSans-105"/>
       <use x="882.455078" xlink:href="#DejaVuSans-110"/>
       <use x="945.833984" xlink:href="#DejaVuSans-103"/>
       <use x="1009.310547" xlink:href="#DejaVuSans-45"/>
       <use x="1045.394531" xlink:href="#DejaVuSans-112"/>
       <use x="1108.871094" xlink:href="#DejaVuSans-111"/>
       <use x="1170.052734" xlink:href="#DejaVuSans-110"/>
       <use x="1233.431641" xlink:href="#DejaVuSans-100"/>
       <use x="1296.908203" xlink:href="#DejaVuSans-115"/>
       <use x="1349.007812" xlink:href="#DejaVuSans-45"/>
       <use x="1385.091797" xlink:href="#DejaVuSans-97"/>
       <use x="1446.371094" xlink:href="#DejaVuSans-110"/>
       <use x="1509.75" xlink:href="#DejaVuSans-100"/>
       <use x="1573.226562" xlink:href="#DejaVuSans-45"/>
       <use x="1609.310547" xlink:href="#DejaVuSans-119"/>
       <use x="1691.097656" xlink:href="#DejaVuSans-111"/>
       <use x="1752.279297" xlink:href="#DejaVuSans-111"/>
       <use x="1813.460938" xlink:href="#DejaVuSans-100"/>
       <use x="1876.9375" xlink:href="#DejaVuSans-108"/>
       <use x="1904.720703" xlink:href="#DejaVuSans-97"/>
       <use x="1966" xlink:href="#DejaVuSans-110"/>
       <use x="2029.378906" xlink:href="#DejaVuSans-100"/>
      </g>
     </g>
    </g>
    <g id="xtick_10">
     <g id="text_10">
      <!-- movement-energy -->
      <g transform="translate(484.715954 471.505643)scale(0.1 -0.1)">
       <use xlink:href="#DejaVuSans-109"/>
       <use x="97.412109" xlink:href="#DejaVuSans-111"/>
       <use x="158.59375" xlink:href="#DejaVuSans-118"/>
       <use x="217.773438" xlink:href="#DejaVuSans-101"/>
       <use x="279.296875" xlink:href="#DejaVuSans-109"/>
       <use x="376.708984" xlink:href="#DejaVuSans-101"/>
       <use x="438.232422" xlink:href="#DejaVuSans-110"/>
       <use x="501.611328" xlink:href="#DejaVuSans-116"/>
       <use x="540.820312" xlink:href="#DejaVuSans-45"/>
       <use x="576.904297" xlink:href="#DejaVuSans-101"/>
       <use x="638.427734" xlink:href="#DejaVuSans-110"/>
       <use x="701.806641" xlink:href="#DejaVuSans-101"/>
       <use x="763.330078" xlink:href="#DejaVuSans-114"/>
       <use x="802.693359" xlink:href="#DejaVuSans-103"/>
       <use x="866.169922" xlink:href="#DejaVuSans-121"/>
      </g>
     </g>
    </g>
    <g id="xtick_11">
     <g id="text_11">
      <!-- mean-number-of-female-offspring -->
      <g transform="translate(547.747643 383.582767)scale(0.1 -0.1)">
       <use xlink:href="#DejaVuSans-109"/>
       <use x="97.412109" xlink:href="#DejaVuSans-101"/>
       <use x="158.935547" xlink:href="#DejaVuSans-97"/>
       <use x="220.214844" xlink:href="#DejaVuSans-110"/>
       <use x="283.59375" xlink:href="#DejaVuSans-45"/>
       <use x="319.677734" xlink:href="#DejaVuSans-110"/>
       <use x="383.056641" xlink:href="#DejaVuSans-117"/>
       <use x="446.435547" xlink:href="#DejaVuSans-109"/>
       <use x="543.847656" xlink:href="#DejaVuSans-98"/>
       <use x="607.324219" xlink:href="#DejaVuSans-101"/>
       <use x="668.847656" xlink:href="#DejaVuSans-114"/>
       <use x="703.585938" xlink:href="#DejaVuSans-45"/>
       <use x="741.544922" xlink:href="#DejaVuSans-111"/>
       <use x="802.726562" xlink:href="#DejaVuSans-102"/>
       <use x="832.431641" xlink:href="#DejaVuSans-45"/>
       <use x="868.515625" xlink:href="#DejaVuSans-102"/>
       <use x="903.720703" xlink:href="#DejaVuSans-101"/>
       <use x="965.244141" xlink:href="#DejaVuSans-109"/>
       <use x="1062.65625" xlink:href="#DejaVuSans-97"/>
       <use x="1123.935547" xlink:href="#DejaVuSans-108"/>
       <use x="1151.71875" xlink:href="#DejaVuSans-101"/>
       <use x="1213.242188" xlink:href="#DejaVuSans-45"/>
       <use x="1251.201172" xlink:href="#DejaVuSans-111"/>
       <use x="1312.382812" xlink:href="#DejaVuSans-102"/>
       <use x="1347.587891" xlink:href="#DejaVuSans-102"/>
       <use x="1382.792969" xlink:href="#DejaVuSans-115"/>
       <use x="1434.892578" xlink:href="#DejaVuSans-112"/>
       <use x="1498.369141" xlink:href="#DejaVuSans-114"/>
       <use x="1539.482422" xlink:href="#DejaVuSans-105"/>
       <use x="1567.265625" xlink:href="#DejaVuSans-110"/>
       <use x="1630.644531" xlink:href="#DejaVuSans-103"/>
      </g>
     </g>
    </g>
   </g>
   <g id="matplotlib.axis_2">
    <g id="ytick_1"/>
    <g id="ytick_2"/>
    <g id="ytick_3"/>
    <g id="ytick_4"/>
    <g id="ytick_5"/>
    <g id="ytick_6"/>
    <g id="ytick_7"/>
   </g>
   <g id="legend_1">
    <g id="patch_3">
     <path d="M 658.279072 72.576742 
L 702.99001 72.576742 
Q 704.99001 72.576742 704.99001 70.576742 
L 704.99001 27.542367 
Q 704.99001 25.542367 702.99001 25.542367 
L 658.279072 25.542367 
Q 656.279072 25.542367 656.279072 27.542367 
L 656.279072 70.576742 
Q 656.279072 72.576742 658.279072 72.576742 
z
" style="fill:#ffffff;opacity:0.8;stroke:#cccccc;stroke-linejoin:miter;"/>
    </g>
    <g id="patch_4">
     <path d="M 670.279072 38.640805 
C 671.605088 38.640805 672.876972 38.113973 673.814606 37.176339 
C 674.752241 36.238704 675.279072 34.96682 675.279072 33.640805 
C 675.279072 32.314789 674.752241 31.042905 673.814606 30.105271 
C 672.876972 29.167636 671.605088 28.640805 670.279072 28.640805 
C 668.953057 28.640805 667.681173 29.167636 666.743538 30.105271 
C 665.805904 31.042905 665.279072 32.314789 665.279072 33.640805 
C 665.279072 34.96682 665.805904 36.238704 666.743538 37.176339 
C 667.681173 38.113973 668.953057 38.640805 670.279072 38.640805 
z
" style="fill:none;stroke:#000000;stroke-linejoin:miter;"/>
    </g>
    <g id="text_12">
     <!-- ST -->
     <g transform="translate(688.279072 37.140805)scale(0.1 -0.1)">
      <defs>
       <path d="M 53.515625 70.515625 
L 53.515625 60.890625 
Q 47.90625 63.578125 42.921875 64.890625 
Q 37.9375 66.21875 33.296875 66.21875 
Q 25.25 66.21875 20.875 63.09375 
Q 16.5 59.96875 16.5 54.203125 
Q 16.5 49.359375 19.40625 46.890625 
Q 22.3125 44.4375 30.421875 42.921875 
L 36.375 41.703125 
Q 47.40625 39.59375 52.65625 34.296875 
Q 57.90625 29 57.90625 20.125 
Q 57.90625 9.515625 50.796875 4.046875 
Q 43.703125 -1.421875 29.984375 -1.421875 
Q 24.8125 -1.421875 18.96875 -0.25 
Q 13.140625 0.921875 6.890625 3.21875 
L 6.890625 13.375 
Q 12.890625 10.015625 18.65625 8.296875 
Q 24.421875 6.59375 29.984375 6.59375 
Q 38.421875 6.59375 43.015625 9.90625 
Q 47.609375 13.234375 47.609375 19.390625 
Q 47.609375 24.75 44.3125 27.78125 
Q 41.015625 30.8125 33.5 32.328125 
L 27.484375 33.5 
Q 16.453125 35.6875 11.515625 40.375 
Q 6.59375 45.0625 6.59375 53.421875 
Q 6.59375 63.09375 13.40625 68.65625 
Q 20.21875 74.21875 32.171875 74.21875 
Q 37.3125 74.21875 42.625 73.28125 
Q 47.953125 72.359375 53.515625 70.515625 
z
" id="DejaVuSans-83"/>
       <path d="M -0.296875 72.90625 
L 61.375 72.90625 
L 61.375 64.59375 
L 35.5 64.59375 
L 35.5 0 
L 25.59375 0 
L 25.59375 64.59375 
L -0.296875 64.59375 
z
" id="DejaVuSans-84"/>
      </defs>
      <use xlink:href="#DejaVuSans-83"/>
      <use x="63.476562" xlink:href="#DejaVuSans-84"/>
     </g>
    </g>
    <g id="patch_5">
     <path d="M 670.279072 53.31893 
C 671.605088 53.31893 672.876972 52.792098 673.814606 51.854464 
C 674.752241 50.916829 675.279072 49.644945 675.279072 48.31893 
C 675.279072 46.992914 674.752241 45.72103 673.814606 44.783396 
C 672.876972 43.845761 671.605088 43.31893 670.279072 43.31893 
C 668.953057 43.31893 667.681173 43.845761 666.743538 44.783396 
C 665.805904 45.72103 665.279072 46.992914 665.279072 48.31893 
C 665.279072 49.644945 665.805904 50.916829 666.743538 51.854464 
C 667.681173 52.792098 668.953057 53.31893 670.279072 53.31893 
z
" style="stroke:#000000;stroke-linejoin:miter;"/>
    </g>
    <g id="text_13">
     <!-- S1 -->
     <g transform="translate(688.279072 51.81893)scale(0.1 -0.1)">
      <defs>
       <path d="M 12.40625 8.296875 
L 28.515625 8.296875 
L 28.515625 63.921875 
L 10.984375 60.40625 
L 10.984375 69.390625 
L 28.421875 72.90625 
L 38.28125 72.90625 
L 38.28125 8.296875 
L 54.390625 8.296875 
L 54.390625 0 
L 12.40625 0 
z
" id="DejaVuSans-49"/>
      </defs>
      <use xlink:href="#DejaVuSans-83"/>
      <use x="63.476562" xlink:href="#DejaVuSans-49"/>
     </g>
    </g>
    <g id="line2d_56">
     <path d="M 660.279072 62.997055 
L 680.279072 62.997055 
" style="fill:none;stroke:#a9a9a9;stroke-linecap:square;stroke-width:8;"/>
    </g>
    <g id="line2d_57"/>
    <g id="text_14">
     <!-- S2 -->
     <g transform="translate(688.279072 66.497055)scale(0.1 -0.1)">
      <defs>
       <path d="M 19.1875 8.296875 
L 53.609375 8.296875 
L 53.609375 0 
L 7.328125 0 
L 7.328125 8.296875 
Q 12.9375 14.109375 22.625 23.890625 
Q 32.328125 33.6875 34.8125 36.53125 
Q 39.546875 41.84375 41.421875 45.53125 
Q 43.3125 49.21875 43.3125 52.78125 
Q 43.3125 58.59375 39.234375 62.25 
Q 35.15625 65.921875 28.609375 65.921875 
Q 23.96875 65.921875 18.8125 64.3125 
Q 13.671875 62.703125 7.8125 59.421875 
L 7.8125 69.390625 
Q 13.765625 71.78125 18.9375 73 
Q 24.125 74.21875 28.421875 74.21875 
Q 39.75 74.21875 46.484375 68.546875 
Q 53.21875 62.890625 53.21875 53.421875 
Q 53.21875 48.921875 51.53125 44.890625 
Q 49.859375 40.875 45.40625 35.40625 
Q 44.1875 33.984375 37.640625 27.21875 
Q 31.109375 20.453125 19.1875 8.296875 
z
" id="DejaVuSans-50"/>
      </defs>
      <use xlink:href="#DejaVuSans-83"/>
      <use x="63.476562" xlink:href="#DejaVuSans-50"/>
     </g>
    </g>
   </g>
   <g id="patch_6">
    <path clip-path="url(#p83eec343f4)" d="M 592.199337 270.492339 
C 597.103563 270.492339 601.807585 268.54387 605.275396 265.076059 
C 608.743207 261.608247 610.691677 256.904226 610.691677 252 
C 610.691677 247.095774 608.743207 242.391753 605.275396 238.923941 
C 601.807585 235.45613 597.103563 233.507661 592.199337 233.507661 
C 587.295112 233.507661 582.59109 235.45613 579.123279 238.923941 
C 575.655468 242.391753 573.706998 247.095774 573.706998 252 
C 573.706998 256.904226 575.655468 261.608247 579.123279 265.076059 
C 582.59109 268.54387 587.295112 270.492339 592.199337 270.492339 
z
" style="fill:#ffffff;stroke:#000000;stroke-linejoin:miter;"/>
   </g>
   <g id="patch_7">
    <path clip-path="url(#p83eec343f4)" d="M 566.768258 199.03156 
C 575.690184 199.03156 584.247892 195.486841 590.556646 189.178087 
C 596.865401 182.869333 600.410119 174.311625 600.410119 165.389699 
C 600.410119 156.467774 596.865401 147.910066 590.556646 141.601311 
C 584.247892 135.292557 575.690184 131.747838 566.768258 131.747838 
C 557.846333 131.747838 549.288625 135.292557 542.979871 141.601311 
C 536.671116 147.910066 533.126398 156.467774 533.126398 165.389699 
C 533.126398 174.311625 536.671116 182.869333 542.979871 189.178087 
C 549.288625 195.486841 557.846333 199.03156 566.768258 199.03156 
z
" style="fill:#ffffff;stroke:#000000;stroke-linejoin:miter;"/>
   </g>
   <g id="patch_8">
    <path clip-path="url(#p83eec343f4)" d="M 498.54921 139.867724 
C 507.457426 139.867724 516.001984 136.328452 522.301045 130.029392 
C 528.600105 123.730332 532.139377 115.185774 532.139377 106.277557 
C 532.139377 97.369341 528.600105 88.824782 522.301045 82.525722 
C 516.001984 76.226662 507.457426 72.68739 498.54921 72.68739 
C 489.640993 72.68739 481.096435 76.226662 474.797375 82.525722 
C 468.498315 88.824782 464.959043 97.369341 464.959043 106.277557 
C 464.959043 115.185774 468.498315 123.730332 474.797375 130.029392 
C 481.096435 136.328452 489.640993 139.867724 498.54921 139.867724 
z
" style="fill:#ffffff;stroke:#000000;stroke-linejoin:miter;"/>
   </g>
   <g id="patch_9">
    <path clip-path="url(#p83eec343f4)" d="M 409.201257 114.792777 
C 414.866397 114.792777 420.300271 112.541993 424.30613 108.536134 
C 428.311989 104.530274 430.562773 99.096401 430.562773 93.431261 
C 430.562773 87.766121 428.311989 82.332247 424.30613 78.326388 
C 420.300271 74.320529 414.866397 72.069745 409.201257 72.069745 
C 403.536117 72.069745 398.102244 74.320529 394.096385 78.326388 
C 390.090526 82.332247 387.839742 87.766121 387.839742 93.431261 
C 387.839742 99.096401 390.090526 104.530274 394.096385 108.536134 
C 398.102244 112.541993 403.536117 114.792777 409.201257 114.792777 
z
" style="fill:#ffffff;stroke:#000000;stroke-linejoin:miter;"/>
   </g>
   <g id="patch_10">
    <path clip-path="url(#p83eec343f4)" d="M 327.091744 147.963014 
C 331.609107 147.963014 335.942057 146.168247 339.136315 142.973989 
C 342.330572 139.779732 344.125339 135.446781 344.125339 130.929419 
C 344.125339 126.412057 342.330572 122.079106 339.136315 118.884849 
C 335.942057 115.690591 331.609107 113.895824 327.091744 113.895824 
C 322.574382 113.895824 318.241431 115.690591 315.047174 118.884849 
C 311.852916 122.079106 310.058149 126.412057 310.058149 130.929419 
C 310.058149 135.446781 311.852916 139.779732 315.047174 142.973989 
C 318.241431 146.168247 322.574382 147.963014 327.091744 147.963014 
z
" style="fill:#ffffff;stroke:#000000;stroke-linejoin:miter;"/>
   </g>
   <g id="patch_11">
    <path clip-path="url(#p83eec343f4)" d="M 278.289861 224.781702 
C 283.040994 224.781702 287.598171 222.894057 290.957729 219.534499 
C 294.317287 216.174941 296.204932 211.617763 296.204932 206.866631 
C 296.204932 202.115499 294.317287 197.558321 290.957729 194.198763 
C 287.598171 190.839205 283.040994 188.951561 278.289861 188.951561 
C 273.538729 188.951561 268.981551 190.839205 265.621994 194.198763 
C 262.262436 197.558321 260.374791 202.115499 260.374791 206.866631 
C 260.374791 211.617763 262.262436 216.174941 265.621994 219.534499 
C 268.981551 222.894057 273.538729 224.781702 278.289861 224.781702 
z
" style="fill:#ffffff;stroke:#000000;stroke-linejoin:miter;"/>
   </g>
   <g id="patch_12">
    <path clip-path="url(#p83eec343f4)" d="M 278.289861 314.201616 
C 282.816414 314.201616 287.158179 312.403198 290.358935 309.202442 
C 293.559691 306.001687 295.358109 301.659921 295.358109 297.133369 
C 295.358109 292.606817 293.559691 288.265051 290.358935 285.064295 
C 287.158179 281.86354 282.816414 280.065121 278.289861 280.065121 
C 273.763309 280.065121 269.421544 281.86354 266.220788 285.064295 
C 263.020032 288.265051 261.221614 292.606817 261.221614 297.133369 
C 261.221614 301.659921 263.020032 306.001687 266.220788 309.202442 
C 269.421544 312.403198 273.763309 314.201616 278.289861 314.201616 
z
" style="fill:#ffffff;stroke:#000000;stroke-linejoin:miter;"/>
   </g>
   <g id="patch_13">
    <path clip-path="url(#p83eec343f4)" d="M 327.091744 393.495284 
C 332.508439 393.495284 337.704009 391.343208 341.53419 387.513027 
C 345.364372 383.682845 347.516447 378.487275 347.516447 373.070581 
C 347.516447 367.653887 345.364372 362.458317 341.53419 358.628135 
C 337.704009 354.797954 332.508439 352.645878 327.091744 352.645878 
C 321.67505 352.645878 316.47948 354.797954 312.649299 358.628135 
C 308.819117 362.458317 306.667042 367.653887 306.667042 373.070581 
C 306.667042 378.487275 308.819117 383.682845 312.649299 387.513027 
C 316.47948 391.343208 321.67505 393.495284 327.091744 393.495284 
z
" style="fill:#ffffff;stroke:#000000;stroke-linejoin:miter;"/>
   </g>
   <g id="patch_14">
    <path clip-path="url(#p83eec343f4)" d="M 409.201257 427.728937 
C 413.752195 427.728937 418.117351 425.920831 421.33535 422.702832 
C 424.553349 419.484833 426.361456 415.119677 426.361456 410.568739 
C 426.361456 406.017801 424.553349 401.652645 421.33535 398.434646 
C 418.117351 395.216647 413.752195 393.408541 409.201257 393.408541 
C 404.650319 393.408541 400.285164 395.216647 397.067165 398.434646 
C 393.849166 401.652645 392.041059 406.017801 392.041059 410.568739 
C 392.041059 415.119677 393.849166 419.484833 397.067165 422.702832 
C 400.285164 425.920831 404.650319 427.728937 409.201257 427.728937 
z
" style="fill:#ffffff;stroke:#000000;stroke-linejoin:miter;"/>
   </g>
   <g id="patch_15">
    <path clip-path="url(#p83eec343f4)" d="M 498.54921 416.775134 
C 503.602043 416.775134 508.448605 414.767623 512.021497 411.19473 
C 515.59439 407.621838 517.601901 402.775276 517.601901 397.722443 
C 517.601901 392.66961 515.59439 387.823048 512.021497 384.250155 
C 508.448605 380.677263 503.602043 378.669751 498.54921 378.669751 
C 493.496377 378.669751 488.649815 380.677263 485.076922 384.250155 
C 481.50403 387.823048 479.496518 392.66961 479.496518 397.722443 
C 479.496518 402.775276 481.50403 407.621838 485.076922 411.19473 
C 488.649815 414.767623 493.496377 416.775134 498.54921 416.775134 
z
" style="fill:#ffffff;stroke:#000000;stroke-linejoin:miter;"/>
   </g>
   <g id="patch_16">
    <path clip-path="url(#p83eec343f4)" d="M 566.768258 356.264572 
C 571.450226 356.264572 575.941063 354.404407 579.251714 351.093756 
C 582.562365 347.783105 584.42253 343.292268 584.42253 338.610301 
C 584.42253 333.928333 582.562365 329.437497 579.251714 326.126846 
C 575.941063 322.816195 571.450226 320.956029 566.768258 320.956029 
C 562.086291 320.956029 557.595454 322.816195 554.284803 326.126846 
C 550.974152 329.437497 549.113987 333.928333 549.113987 338.610301 
C 549.113987 343.292268 550.974152 347.783105 554.284803 351.093756 
C 557.595454 354.404407 562.086291 356.264572 566.768258 356.264572 
z
" style="fill:#ffffff;stroke:#000000;stroke-linejoin:miter;"/>
   </g>
   <g id="patch_17">
    <path clip-path="url(#p83eec343f4)" d="M 592.199337 264.080063 
C 595.403008 264.080063 598.475895 262.807231 600.741232 260.541895 
C 603.006569 258.276558 604.2794 255.20367 604.2794 252 
C 604.2794 248.79633 603.006569 245.723442 600.741232 243.458105 
C 598.475895 241.192769 595.403008 239.919937 592.199337 239.919937 
C 588.995667 239.919937 585.92278 241.192769 583.657443 243.458105 
C 581.392106 245.723442 580.119274 248.79633 580.119274 252 
C 580.119274 255.20367 581.392106 258.276558 583.657443 260.541895 
C 585.92278 262.807231 588.995667 264.080063 592.199337 264.080063 
z
"/>
   </g>
   <g id="patch_18">
    <path clip-path="url(#p83eec343f4)" d="M 566.768258 195.375662 
C 574.720629 195.375662 582.348361 192.216152 587.971536 186.592977 
C 593.594711 180.969802 596.754221 173.342069 596.754221 165.389699 
C 596.754221 157.437329 593.594711 149.809597 587.971536 144.186422 
C 582.348361 138.563247 574.720629 135.403737 566.768258 135.403737 
C 558.815888 135.403737 551.188156 138.563247 545.564981 144.186422 
C 539.941806 149.809597 536.782296 157.437329 536.782296 165.389699 
C 536.782296 173.342069 539.941806 180.969802 545.564981 186.592977 
C 551.188156 192.216152 558.815888 195.375662 566.768258 195.375662 
z
"/>
   </g>
   <g id="patch_19">
    <path clip-path="url(#p83eec343f4)" d="M 498.54921 135.299124 
C 506.245819 135.299124 513.628232 132.241229 519.070557 126.798904 
C 524.512881 121.356579 527.570777 113.974167 527.570777 106.277557 
C 527.570777 98.580948 524.512881 91.198535 519.070557 85.75621 
C 513.628232 80.313885 506.245819 77.25599 498.54921 77.25599 
C 490.8526 77.25599 483.470188 80.313885 478.027863 85.75621 
C 472.585538 91.198535 469.527643 98.580948 469.527643 106.277557 
C 469.527643 113.974167 472.585538 121.356579 478.027863 126.798904 
C 483.470188 132.241229 490.8526 135.299124 498.54921 135.299124 
z
"/>
   </g>
   <g id="patch_20">
    <path clip-path="url(#p83eec343f4)" d="M 409.201257 107.173127 
C 412.845643 107.173127 416.341254 105.725198 418.918224 103.148228 
C 421.495194 100.571258 422.943124 97.075646 422.943124 93.431261 
C 422.943124 89.786875 421.495194 86.291264 418.918224 83.714294 
C 416.341254 81.137324 412.845643 79.689394 409.201257 79.689394 
C 405.556872 79.689394 402.06126 81.137324 399.48429 83.714294 
C 396.907321 86.291264 395.459391 89.786875 395.459391 93.431261 
C 395.459391 97.075646 396.907321 100.571258 399.48429 103.148228 
C 402.06126 105.725198 405.556872 107.173127 409.201257 107.173127 
z
"/>
   </g>
   <g id="patch_21">
    <path clip-path="url(#p83eec343f4)" d="M 327.091744 139.398188 
C 329.337688 139.398188 331.491946 138.505865 333.080068 136.917743 
C 334.66819 135.329621 335.560513 133.175363 335.560513 130.929419 
C 335.560513 128.683475 334.66819 126.529217 333.080068 124.941095 
C 331.491946 123.352973 329.337688 122.46065 327.091744 122.46065 
C 324.845801 122.46065 322.691543 123.352973 321.10342 124.941095 
C 319.515298 126.529217 318.622975 128.683475 318.622975 130.929419 
C 318.622975 133.175363 319.515298 135.329621 321.10342 136.917743 
C 322.691543 138.505865 324.845801 139.398188 327.091744 139.398188 
z
"/>
   </g>
   <g id="patch_22">
    <path clip-path="url(#p83eec343f4)" d="M 278.289861 208.468624 
C 278.714715 208.468624 279.122225 208.299828 279.422642 207.999411 
C 279.723059 207.698995 279.891855 207.291485 279.891855 206.866631 
C 279.891855 206.441777 279.723059 206.034268 279.422642 205.733851 
C 279.122225 205.433434 278.714715 205.264638 278.289861 205.264638 
C 277.865008 205.264638 277.457498 205.433434 277.157081 205.733851 
C 276.856664 206.034268 276.687868 206.441777 276.687868 206.866631 
C 276.687868 207.291485 276.856664 207.698995 277.157081 207.999411 
C 277.457498 208.299828 277.865008 208.468624 278.289861 208.468624 
z
"/>
   </g>
   <g id="patch_23">
    <path clip-path="url(#p83eec343f4)" d="M 278.289861 310.013704 
C 281.705766 310.013704 284.982224 308.656551 287.397634 306.241141 
C 289.813043 303.825732 291.170196 300.549274 291.170196 297.133369 
C 291.170196 293.717464 289.813043 290.441006 287.397634 288.025597 
C 284.982224 285.610187 281.705766 284.253034 278.289861 284.253034 
C 274.873957 284.253034 271.597499 285.610187 269.182089 288.025597 
C 266.76668 290.441006 265.409526 293.717464 265.409526 297.133369 
C 265.409526 300.549274 266.76668 303.825732 269.182089 306.241141 
C 271.597499 308.656551 274.873957 310.013704 278.289861 310.013704 
z
"/>
   </g>
   <g id="patch_24">
    <path clip-path="url(#p83eec343f4)" d="M 327.091744 386.813672 
C 330.736455 386.813672 334.232378 385.365613 336.809577 382.788414 
C 339.386776 380.211214 340.834835 376.715291 340.834835 373.070581 
C 340.834835 369.425871 339.386776 365.929948 336.809577 363.352748 
C 334.232378 360.775549 330.736455 359.32749 327.091744 359.32749 
C 323.447034 359.32749 319.951111 360.775549 317.373912 363.352748 
C 314.796712 365.929948 313.348654 369.425871 313.348654 373.070581 
C 313.348654 376.715291 314.796712 380.211214 317.373912 382.788414 
C 319.951111 385.365613 323.447034 386.813672 327.091744 386.813672 
z
"/>
   </g>
   <g id="patch_25">
    <path clip-path="url(#p83eec343f4)" d="M 409.201257 422.70962 
C 412.421056 422.70962 415.509414 421.43038 417.786156 419.153638 
C 420.062898 416.876896 421.342138 413.788538 421.342138 410.568739 
C 421.342138 407.34894 420.062898 404.260582 417.786156 401.98384 
C 415.509414 399.707098 412.421056 398.427859 409.201257 398.427859 
C 405.981458 398.427859 402.8931 399.707098 400.616358 401.98384 
C 398.339617 404.260582 397.060377 407.34894 397.060377 410.568739 
C 397.060377 413.788538 398.339617 416.876896 400.616358 419.153638 
C 402.8931 421.43038 405.981458 422.70962 409.201257 422.70962 
z
"/>
   </g>
   <g id="patch_26">
    <path clip-path="url(#p83eec343f4)" d="M 498.54921 408.438517 
C 501.391146 408.438517 504.117066 407.309404 506.126619 405.299852 
C 508.136171 403.290299 509.265284 400.564379 509.265284 397.722443 
C 509.265284 394.880507 508.136171 392.154586 506.126619 390.145034 
C 504.117066 388.135482 501.391146 387.006368 498.54921 387.006368 
C 495.707274 387.006368 492.981353 388.135482 490.971801 390.145034 
C 488.962249 392.154586 487.833135 394.880507 487.833135 397.722443 
C 487.833135 400.564379 488.962249 403.290299 490.971801 405.299852 
C 492.981353 407.309404 495.707274 408.438517 498.54921 408.438517 
z
"/>
   </g>
   <g id="patch_27">
    <path clip-path="url(#p83eec343f4)" d="M 566.768258 341.552713 
C 567.548595 341.552713 568.297076 341.242681 568.848858 340.6909 
C 569.400639 340.139119 569.71067 339.390637 569.71067 338.610301 
C 569.71067 337.829964 569.400639 337.081483 568.848858 336.529701 
C 568.297076 335.97792 567.548595 335.667889 566.768258 335.667889 
C 565.987922 335.667889 565.239441 335.97792 564.687659 336.529701 
C 564.135878 337.081483 563.825847 337.829964 563.825847 338.610301 
C 563.825847 339.390637 564.135878 340.139119 564.687659 340.6909 
C 565.239441 341.242681 565.987922 341.552713 566.768258 341.552713 
z
"/>
   </g>
  </g>
 </g>
 <defs>
  <clipPath id="p83eec343f4">
   <path d="M 656.279072 252 
C 656.279072 222.547942 650.477659 193.382268 639.206844 166.172115 
C 627.93603 138.961961 611.415003 114.236497 590.589253 93.410747 
C 569.763503 72.584997 545.038039 56.06397 517.827885 44.793156 
C 490.617732 33.522341 461.452058 27.720928 432 27.720928 
C 402.547942 27.720928 373.382268 33.522341 346.172115 44.793156 
C 318.961961 56.06397 294.236497 72.584997 273.410747 93.410747 
C 252.584997 114.236497 236.06397 138.961961 224.793156 166.172115 
C 213.522341 193.382268 207.720928 222.547942 207.720928 252 
C 207.720928 281.452058 213.522341 310.617732 224.793156 337.827885 
C 236.06397 365.038039 252.584997 389.763503 273.410747 410.589253 
C 294.236497 431.415003 318.961961 447.93603 346.172115 459.206844 
C 373.382268 470.477659 402.547942 476.279072 432 476.279072 
C 461.452058 476.279072 490.617732 470.477659 517.827885 459.206844 
C 545.038039 447.93603 569.763503 431.415003 590.589253 410.589253 
C 611.415003 389.763503 627.93603 365.038039 639.206844 337.827885 
C 650.477659 310.617732 656.279072 281.452058 656.279072 252 
M 432 252 
C 432 252 432 252 432 252 
C 432 252 432 252 432 252 
C 432 252 432 252 432 252 
C 432 252 432 252 432 252 
C 432 252 432 252 432 252 
C 432 252 432 252 432 252 
C 432 252 432 252 432 252 
C 432 252 432 252 432 252 
C 432 252 432 252 432 252 
C 432 252 432 252 432 252 
C 432 252 432 252 432 252 
C 432 252 432 252 432 252 
C 432 252 432 252 432 252 
C 432 252 432 252 432 252 
C 432 252 432 252 432 252 
C 432 252 432 252 432 252 
M 656.279072 252 
z
"/>
  </clipPath>
 </defs>
</svg>
