<?xml version="1.0" encoding="utf-8" standalone="no"?>
<!DOCTYPE svg PUBLIC "-//W3C//DTD SVG 1.1//EN"
  "http://www.w3.org/Graphics/SVG/1.1/DTD/svg11.dtd">
<!-- Created with matplotlib (https://matplotlib.org/) -->
<svg height="504pt" version="1.1" viewBox="0 0 864 504" width="864pt" xmlns="http://www.w3.org/2000/svg" xmlns:xlink="http://www.w3.org/1999/xlink">
 <metadata>
  <rdf:RDF xmlns:cc="http://creativecommons.org/ns#" xmlns:dc="http://purl.org/dc/elements/1.1/" xmlns:rdf="http://www.w3.org/1999/02/22-rdf-syntax-ns#">
   <cc:Work>
    <dc:type rdf:resource="http://purl.org/dc/dcmitype/StillImage"/>
    <dc:date>2021-11-02T09:34:24.932454</dc:date>
    <dc:format>image/svg+xml</dc:format>
    <dc:creator>
     <cc:Agent>
      <dc:title>Matplotlib v3.3.0, https://matplotlib.org/</dc:title>
     </cc:Agent>
    </dc:creator>
   </cc:Work>
  </rdf:RDF>
 </metadata>
 <defs>
  <style type="text/css">*{stroke-linecap:butt;stroke-linejoin:round;}</style>
 </defs>
 <g id="figure_1">
  <g id="patch_1">
   <path d="M 0 504 
L 864 504 
L 864 0 
L 0 0 
z
" style="fill:none;"/>
  </g>
  <g id="axes_1">
   <g id="patch_2">
    <path d="M 659.321225 252 
C 659.321225 222.14845 653.44112 192.587169 642.017427 165.007933 
C 630.593733 137.428698 613.848613 112.367854 592.740379 91.259621 
C 571.632146 70.151387 546.571302 53.406267 518.992067 41.982573 
C 491.412831 30.55888 461.85155 24.678775 432 24.678775 
C 402.14845 24.678775 372.587169 30.55888 345.007933 41.982573 
C 317.428698 53.406267 292.367854 70.151387 271.259621 91.259621 
C 250.151387 112.367854 233.406267 137.428698 221.982573 165.007933 
C 210.55888 192.587169 204.678775 222.14845 204.678775 252 
C 204.678775 281.85155 210.55888 311.412831 221.982573 338.992067 
C 233.406267 366.571302 250.151387 391.632146 271.259621 412.740379 
C 292.367854 433.848613 317.428698 450.593733 345.007933 462.017427 
C 372.587169 473.44112 402.14845 479.321225 432 479.321225 
C 461.85155 479.321225 491.412831 473.44112 518.992067 462.017427 
C 546.571302 450.593733 571.632146 433.848613 592.740379 412.740379 
C 613.848613 391.632146 630.593733 366.571302 642.017427 338.992067 
C 653.44112 311.412831 659.321225 281.85155 659.321225 252 
M 432 252 
C 432 252 432 252 432 252 
C 432 252 432 252 432 252 
C 432 252 432 252 432 252 
C 432 252 432 252 432 252 
C 432 252 432 252 432 252 
C 432 252 432 252 432 252 
C 432 252 432 252 432 252 
C 432 252 432 252 432 252 
C 432 252 432 252 432 252 
C 432 252 432 252 432 252 
C 432 252 432 252 432 252 
C 432 252 432 252 432 252 
C 432 252 432 252 432 252 
C 432 252 432 252 432 252 
C 432 252 432 252 432 252 
C 432 252 432 252 432 252 
M 659.321225 252 
z
" style="fill:#ffffff;"/>
   </g>
   <g id="line2d_1">
    <path clip-path="url(#pf3e072c18b)" d="M 594.372303 252 
L 533.237475 125.052221 
" style="fill:none;stroke:#a9a9a9;stroke-linecap:square;stroke-width:1.359441;"/>
   </g>
   <g id="line2d_2">
    <path clip-path="url(#pf3e072c18b)" d="M 594.372303 252 
L 395.868763 93.698709 
" style="fill:none;stroke:#a9a9a9;stroke-linecap:square;stroke-width:0.288026;"/>
   </g>
   <g id="line2d_3">
    <path clip-path="url(#pf3e072c18b)" d="M 594.372303 252 
L 285.70761 181.549298 
" style="fill:none;stroke:#a9a9a9;stroke-linecap:square;stroke-width:0.180966;"/>
   </g>
   <g id="line2d_4">
    <path clip-path="url(#pf3e072c18b)" d="M 594.372303 252 
L 285.70761 322.450702 
" style="fill:none;"/>
   </g>
   <g id="line2d_5">
    <path clip-path="url(#pf3e072c18b)" d="M 594.372303 252 
L 395.868763 410.301291 
" style="fill:none;"/>
   </g>
   <g id="line2d_6">
    <path clip-path="url(#pf3e072c18b)" d="M 594.372303 252 
L 533.237475 378.947779 
" style="fill:none;"/>
   </g>
   <g id="line2d_7">
    <path clip-path="url(#pf3e072c18b)" d="M 533.237475 125.052221 
L 395.868763 93.698709 
" style="fill:none;stroke:#a9a9a9;stroke-linecap:square;stroke-width:0.367304;"/>
   </g>
   <g id="line2d_8">
    <path clip-path="url(#pf3e072c18b)" d="M 533.237475 125.052221 
L 285.70761 181.549298 
" style="fill:none;stroke:#a9a9a9;stroke-linecap:square;stroke-width:1.470225;"/>
   </g>
   <g id="line2d_9">
    <path clip-path="url(#pf3e072c18b)" d="M 533.237475 125.052221 
L 285.70761 322.450702 
" style="fill:none;stroke:#a9a9a9;stroke-linecap:square;stroke-width:1.434326;"/>
   </g>
   <g id="line2d_10">
    <path clip-path="url(#pf3e072c18b)" d="M 533.237475 125.052221 
L 395.868763 410.301291 
" style="fill:none;stroke:#a9a9a9;stroke-linecap:square;stroke-width:2.146603;"/>
   </g>
   <g id="line2d_11">
    <path clip-path="url(#pf3e072c18b)" d="M 533.237475 125.052221 
L 533.237475 378.947779 
" style="fill:none;stroke:#a9a9a9;stroke-linecap:square;stroke-width:1.360196;"/>
   </g>
   <g id="line2d_12">
    <path clip-path="url(#pf3e072c18b)" d="M 395.868763 93.698709 
L 285.70761 181.549298 
" style="fill:none;stroke:#a9a9a9;stroke-linecap:square;stroke-width:1.419113;"/>
   </g>
   <g id="line2d_13">
    <path clip-path="url(#pf3e072c18b)" d="M 395.868763 93.698709 
L 285.70761 322.450702 
" style="fill:none;stroke:#a9a9a9;stroke-linecap:square;stroke-width:2.256808;"/>
   </g>
   <g id="line2d_14">
    <path clip-path="url(#pf3e072c18b)" d="M 395.868763 93.698709 
L 395.868763 410.301291 
" style="fill:none;stroke:#a9a9a9;stroke-linecap:square;stroke-width:2.205489;"/>
   </g>
   <g id="line2d_15">
    <path clip-path="url(#pf3e072c18b)" d="M 395.868763 93.698709 
L 533.237475 378.947779 
" style="fill:none;stroke:#a9a9a9;stroke-linecap:square;stroke-width:1.437956;"/>
   </g>
   <g id="line2d_16">
    <path clip-path="url(#pf3e072c18b)" d="M 285.70761 181.549298 
L 285.70761 322.450702 
" style="fill:none;stroke:#a9a9a9;stroke-linecap:square;stroke-width:2.215098;"/>
   </g>
   <g id="line2d_17">
    <path clip-path="url(#pf3e072c18b)" d="M 285.70761 181.549298 
L 395.868763 410.301291 
" style="fill:none;stroke:#a9a9a9;stroke-linecap:square;stroke-width:1.3276;"/>
   </g>
   <g id="line2d_18">
    <path clip-path="url(#pf3e072c18b)" d="M 285.70761 181.549298 
L 533.237475 378.947779 
" style="fill:none;stroke:#a9a9a9;stroke-linecap:square;stroke-width:0.96925;"/>
   </g>
   <g id="line2d_19">
    <path clip-path="url(#pf3e072c18b)" d="M 285.70761 322.450702 
L 395.868763 410.301291 
" style="fill:none;stroke:#a9a9a9;stroke-linecap:square;stroke-width:1.26885;"/>
   </g>
   <g id="line2d_20">
    <path clip-path="url(#pf3e072c18b)" d="M 285.70761 322.450702 
L 533.237475 378.947779 
" style="fill:none;stroke:#a9a9a9;stroke-linecap:square;stroke-width:1.013743;"/>
   </g>
   <g id="line2d_21">
    <path clip-path="url(#pf3e072c18b)" d="M 395.868763 410.301291 
L 533.237475 378.947779 
" style="fill:none;stroke:#a9a9a9;stroke-linecap:square;stroke-width:0.116541;"/>
   </g>
   <g id="matplotlib.axis_1">
    <g id="xtick_1">
     <g id="text_1">
      <!-- capacity -->
      <g transform="translate(652.21185 254.759375)scale(0.1 -0.1)">
       <defs>
        <path d="M 48.78125 52.59375 
L 48.78125 44.1875 
Q 44.96875 46.296875 41.140625 47.34375 
Q 37.3125 48.390625 33.40625 48.390625 
Q 24.65625 48.390625 19.8125 42.84375 
Q 14.984375 37.3125 14.984375 27.296875 
Q 14.984375 17.28125 19.8125 11.734375 
Q 24.65625 6.203125 33.40625 6.203125 
Q 37.3125 6.203125 41.140625 7.25 
Q 44.96875 8.296875 48.78125 10.40625 
L 48.78125 2.09375 
Q 45.015625 0.34375 40.984375 -0.53125 
Q 36.96875 -1.421875 32.421875 -1.421875 
Q 20.0625 -1.421875 12.78125 6.34375 
Q 5.515625 14.109375 5.515625 27.296875 
Q 5.515625 40.671875 12.859375 48.328125 
Q 20.21875 56 33.015625 56 
Q 37.15625 56 41.109375 55.140625 
Q 45.0625 54.296875 48.78125 52.59375 
z
" id="DejaVuSans-99"/>
        <path d="M 34.28125 27.484375 
Q 23.390625 27.484375 19.1875 25 
Q 14.984375 22.515625 14.984375 16.5 
Q 14.984375 11.71875 18.140625 8.90625 
Q 21.296875 6.109375 26.703125 6.109375 
Q 34.1875 6.109375 38.703125 11.40625 
Q 43.21875 16.703125 43.21875 25.484375 
L 43.21875 27.484375 
z
M 52.203125 31.203125 
L 52.203125 0 
L 43.21875 0 
L 43.21875 8.296875 
Q 40.140625 3.328125 35.546875 0.953125 
Q 30.953125 -1.421875 24.3125 -1.421875 
Q 15.921875 -1.421875 10.953125 3.296875 
Q 6 8.015625 6 15.921875 
Q 6 25.140625 12.171875 29.828125 
Q 18.359375 34.515625 30.609375 34.515625 
L 43.21875 34.515625 
L 43.21875 35.40625 
Q 43.21875 41.609375 39.140625 45 
Q 35.0625 48.390625 27.6875 48.390625 
Q 23 48.390625 18.546875 47.265625 
Q 14.109375 46.140625 10.015625 43.890625 
L 10.015625 52.203125 
Q 14.9375 54.109375 19.578125 55.046875 
Q 24.21875 56 28.609375 56 
Q 40.484375 56 46.34375 49.84375 
Q 52.203125 43.703125 52.203125 31.203125 
z
" id="DejaVuSans-97"/>
        <path d="M 18.109375 8.203125 
L 18.109375 -20.796875 
L 9.078125 -20.796875 
L 9.078125 54.6875 
L 18.109375 54.6875 
L 18.109375 46.390625 
Q 20.953125 51.265625 25.265625 53.625 
Q 29.59375 56 35.59375 56 
Q 45.5625 56 51.78125 48.09375 
Q 58.015625 40.1875 58.015625 27.296875 
Q 58.015625 14.40625 51.78125 6.484375 
Q 45.5625 -1.421875 35.59375 -1.421875 
Q 29.59375 -1.421875 25.265625 0.953125 
Q 20.953125 3.328125 18.109375 8.203125 
z
M 48.6875 27.296875 
Q 48.6875 37.203125 44.609375 42.84375 
Q 40.53125 48.484375 33.40625 48.484375 
Q 26.265625 48.484375 22.1875 42.84375 
Q 18.109375 37.203125 18.109375 27.296875 
Q 18.109375 17.390625 22.1875 11.75 
Q 26.265625 6.109375 33.40625 6.109375 
Q 40.53125 6.109375 44.609375 11.75 
Q 48.6875 17.390625 48.6875 27.296875 
z
" id="DejaVuSans-112"/>
        <path d="M 9.421875 54.6875 
L 18.40625 54.6875 
L 18.40625 0 
L 9.421875 0 
z
M 9.421875 75.984375 
L 18.40625 75.984375 
L 18.40625 64.59375 
L 9.421875 64.59375 
z
" id="DejaVuSans-105"/>
        <path d="M 18.3125 70.21875 
L 18.3125 54.6875 
L 36.8125 54.6875 
L 36.8125 47.703125 
L 18.3125 47.703125 
L 18.3125 18.015625 
Q 18.3125 11.328125 20.140625 9.421875 
Q 21.96875 7.515625 27.59375 7.515625 
L 36.8125 7.515625 
L 36.8125 0 
L 27.59375 0 
Q 17.1875 0 13.234375 3.875 
Q 9.28125 7.765625 9.28125 18.015625 
L 9.28125 47.703125 
L 2.6875 47.703125 
L 2.6875 54.6875 
L 9.28125 54.6875 
L 9.28125 70.21875 
z
" id="DejaVuSans-116"/>
        <path d="M 32.171875 -5.078125 
Q 28.375 -14.84375 24.75 -17.8125 
Q 21.140625 -20.796875 15.09375 -20.796875 
L 7.90625 -20.796875 
L 7.90625 -13.28125 
L 13.1875 -13.28125 
Q 16.890625 -13.28125 18.9375 -11.515625 
Q 21 -9.765625 23.484375 -3.21875 
L 25.09375 0.875 
L 2.984375 54.6875 
L 12.5 54.6875 
L 29.59375 11.921875 
L 46.6875 54.6875 
L 56.203125 54.6875 
z
" id="DejaVuSans-121"/>
       </defs>
       <use xlink:href="#DejaVuSans-99"/>
       <use x="54.980469" xlink:href="#DejaVuSans-97"/>
       <use x="116.259766" xlink:href="#DejaVuSans-112"/>
       <use x="179.736328" xlink:href="#DejaVuSans-97"/>
       <use x="241.015625" xlink:href="#DejaVuSans-99"/>
       <use x="295.996094" xlink:href="#DejaVuSans-105"/>
       <use x="323.779297" xlink:href="#DejaVuSans-116"/>
       <use x="362.988281" xlink:href="#DejaVuSans-121"/>
      </g>
     </g>
    </g>
    <g id="xtick_2">
     <g id="text_2">
      <!-- mean-juvenile-mortality-prob -->
      <g transform="translate(509.282416 66.086844)scale(0.1 -0.1)">
       <defs>
        <path d="M 52 44.1875 
Q 55.375 50.25 60.0625 53.125 
Q 64.75 56 71.09375 56 
Q 79.640625 56 84.28125 50.015625 
Q 88.921875 44.046875 88.921875 33.015625 
L 88.921875 0 
L 79.890625 0 
L 79.890625 32.71875 
Q 79.890625 40.578125 77.09375 44.375 
Q 74.3125 48.1875 68.609375 48.1875 
Q 61.625 48.1875 57.5625 43.546875 
Q 53.515625 38.921875 53.515625 30.90625 
L 53.515625 0 
L 44.484375 0 
L 44.484375 32.71875 
Q 44.484375 40.625 41.703125 44.40625 
Q 38.921875 48.1875 33.109375 48.1875 
Q 26.21875 48.1875 22.15625 43.53125 
Q 18.109375 38.875 18.109375 30.90625 
L 18.109375 0 
L 9.078125 0 
L 9.078125 54.6875 
L 18.109375 54.6875 
L 18.109375 46.1875 
Q 21.1875 51.21875 25.484375 53.609375 
Q 29.78125 56 35.6875 56 
Q 41.65625 56 45.828125 52.96875 
Q 50 49.953125 52 44.1875 
z
" id="DejaVuSans-109"/>
        <path d="M 56.203125 29.59375 
L 56.203125 25.203125 
L 14.890625 25.203125 
Q 15.484375 15.921875 20.484375 11.0625 
Q 25.484375 6.203125 34.421875 6.203125 
Q 39.59375 6.203125 44.453125 7.46875 
Q 49.3125 8.734375 54.109375 11.28125 
L 54.109375 2.78125 
Q 49.265625 0.734375 44.1875 -0.34375 
Q 39.109375 -1.421875 33.890625 -1.421875 
Q 20.796875 -1.421875 13.15625 6.1875 
Q 5.515625 13.8125 5.515625 26.8125 
Q 5.515625 40.234375 12.765625 48.109375 
Q 20.015625 56 32.328125 56 
Q 43.359375 56 49.78125 48.890625 
Q 56.203125 41.796875 56.203125 29.59375 
z
M 47.21875 32.234375 
Q 47.125 39.59375 43.09375 43.984375 
Q 39.0625 48.390625 32.421875 48.390625 
Q 24.90625 48.390625 20.390625 44.140625 
Q 15.875 39.890625 15.1875 32.171875 
z
" id="DejaVuSans-101"/>
        <path d="M 54.890625 33.015625 
L 54.890625 0 
L 45.90625 0 
L 45.90625 32.71875 
Q 45.90625 40.484375 42.875 44.328125 
Q 39.84375 48.1875 33.796875 48.1875 
Q 26.515625 48.1875 22.3125 43.546875 
Q 18.109375 38.921875 18.109375 30.90625 
L 18.109375 0 
L 9.078125 0 
L 9.078125 54.6875 
L 18.109375 54.6875 
L 18.109375 46.1875 
Q 21.34375 51.125 25.703125 53.5625 
Q 30.078125 56 35.796875 56 
Q 45.21875 56 50.046875 50.171875 
Q 54.890625 44.34375 54.890625 33.015625 
z
" id="DejaVuSans-110"/>
        <path d="M 4.890625 31.390625 
L 31.203125 31.390625 
L 31.203125 23.390625 
L 4.890625 23.390625 
z
" id="DejaVuSans-45"/>
        <path d="M 9.421875 54.6875 
L 18.40625 54.6875 
L 18.40625 -0.984375 
Q 18.40625 -11.421875 14.421875 -16.109375 
Q 10.453125 -20.796875 1.609375 -20.796875 
L -1.8125 -20.796875 
L -1.8125 -13.1875 
L 0.59375 -13.1875 
Q 5.71875 -13.1875 7.5625 -10.8125 
Q 9.421875 -8.453125 9.421875 -0.984375 
z
M 9.421875 75.984375 
L 18.40625 75.984375 
L 18.40625 64.59375 
L 9.421875 64.59375 
z
" id="DejaVuSans-106"/>
        <path d="M 8.5 21.578125 
L 8.5 54.6875 
L 17.484375 54.6875 
L 17.484375 21.921875 
Q 17.484375 14.15625 20.5 10.265625 
Q 23.53125 6.390625 29.59375 6.390625 
Q 36.859375 6.390625 41.078125 11.03125 
Q 45.3125 15.671875 45.3125 23.6875 
L 45.3125 54.6875 
L 54.296875 54.6875 
L 54.296875 0 
L 45.3125 0 
L 45.3125 8.40625 
Q 42.046875 3.421875 37.71875 1 
Q 33.40625 -1.421875 27.6875 -1.421875 
Q 18.265625 -1.421875 13.375 4.4375 
Q 8.5 10.296875 8.5 21.578125 
z
M 31.109375 56 
z
" id="DejaVuSans-117"/>
        <path d="M 2.984375 54.6875 
L 12.5 54.6875 
L 29.59375 8.796875 
L 46.6875 54.6875 
L 56.203125 54.6875 
L 35.6875 0 
L 23.484375 0 
z
" id="DejaVuSans-118"/>
        <path d="M 9.421875 75.984375 
L 18.40625 75.984375 
L 18.40625 0 
L 9.421875 0 
z
" id="DejaVuSans-108"/>
        <path d="M 30.609375 48.390625 
Q 23.390625 48.390625 19.1875 42.75 
Q 14.984375 37.109375 14.984375 27.296875 
Q 14.984375 17.484375 19.15625 11.84375 
Q 23.34375 6.203125 30.609375 6.203125 
Q 37.796875 6.203125 41.984375 11.859375 
Q 46.1875 17.53125 46.1875 27.296875 
Q 46.1875 37.015625 41.984375 42.703125 
Q 37.796875 48.390625 30.609375 48.390625 
z
M 30.609375 56 
Q 42.328125 56 49.015625 48.375 
Q 55.71875 40.765625 55.71875 27.296875 
Q 55.71875 13.875 49.015625 6.21875 
Q 42.328125 -1.421875 30.609375 -1.421875 
Q 18.84375 -1.421875 12.171875 6.21875 
Q 5.515625 13.875 5.515625 27.296875 
Q 5.515625 40.765625 12.171875 48.375 
Q 18.84375 56 30.609375 56 
z
" id="DejaVuSans-111"/>
        <path d="M 41.109375 46.296875 
Q 39.59375 47.171875 37.8125 47.578125 
Q 36.03125 48 33.890625 48 
Q 26.265625 48 22.1875 43.046875 
Q 18.109375 38.09375 18.109375 28.8125 
L 18.109375 0 
L 9.078125 0 
L 9.078125 54.6875 
L 18.109375 54.6875 
L 18.109375 46.1875 
Q 20.953125 51.171875 25.484375 53.578125 
Q 30.03125 56 36.53125 56 
Q 37.453125 56 38.578125 55.875 
Q 39.703125 55.765625 41.0625 55.515625 
z
" id="DejaVuSans-114"/>
        <path d="M 48.6875 27.296875 
Q 48.6875 37.203125 44.609375 42.84375 
Q 40.53125 48.484375 33.40625 48.484375 
Q 26.265625 48.484375 22.1875 42.84375 
Q 18.109375 37.203125 18.109375 27.296875 
Q 18.109375 17.390625 22.1875 11.75 
Q 26.265625 6.109375 33.40625 6.109375 
Q 40.53125 6.109375 44.609375 11.75 
Q 48.6875 17.390625 48.6875 27.296875 
z
M 18.109375 46.390625 
Q 20.953125 51.265625 25.265625 53.625 
Q 29.59375 56 35.59375 56 
Q 45.5625 56 51.78125 48.09375 
Q 58.015625 40.1875 58.015625 27.296875 
Q 58.015625 14.40625 51.78125 6.484375 
Q 45.5625 -1.421875 35.59375 -1.421875 
Q 29.59375 -1.421875 25.265625 0.953125 
Q 20.953125 3.328125 18.109375 8.203125 
L 18.109375 0 
L 9.078125 0 
L 9.078125 75.984375 
L 18.109375 75.984375 
z
" id="DejaVuSans-98"/>
       </defs>
       <use xlink:href="#DejaVuSans-109"/>
       <use x="97.412109" xlink:href="#DejaVuSans-101"/>
       <use x="158.935547" xlink:href="#DejaVuSans-97"/>
       <use x="220.214844" xlink:href="#DejaVuSans-110"/>
       <use x="283.59375" xlink:href="#DejaVuSans-45"/>
       <use x="319.677734" xlink:href="#DejaVuSans-106"/>
       <use x="347.460938" xlink:href="#DejaVuSans-117"/>
       <use x="410.839844" xlink:href="#DejaVuSans-118"/>
       <use x="470.019531" xlink:href="#DejaVuSans-101"/>
       <use x="531.542969" xlink:href="#DejaVuSans-110"/>
       <use x="594.921875" xlink:href="#DejaVuSans-105"/>
       <use x="622.705078" xlink:href="#DejaVuSans-108"/>
       <use x="650.488281" xlink:href="#DejaVuSans-101"/>
       <use x="712.011719" xlink:href="#DejaVuSans-45"/>
       <use x="748.095703" xlink:href="#DejaVuSans-109"/>
       <use x="845.507812" xlink:href="#DejaVuSans-111"/>
       <use x="906.689453" xlink:href="#DejaVuSans-114"/>
       <use x="947.802734" xlink:href="#DejaVuSans-116"/>
       <use x="987.011719" xlink:href="#DejaVuSans-97"/>
       <use x="1048.291016" xlink:href="#DejaVuSans-108"/>
       <use x="1076.074219" xlink:href="#DejaVuSans-105"/>
       <use x="1103.857422" xlink:href="#DejaVuSans-116"/>
       <use x="1143.066406" xlink:href="#DejaVuSans-121"/>
       <use x="1200.496094" xlink:href="#DejaVuSans-45"/>
       <use x="1236.580078" xlink:href="#DejaVuSans-112"/>
       <use x="1300.056641" xlink:href="#DejaVuSans-114"/>
       <use x="1338.919922" xlink:href="#DejaVuSans-111"/>
       <use x="1400.101562" xlink:href="#DejaVuSans-98"/>
      </g>
     </g>
    </g>
    <g id="xtick_3">
     <g id="text_3">
      <!-- mean-adult-mortality-prob -->
      <g transform="translate(311.983007 19.488577)scale(0.1 -0.1)">
       <defs>
        <path d="M 45.40625 46.390625 
L 45.40625 75.984375 
L 54.390625 75.984375 
L 54.390625 0 
L 45.40625 0 
L 45.40625 8.203125 
Q 42.578125 3.328125 38.25 0.953125 
Q 33.9375 -1.421875 27.875 -1.421875 
Q 17.96875 -1.421875 11.734375 6.484375 
Q 5.515625 14.40625 5.515625 27.296875 
Q 5.515625 40.1875 11.734375 48.09375 
Q 17.96875 56 27.875 56 
Q 33.9375 56 38.25 53.625 
Q 42.578125 51.265625 45.40625 46.390625 
z
M 14.796875 27.296875 
Q 14.796875 17.390625 18.875 11.75 
Q 22.953125 6.109375 30.078125 6.109375 
Q 37.203125 6.109375 41.296875 11.75 
Q 45.40625 17.390625 45.40625 27.296875 
Q 45.40625 37.203125 41.296875 42.84375 
Q 37.203125 48.484375 30.078125 48.484375 
Q 22.953125 48.484375 18.875 42.84375 
Q 14.796875 37.203125 14.796875 27.296875 
z
" id="DejaVuSans-100"/>
       </defs>
       <use xlink:href="#DejaVuSans-109"/>
       <use x="97.412109" xlink:href="#DejaVuSans-101"/>
       <use x="158.935547" xlink:href="#DejaVuSans-97"/>
       <use x="220.214844" xlink:href="#DejaVuSans-110"/>
       <use x="283.59375" xlink:href="#DejaVuSans-45"/>
       <use x="319.677734" xlink:href="#DejaVuSans-97"/>
       <use x="380.957031" xlink:href="#DejaVuSans-100"/>
       <use x="444.433594" xlink:href="#DejaVuSans-117"/>
       <use x="507.8125" xlink:href="#DejaVuSans-108"/>
       <use x="535.595703" xlink:href="#DejaVuSans-116"/>
       <use x="574.804688" xlink:href="#DejaVuSans-45"/>
       <use x="610.888672" xlink:href="#DejaVuSans-109"/>
       <use x="708.300781" xlink:href="#DejaVuSans-111"/>
       <use x="769.482422" xlink:href="#DejaVuSans-114"/>
       <use x="810.595703" xlink:href="#DejaVuSans-116"/>
       <use x="849.804688" xlink:href="#DejaVuSans-97"/>
       <use x="911.083984" xlink:href="#DejaVuSans-108"/>
       <use x="938.867188" xlink:href="#DejaVuSans-105"/>
       <use x="966.650391" xlink:href="#DejaVuSans-116"/>
       <use x="1005.859375" xlink:href="#DejaVuSans-121"/>
       <use x="1063.289062" xlink:href="#DejaVuSans-45"/>
       <use x="1099.373047" xlink:href="#DejaVuSans-112"/>
       <use x="1162.849609" xlink:href="#DejaVuSans-114"/>
       <use x="1201.712891" xlink:href="#DejaVuSans-111"/>
       <use x="1262.894531" xlink:href="#DejaVuSans-98"/>
      </g>
     </g>
    </g>
    <g id="xtick_4">
     <g id="text_4">
      <!-- mortality-decrease-with-buffer -->
      <g transform="translate(138.178652 150.05402)scale(0.1 -0.1)">
       <defs>
        <path d="M 44.28125 53.078125 
L 44.28125 44.578125 
Q 40.484375 46.53125 36.375 47.5 
Q 32.28125 48.484375 27.875 48.484375 
Q 21.1875 48.484375 17.84375 46.4375 
Q 14.5 44.390625 14.5 40.28125 
Q 14.5 37.15625 16.890625 35.375 
Q 19.28125 33.59375 26.515625 31.984375 
L 29.59375 31.296875 
Q 39.15625 29.25 43.1875 25.515625 
Q 47.21875 21.78125 47.21875 15.09375 
Q 47.21875 7.46875 41.1875 3.015625 
Q 35.15625 -1.421875 24.609375 -1.421875 
Q 20.21875 -1.421875 15.453125 -0.5625 
Q 10.6875 0.296875 5.421875 2 
L 5.421875 11.28125 
Q 10.40625 8.6875 15.234375 7.390625 
Q 20.0625 6.109375 24.8125 6.109375 
Q 31.15625 6.109375 34.5625 8.28125 
Q 37.984375 10.453125 37.984375 14.40625 
Q 37.984375 18.0625 35.515625 20.015625 
Q 33.0625 21.96875 24.703125 23.78125 
L 21.578125 24.515625 
Q 13.234375 26.265625 9.515625 29.90625 
Q 5.8125 33.546875 5.8125 39.890625 
Q 5.8125 47.609375 11.28125 51.796875 
Q 16.75 56 26.8125 56 
Q 31.78125 56 36.171875 55.265625 
Q 40.578125 54.546875 44.28125 53.078125 
z
" id="DejaVuSans-115"/>
        <path d="M 4.203125 54.6875 
L 13.1875 54.6875 
L 24.421875 12.015625 
L 35.59375 54.6875 
L 46.1875 54.6875 
L 57.421875 12.015625 
L 68.609375 54.6875 
L 77.59375 54.6875 
L 63.28125 0 
L 52.6875 0 
L 40.921875 44.828125 
L 29.109375 0 
L 18.5 0 
z
" id="DejaVuSans-119"/>
        <path d="M 54.890625 33.015625 
L 54.890625 0 
L 45.90625 0 
L 45.90625 32.71875 
Q 45.90625 40.484375 42.875 44.328125 
Q 39.84375 48.1875 33.796875 48.1875 
Q 26.515625 48.1875 22.3125 43.546875 
Q 18.109375 38.921875 18.109375 30.90625 
L 18.109375 0 
L 9.078125 0 
L 9.078125 75.984375 
L 18.109375 75.984375 
L 18.109375 46.1875 
Q 21.34375 51.125 25.703125 53.5625 
Q 30.078125 56 35.796875 56 
Q 45.21875 56 50.046875 50.171875 
Q 54.890625 44.34375 54.890625 33.015625 
z
" id="DejaVuSans-104"/>
        <path d="M 37.109375 75.984375 
L 37.109375 68.5 
L 28.515625 68.5 
Q 23.6875 68.5 21.796875 66.546875 
Q 19.921875 64.59375 19.921875 59.515625 
L 19.921875 54.6875 
L 34.71875 54.6875 
L 34.71875 47.703125 
L 19.921875 47.703125 
L 19.921875 0 
L 10.890625 0 
L 10.890625 47.703125 
L 2.296875 47.703125 
L 2.296875 54.6875 
L 10.890625 54.6875 
L 10.890625 58.5 
Q 10.890625 67.625 15.140625 71.796875 
Q 19.390625 75.984375 28.609375 75.984375 
z
" id="DejaVuSans-102"/>
       </defs>
       <use xlink:href="#DejaVuSans-109"/>
       <use x="97.412109" xlink:href="#DejaVuSans-111"/>
       <use x="158.59375" xlink:href="#DejaVuSans-114"/>
       <use x="199.707031" xlink:href="#DejaVuSans-116"/>
       <use x="238.916016" xlink:href="#DejaVuSans-97"/>
       <use x="300.195312" xlink:href="#DejaVuSans-108"/>
       <use x="327.978516" xlink:href="#DejaVuSans-105"/>
       <use x="355.761719" xlink:href="#DejaVuSans-116"/>
       <use x="394.970703" xlink:href="#DejaVuSans-121"/>
       <use x="452.400391" xlink:href="#DejaVuSans-45"/>
       <use x="488.484375" xlink:href="#DejaVuSans-100"/>
       <use x="551.960938" xlink:href="#DejaVuSans-101"/>
       <use x="613.484375" xlink:href="#DejaVuSans-99"/>
       <use x="668.464844" xlink:href="#DejaVuSans-114"/>
       <use x="707.328125" xlink:href="#DejaVuSans-101"/>
       <use x="768.851562" xlink:href="#DejaVuSans-97"/>
       <use x="830.130859" xlink:href="#DejaVuSans-115"/>
       <use x="882.230469" xlink:href="#DejaVuSans-101"/>
       <use x="943.753906" xlink:href="#DejaVuSans-45"/>
       <use x="979.837891" xlink:href="#DejaVuSans-119"/>
       <use x="1061.625" xlink:href="#DejaVuSans-105"/>
       <use x="1089.408203" xlink:href="#DejaVuSans-116"/>
       <use x="1128.617188" xlink:href="#DejaVuSans-104"/>
       <use x="1191.996094" xlink:href="#DejaVuSans-45"/>
       <use x="1228.080078" xlink:href="#DejaVuSans-98"/>
       <use x="1291.556641" xlink:href="#DejaVuSans-117"/>
       <use x="1354.935547" xlink:href="#DejaVuSans-102"/>
       <use x="1390.140625" xlink:href="#DejaVuSans-102"/>
       <use x="1425.345703" xlink:href="#DejaVuSans-101"/>
       <use x="1486.869141" xlink:href="#DejaVuSans-114"/>
      </g>
     </g>
    </g>
    <g id="xtick_5">
     <g id="text_5">
      <!-- distance-for-viewing-ponds-and-woodland -->
      <g transform="translate(109.933339 359.46473)scale(0.1 -0.1)">
       <defs>
        <path d="M 45.40625 27.984375 
Q 45.40625 37.75 41.375 43.109375 
Q 37.359375 48.484375 30.078125 48.484375 
Q 22.859375 48.484375 18.828125 43.109375 
Q 14.796875 37.75 14.796875 27.984375 
Q 14.796875 18.265625 18.828125 12.890625 
Q 22.859375 7.515625 30.078125 7.515625 
Q 37.359375 7.515625 41.375 12.890625 
Q 45.40625 18.265625 45.40625 27.984375 
z
M 54.390625 6.78125 
Q 54.390625 -7.171875 48.1875 -13.984375 
Q 42 -20.796875 29.203125 -20.796875 
Q 24.46875 -20.796875 20.265625 -20.09375 
Q 16.0625 -19.390625 12.109375 -17.921875 
L 12.109375 -9.1875 
Q 16.0625 -11.328125 19.921875 -12.34375 
Q 23.78125 -13.375 27.78125 -13.375 
Q 36.625 -13.375 41.015625 -8.765625 
Q 45.40625 -4.15625 45.40625 5.171875 
L 45.40625 9.625 
Q 42.625 4.78125 38.28125 2.390625 
Q 33.9375 0 27.875 0 
Q 17.828125 0 11.671875 7.65625 
Q 5.515625 15.328125 5.515625 27.984375 
Q 5.515625 40.671875 11.671875 48.328125 
Q 17.828125 56 27.875 56 
Q 33.9375 56 38.28125 53.609375 
Q 42.625 51.21875 45.40625 46.390625 
L 45.40625 54.6875 
L 54.390625 54.6875 
z
" id="DejaVuSans-103"/>
       </defs>
       <use xlink:href="#DejaVuSans-100"/>
       <use x="63.476562" xlink:href="#DejaVuSans-105"/>
       <use x="91.259766" xlink:href="#DejaVuSans-115"/>
       <use x="143.359375" xlink:href="#DejaVuSans-116"/>
       <use x="182.568359" xlink:href="#DejaVuSans-97"/>
       <use x="243.847656" xlink:href="#DejaVuSans-110"/>
       <use x="307.226562" xlink:href="#DejaVuSans-99"/>
       <use x="362.207031" xlink:href="#DejaVuSans-101"/>
       <use x="423.730469" xlink:href="#DejaVuSans-45"/>
       <use x="459.814453" xlink:href="#DejaVuSans-102"/>
       <use x="495.019531" xlink:href="#DejaVuSans-111"/>
       <use x="556.201172" xlink:href="#DejaVuSans-114"/>
       <use x="590.939453" xlink:href="#DejaVuSans-45"/>
       <use x="624.398438" xlink:href="#DejaVuSans-118"/>
       <use x="683.578125" xlink:href="#DejaVuSans-105"/>
       <use x="711.361328" xlink:href="#DejaVuSans-101"/>
       <use x="772.884766" xlink:href="#DejaVuSans-119"/>
       <use x="854.671875" xlink:href="#DejaVuSans-105"/>
       <use x="882.455078" xlink:href="#DejaVuSans-110"/>
       <use x="945.833984" xlink:href="#DejaVuSans-103"/>
       <use x="1009.310547" xlink:href="#DejaVuSans-45"/>
       <use x="1045.394531" xlink:href="#DejaVuSans-112"/>
       <use x="1108.871094" xlink:href="#DejaVuSans-111"/>
       <use x="1170.052734" xlink:href="#DejaVuSans-110"/>
       <use x="1233.431641" xlink:href="#DejaVuSans-100"/>
       <use x="1296.908203" xlink:href="#DejaVuSans-115"/>
       <use x="1349.007812" xlink:href="#DejaVuSans-45"/>
       <use x="1385.091797" xlink:href="#DejaVuSans-97"/>
       <use x="1446.371094" xlink:href="#DejaVuSans-110"/>
       <use x="1509.75" xlink:href="#DejaVuSans-100"/>
       <use x="1573.226562" xlink:href="#DejaVuSans-45"/>
       <use x="1609.310547" xlink:href="#DejaVuSans-119"/>
       <use x="1691.097656" xlink:href="#DejaVuSans-111"/>
       <use x="1752.279297" xlink:href="#DejaVuSans-111"/>
       <use x="1813.460938" xlink:href="#DejaVuSans-100"/>
       <use x="1876.9375" xlink:href="#DejaVuSans-108"/>
       <use x="1904.720703" xlink:href="#DejaVuSans-97"/>
       <use x="1966" xlink:href="#DejaVuSans-110"/>
       <use x="2029.378906" xlink:href="#DejaVuSans-100"/>
      </g>
     </g>
    </g>
    <g id="xtick_6">
     <g id="text_6">
      <!-- movement-energy -->
      <g transform="translate(332.032226 490.030173)scale(0.1 -0.1)">
       <use xlink:href="#DejaVuSans-109"/>
       <use x="97.412109" xlink:href="#DejaVuSans-111"/>
       <use x="158.59375" xlink:href="#DejaVuSans-118"/>
       <use x="217.773438" xlink:href="#DejaVuSans-101"/>
       <use x="279.296875" xlink:href="#DejaVuSans-109"/>
       <use x="376.708984" xlink:href="#DejaVuSans-101"/>
       <use x="438.232422" xlink:href="#DejaVuSans-110"/>
       <use x="501.611328" xlink:href="#DejaVuSans-116"/>
       <use x="540.820312" xlink:href="#DejaVuSans-45"/>
       <use x="576.904297" xlink:href="#DejaVuSans-101"/>
       <use x="638.427734" xlink:href="#DejaVuSans-110"/>
       <use x="701.806641" xlink:href="#DejaVuSans-101"/>
       <use x="763.330078" xlink:href="#DejaVuSans-114"/>
       <use x="802.693359" xlink:href="#DejaVuSans-103"/>
       <use x="866.169922" xlink:href="#DejaVuSans-121"/>
      </g>
     </g>
    </g>
    <g id="xtick_7">
     <g id="text_7">
      <!-- mean-number-of-female-offspring -->
      <g transform="translate(497.755854 443.431906)scale(0.1 -0.1)">
       <use xlink:href="#DejaVuSans-109"/>
       <use x="97.412109" xlink:href="#DejaVuSans-101"/>
       <use x="158.935547" xlink:href="#DejaVuSans-97"/>
       <use x="220.214844" xlink:href="#DejaVuSans-110"/>
       <use x="283.59375" xlink:href="#DejaVuSans-45"/>
       <use x="319.677734" xlink:href="#DejaVuSans-110"/>
       <use x="383.056641" xlink:href="#DejaVuSans-117"/>
       <use x="446.435547" xlink:href="#DejaVuSans-109"/>
       <use x="543.847656" xlink:href="#DejaVuSans-98"/>
       <use x="607.324219" xlink:href="#DejaVuSans-101"/>
       <use x="668.847656" xlink:href="#DejaVuSans-114"/>
       <use x="703.585938" xlink:href="#DejaVuSans-45"/>
       <use x="741.544922" xlink:href="#DejaVuSans-111"/>
       <use x="802.726562" xlink:href="#DejaVuSans-102"/>
       <use x="832.431641" xlink:href="#DejaVuSans-45"/>
       <use x="868.515625" xlink:href="#DejaVuSans-102"/>
       <use x="903.720703" xlink:href="#DejaVuSans-101"/>
       <use x="965.244141" xlink:href="#DejaVuSans-109"/>
       <use x="1062.65625" xlink:href="#DejaVuSans-97"/>
       <use x="1123.935547" xlink:href="#DejaVuSans-108"/>
       <use x="1151.71875" xlink:href="#DejaVuSans-101"/>
       <use x="1213.242188" xlink:href="#DejaVuSans-45"/>
       <use x="1251.201172" xlink:href="#DejaVuSans-111"/>
       <use x="1312.382812" xlink:href="#DejaVuSans-102"/>
       <use x="1347.587891" xlink:href="#DejaVuSans-102"/>
       <use x="1382.792969" xlink:href="#DejaVuSans-115"/>
       <use x="1434.892578" xlink:href="#DejaVuSans-112"/>
       <use x="1498.369141" xlink:href="#DejaVuSans-114"/>
       <use x="1539.482422" xlink:href="#DejaVuSans-105"/>
       <use x="1567.265625" xlink:href="#DejaVuSans-110"/>
       <use x="1630.644531" xlink:href="#DejaVuSans-103"/>
      </g>
     </g>
    </g>
   </g>
   <g id="matplotlib.axis_2">
    <g id="ytick_1"/>
    <g id="ytick_2"/>
    <g id="ytick_3"/>
    <g id="ytick_4"/>
    <g id="ytick_5"/>
    <g id="ytick_6"/>
    <g id="ytick_7"/>
   </g>
   <g id="legend_1">
    <g id="patch_3">
     <path d="M 661.321225 70.14302 
L 706.032162 70.14302 
Q 708.032162 70.14302 708.032162 68.14302 
L 708.032162 25.108645 
Q 708.032162 23.108645 706.032162 23.108645 
L 661.321225 23.108645 
Q 659.321225 23.108645 659.321225 25.108645 
L 659.321225 68.14302 
Q 659.321225 70.14302 661.321225 70.14302 
z
" style="fill:#ffffff;opacity:0.8;stroke:#cccccc;stroke-linejoin:miter;"/>
    </g>
    <g id="patch_4">
     <path d="M 673.321225 36.207083 
C 674.64724 36.207083 675.919124 35.680251 676.856759 34.742617 
C 677.794393 33.804982 678.321225 32.533098 678.321225 31.207083 
C 678.321225 29.881067 677.794393 28.609183 676.856759 27.671549 
C 675.919124 26.733914 674.64724 26.207083 673.321225 26.207083 
C 671.995209 26.207083 670.723325 26.733914 669.785691 27.671549 
C 668.848056 28.609183 668.321225 29.881067 668.321225 31.207083 
C 668.321225 32.533098 668.848056 33.804982 669.785691 34.742617 
C 670.723325 35.680251 671.995209 36.207083 673.321225 36.207083 
z
" style="fill:none;stroke:#000000;stroke-linejoin:miter;"/>
    </g>
    <g id="text_8">
     <!-- ST -->
     <g transform="translate(691.321225 34.707083)scale(0.1 -0.1)">
      <defs>
       <path d="M 53.515625 70.515625 
L 53.515625 60.890625 
Q 47.90625 63.578125 42.921875 64.890625 
Q 37.9375 66.21875 33.296875 66.21875 
Q 25.25 66.21875 20.875 63.09375 
Q 16.5 59.96875 16.5 54.203125 
Q 16.5 49.359375 19.40625 46.890625 
Q 22.3125 44.4375 30.421875 42.921875 
L 36.375 41.703125 
Q 47.40625 39.59375 52.65625 34.296875 
Q 57.90625 29 57.90625 20.125 
Q 57.90625 9.515625 50.796875 4.046875 
Q 43.703125 -1.421875 29.984375 -1.421875 
Q 24.8125 -1.421875 18.96875 -0.25 
Q 13.140625 0.921875 6.890625 3.21875 
L 6.890625 13.375 
Q 12.890625 10.015625 18.65625 8.296875 
Q 24.421875 6.59375 29.984375 6.59375 
Q 38.421875 6.59375 43.015625 9.90625 
Q 47.609375 13.234375 47.609375 19.390625 
Q 47.609375 24.75 44.3125 27.78125 
Q 41.015625 30.8125 33.5 32.328125 
L 27.484375 33.5 
Q 16.453125 35.6875 11.515625 40.375 
Q 6.59375 45.0625 6.59375 53.421875 
Q 6.59375 63.09375 13.40625 68.65625 
Q 20.21875 74.21875 32.171875 74.21875 
Q 37.3125 74.21875 42.625 73.28125 
Q 47.953125 72.359375 53.515625 70.515625 
z
" id="DejaVuSans-83"/>
       <path d="M -0.296875 72.90625 
L 61.375 72.90625 
L 61.375 64.59375 
L 35.5 64.59375 
L 35.5 0 
L 25.59375 0 
L 25.59375 64.59375 
L -0.296875 64.59375 
z
" id="DejaVuSans-84"/>
      </defs>
      <use xlink:href="#DejaVuSans-83"/>
      <use x="63.476562" xlink:href="#DejaVuSans-84"/>
     </g>
    </g>
    <g id="patch_5">
     <path d="M 673.321225 50.885208 
C 674.64724 50.885208 675.919124 50.358376 676.856759 49.420742 
C 677.794393 48.483107 678.321225 47.211223 678.321225 45.885208 
C 678.321225 44.559192 677.794393 43.287308 676.856759 42.349674 
C 675.919124 41.412039 674.64724 40.885208 673.321225 40.885208 
C 671.995209 40.885208 670.723325 41.412039 669.785691 42.349674 
C 668.848056 43.287308 668.321225 44.559192 668.321225 45.885208 
C 668.321225 47.211223 668.848056 48.483107 669.785691 49.420742 
C 670.723325 50.358376 671.995209 50.885208 673.321225 50.885208 
z
" style="stroke:#000000;stroke-linejoin:miter;"/>
    </g>
    <g id="text_9">
     <!-- S1 -->
     <g transform="translate(691.321225 49.385208)scale(0.1 -0.1)">
      <defs>
       <path d="M 12.40625 8.296875 
L 28.515625 8.296875 
L 28.515625 63.921875 
L 10.984375 60.40625 
L 10.984375 69.390625 
L 28.421875 72.90625 
L 38.28125 72.90625 
L 38.28125 8.296875 
L 54.390625 8.296875 
L 54.390625 0 
L 12.40625 0 
z
" id="DejaVuSans-49"/>
      </defs>
      <use xlink:href="#DejaVuSans-83"/>
      <use x="63.476562" xlink:href="#DejaVuSans-49"/>
     </g>
    </g>
    <g id="line2d_22">
     <path d="M 663.321225 60.563333 
L 683.321225 60.563333 
" style="fill:none;stroke:#a9a9a9;stroke-linecap:square;stroke-width:8;"/>
    </g>
    <g id="line2d_23"/>
    <g id="text_10">
     <!-- S2 -->
     <g transform="translate(691.321225 64.063333)scale(0.1 -0.1)">
      <defs>
       <path d="M 19.1875 8.296875 
L 53.609375 8.296875 
L 53.609375 0 
L 7.328125 0 
L 7.328125 8.296875 
Q 12.9375 14.109375 22.625 23.890625 
Q 32.328125 33.6875 34.8125 36.53125 
Q 39.546875 41.84375 41.421875 45.53125 
Q 43.3125 49.21875 43.3125 52.78125 
Q 43.3125 58.59375 39.234375 62.25 
Q 35.15625 65.921875 28.609375 65.921875 
Q 23.96875 65.921875 18.8125 64.3125 
Q 13.671875 62.703125 7.8125 59.421875 
L 7.8125 69.390625 
Q 13.765625 71.78125 18.9375 73 
Q 24.125 74.21875 28.421875 74.21875 
Q 39.75 74.21875 46.484375 68.546875 
Q 53.21875 62.890625 53.21875 53.421875 
Q 53.21875 48.921875 51.53125 44.890625 
Q 49.859375 40.875 45.40625 35.40625 
Q 44.1875 33.984375 37.640625 27.21875 
Q 31.109375 20.453125 19.1875 8.296875 
z
" id="DejaVuSans-50"/>
      </defs>
      <use xlink:href="#DejaVuSans-83"/>
      <use x="63.476562" xlink:href="#DejaVuSans-50"/>
     </g>
    </g>
   </g>
   <g id="patch_6">
    <path clip-path="url(#pf3e072c18b)" d="M 594.372303 286.098184 
C 603.415247 286.098184 612.089033 282.505384 618.48336 276.111057 
C 624.877687 269.71673 628.470487 261.042944 628.470487 252 
C 628.470487 242.957056 624.877687 234.28327 618.48336 227.888943 
C 612.089033 221.494616 603.415247 217.901816 594.372303 217.901816 
C 585.329359 217.901816 576.655573 221.494616 570.261246 227.888943 
C 563.866919 234.28327 560.27412 242.957056 560.27412 252 
C 560.27412 261.042944 563.866919 269.71673 570.261246 276.111057 
C 576.655573 282.505384 585.329359 286.098184 594.372303 286.098184 
z
" style="fill:#ffffff;stroke:#000000;stroke-linejoin:miter;"/>
   </g>
   <g id="patch_7">
    <path clip-path="url(#pf3e072c18b)" d="M 533.237475 156.804351 
C 541.658238 156.804351 549.735243 153.458746 555.689621 147.504368 
C 561.644 141.549989 564.989605 133.472985 564.989605 125.052221 
C 564.989605 116.631458 561.644 108.554454 555.689621 102.600075 
C 549.735243 96.645696 541.658238 93.300092 533.237475 93.300092 
C 524.816712 93.300092 516.739708 96.645696 510.785329 102.600075 
C 504.83095 108.554454 501.485346 116.631458 501.485346 125.052221 
C 501.485346 133.472985 504.83095 141.549989 510.785329 147.504368 
C 516.739708 153.458746 524.816712 156.804351 533.237475 156.804351 
z
" style="fill:#ffffff;stroke:#000000;stroke-linejoin:miter;"/>
   </g>
   <g id="patch_8">
    <path clip-path="url(#pf3e072c18b)" d="M 395.868763 111.098123 
C 400.483142 111.098123 404.909148 109.264811 408.172007 106.001952 
C 411.434865 102.739094 413.268177 98.313088 413.268177 93.698709 
C 413.268177 89.084331 411.434865 84.658324 408.172007 81.395466 
C 404.909148 78.132608 400.483142 76.299296 395.868763 76.299296 
C 391.254385 76.299296 386.828378 78.132608 383.56552 81.395466 
C 380.302662 84.658324 378.46935 89.084331 378.46935 93.698709 
C 378.46935 98.313088 380.302662 102.739094 383.56552 106.001952 
C 386.828378 109.264811 391.254385 111.098123 395.868763 111.098123 
z
" style="fill:#ffffff;stroke:#000000;stroke-linejoin:miter;"/>
   </g>
   <g id="patch_9">
    <path clip-path="url(#pf3e072c18b)" d="M 285.70761 200.664782 
C 290.777095 200.664782 295.63963 198.650654 299.224298 195.065986 
C 302.808966 191.481319 304.823094 186.618783 304.823094 181.549298 
C 304.823094 176.479812 302.808966 171.617277 299.224298 168.03261 
C 295.63963 164.447942 290.777095 162.433814 285.70761 162.433814 
C 280.638124 162.433814 275.775589 164.447942 272.190921 168.03261 
C 268.606254 171.617277 266.592126 176.479812 266.592126 181.549298 
C 266.592126 186.618783 268.606254 191.481319 272.190921 195.065986 
C 275.775589 198.650654 280.638124 200.664782 285.70761 200.664782 
z
" style="fill:#ffffff;stroke:#000000;stroke-linejoin:miter;"/>
   </g>
   <g id="patch_10">
    <path clip-path="url(#pf3e072c18b)" d="M 285.70761 336.761132 
C 289.50278 336.761132 293.143021 335.253295 295.826612 332.569704 
C 298.510203 329.886114 300.01804 326.245873 300.01804 322.450702 
C 300.01804 318.655532 298.510203 315.015291 295.826612 312.3317 
C 293.143021 309.648109 289.50278 308.140272 285.70761 308.140272 
C 281.912439 308.140272 278.272198 309.648109 275.588607 312.3317 
C 272.905017 315.015291 271.397179 318.655532 271.397179 322.450702 
C 271.397179 326.245873 272.905017 329.886114 275.588607 332.569704 
C 278.272198 335.253295 281.912439 336.761132 285.70761 336.761132 
z
" style="fill:#ffffff;stroke:#000000;stroke-linejoin:miter;"/>
   </g>
   <g id="patch_11">
    <path clip-path="url(#pf3e072c18b)" d="M 395.868763 424.435365 
C 399.617164 424.435365 403.212544 422.94611 405.863063 420.295591 
C 408.513583 417.645071 410.002838 414.049691 410.002838 410.301291 
C 410.002838 406.55289 408.513583 402.95751 405.863063 400.306991 
C 403.212544 397.656471 399.617164 396.167216 395.868763 396.167216 
C 392.120363 396.167216 388.524983 397.656471 385.874463 400.306991 
C 383.223944 402.95751 381.734689 406.55289 381.734689 410.301291 
C 381.734689 414.049691 383.223944 417.645071 385.874463 420.295591 
C 388.524983 422.94611 392.120363 424.435365 395.868763 424.435365 
z
" style="fill:#ffffff;stroke:#000000;stroke-linejoin:miter;"/>
   </g>
   <g id="patch_12">
    <path clip-path="url(#pf3e072c18b)" d="M 533.237475 393.284903 
C 537.039725 393.284903 540.686757 391.774254 543.375353 389.085657 
C 546.06395 386.39706 547.5746 382.750029 547.5746 378.947779 
C 547.5746 375.145529 546.06395 371.498497 543.375353 368.8099 
C 540.686757 366.121304 537.039725 364.610654 533.237475 364.610654 
C 529.435225 364.610654 525.788194 366.121304 523.099597 368.8099 
C 520.411 371.498497 518.90035 375.145529 518.90035 378.947779 
C 518.90035 382.750029 520.411 386.39706 523.099597 389.085657 
C 525.788194 391.774254 529.435225 393.284903 533.237475 393.284903 
z
" style="fill:#ffffff;stroke:#000000;stroke-linejoin:miter;"/>
   </g>
   <g id="patch_13">
    <path clip-path="url(#pf3e072c18b)" d="M 594.372303 282.098964 
C 602.354642 282.098964 610.011119 278.927547 615.655485 273.283181 
C 621.29985 267.638816 624.471267 259.982338 624.471267 252 
C 624.471267 244.017662 621.29985 236.361184 615.655485 230.716819 
C 610.011119 225.072453 602.354642 221.901036 594.372303 221.901036 
C 586.389965 221.901036 578.733488 225.072453 573.089122 230.716819 
C 567.444756 236.361184 564.27334 244.017662 564.27334 252 
C 564.27334 259.982338 567.444756 267.638816 573.089122 273.283181 
C 578.733488 278.927547 586.389965 282.098964 594.372303 282.098964 
z
"/>
   </g>
   <g id="patch_14">
    <path clip-path="url(#pf3e072c18b)" d="M 533.237475 152.180949 
C 540.432098 152.180949 547.333016 149.322495 552.420383 144.235129 
C 557.507749 139.147762 560.366203 132.246844 560.366203 125.052221 
C 560.366203 117.857599 557.507749 110.95668 552.420383 105.869314 
C 547.333016 100.781947 540.432098 97.923493 533.237475 97.923493 
C 526.042852 97.923493 519.141934 100.781947 514.054568 105.869314 
C 508.967201 110.95668 506.108747 117.857599 506.108747 125.052221 
C 506.108747 132.246844 508.967201 139.147762 514.054568 144.235129 
C 519.141934 149.322495 526.042852 152.180949 533.237475 152.180949 
z
"/>
   </g>
   <g id="patch_15">
    <path clip-path="url(#pf3e072c18b)" d="M 395.868763 102.376563 
C 398.170157 102.376563 400.377601 101.462209 402.004932 99.834878 
C 403.632263 98.207547 404.546617 96.000103 404.546617 93.698709 
C 404.546617 91.397316 403.632263 89.189871 402.004932 87.56254 
C 400.377601 85.935209 398.170157 85.020856 395.868763 85.020856 
C 393.56737 85.020856 391.359926 85.935209 389.732595 87.56254 
C 388.105264 89.189871 387.19091 91.397316 387.19091 93.698709 
C 387.19091 96.000103 388.105264 98.207547 389.732595 99.834878 
C 391.359926 101.462209 393.56737 102.376563 395.868763 102.376563 
z
"/>
   </g>
   <g id="patch_16">
    <path clip-path="url(#pf3e072c18b)" d="M 285.70761 194.180145 
C 289.05735 194.180145 292.270344 192.849279 294.638967 190.480656 
C 297.007591 188.112032 298.338457 184.899038 298.338457 181.549298 
C 298.338457 178.199558 297.007591 174.986564 294.638967 172.61794 
C 292.270344 170.249316 289.05735 168.918451 285.70761 168.918451 
C 282.35787 168.918451 279.144876 170.249316 276.776252 172.61794 
C 274.407628 174.986564 273.076762 178.199558 273.076762 181.549298 
C 273.076762 184.899038 274.407628 188.112032 276.776252 190.480656 
C 279.144876 192.849279 282.35787 194.180145 285.70761 194.180145 
z
"/>
   </g>
   <g id="patch_17">
    <path clip-path="url(#pf3e072c18b)" d="M 285.70761 326.604748 
C 286.809276 326.604748 287.865968 326.167052 288.644964 325.388056 
C 289.423959 324.609061 289.861656 323.552368 289.861656 322.450702 
C 289.861656 321.349036 289.423959 320.292343 288.644964 319.513348 
C 287.865968 318.734352 286.809276 318.296656 285.70761 318.296656 
C 284.605944 318.296656 283.549251 318.734352 282.770255 319.513348 
C 281.99126 320.292343 281.553564 321.349036 281.553564 322.450702 
C 281.553564 323.552368 281.99126 324.609061 282.770255 325.388056 
C 283.549251 326.167052 284.605944 326.604748 285.70761 326.604748 
z
"/>
   </g>
   <g id="patch_18">
    <path clip-path="url(#pf3e072c18b)" d="M 395.868763 414.788941 
C 397.058902 414.788941 398.200456 414.316094 399.042012 413.474539 
C 399.883567 412.632984 400.356414 411.49143 400.356414 410.301291 
C 400.356414 409.111152 399.883567 407.969598 399.042012 407.128043 
C 398.200456 406.286487 397.058902 405.81364 395.868763 405.81364 
C 394.678625 405.81364 393.537071 406.286487 392.695515 407.128043 
C 391.85396 407.969598 391.381113 409.111152 391.381113 410.301291 
C 391.381113 411.49143 391.85396 412.632984 392.695515 413.474539 
C 393.537071 414.316094 394.678625 414.788941 395.868763 414.788941 
z
"/>
   </g>
   <g id="patch_19">
    <path clip-path="url(#pf3e072c18b)" d="M 533.237475 380.571502 
C 533.668092 380.571502 534.081129 380.400416 534.385621 380.095924 
C 534.690113 379.791432 534.861198 379.378395 534.861198 378.947779 
C 534.861198 378.517162 534.690113 378.104125 534.385621 377.799633 
C 534.081129 377.495141 533.668092 377.324056 533.237475 377.324056 
C 532.806859 377.324056 532.393821 377.495141 532.08933 377.799633 
C 531.784838 378.104125 531.613752 378.517162 531.613752 378.947779 
C 531.613752 379.378395 531.784838 379.791432 532.08933 380.095924 
C 532.393821 380.400416 532.806859 380.571502 533.237475 380.571502 
z
"/>
   </g>
  </g>
 </g>
 <defs>
  <clipPath id="pf3e072c18b">
   <path d="M 659.321225 252 
C 659.321225 222.14845 653.44112 192.587169 642.017427 165.007933 
C 630.593733 137.428698 613.848613 112.367854 592.740379 91.259621 
C 571.632146 70.151387 546.571302 53.406267 518.992067 41.982573 
C 491.412831 30.55888 461.85155 24.678775 432 24.678775 
C 402.14845 24.678775 372.587169 30.55888 345.007933 41.982573 
C 317.428698 53.406267 292.367854 70.151387 271.259621 91.259621 
C 250.151387 112.367854 233.406267 137.428698 221.982573 165.007933 
C 210.55888 192.587169 204.678775 222.14845 204.678775 252 
C 204.678775 281.85155 210.55888 311.412831 221.982573 338.992067 
C 233.406267 366.571302 250.151387 391.632146 271.259621 412.740379 
C 292.367854 433.848613 317.428698 450.593733 345.007933 462.017427 
C 372.587169 473.44112 402.14845 479.321225 432 479.321225 
C 461.85155 479.321225 491.412831 473.44112 518.992067 462.017427 
C 546.571302 450.593733 571.632146 433.848613 592.740379 412.740379 
C 613.848613 391.632146 630.593733 366.571302 642.017427 338.992067 
C 653.44112 311.412831 659.321225 281.85155 659.321225 252 
M 432 252 
C 432 252 432 252 432 252 
C 432 252 432 252 432 252 
C 432 252 432 252 432 252 
C 432 252 432 252 432 252 
C 432 252 432 252 432 252 
C 432 252 432 252 432 252 
C 432 252 432 252 432 252 
C 432 252 432 252 432 252 
C 432 252 432 252 432 252 
C 432 252 432 252 432 252 
C 432 252 432 252 432 252 
C 432 252 432 252 432 252 
C 432 252 432 252 432 252 
C 432 252 432 252 432 252 
C 432 252 432 252 432 252 
C 432 252 432 252 432 252 
M 659.321225 252 
z
"/>
  </clipPath>
 </defs>
</svg>
